STARTFONT 2.1
COMMENT
COMMENT Converted from OpenType font "JF-Dot-K14B-2004.ttf" by "otf2bdf 3.0".
COMMENT
FONT -FreeType-JF Dot K14 2004-Bold-R-Normal--14-100-100-100-P-138-ISO10646-1
SIZE 10 100 100
FONTBOUNDINGBOX 14 14 0 -2
STARTPROPERTIES 19
FOUNDRY "FreeType"
FAMILY_NAME "JF Dot K14 2004"
WEIGHT_NAME "Bold"
SLANT "R"
SETWIDTH_NAME "Normal"
ADD_STYLE_NAME ""
PIXEL_SIZE 14
POINT_SIZE 100
RESOLUTION_X 100
RESOLUTION_Y 100
SPACING "P"
AVERAGE_WIDTH 138
CHARSET_REGISTRY "ISO10646"
CHARSET_ENCODING "1"
FONT_ASCENT 12
FONT_DESCENT 1
COPYRIGHT "-FreeType-JF Dot K14 2004-Bold-R-Normal--14-100-100-100-P-138-ISO10646-1"
_OTF_FONTFILE "JF-Dot-K14B-2004.ttf"
_OTF_PSNAME "JF-Dot-K14-2004-Bold"
ENDPROPERTIES
CHARS 11048
STARTCHAR 0020
ENCODING 32
SWIDTH 504 0
DWIDTH 7 0
BBX 0 0 0 -2
BITMAP
ENDCHAR
STARTCHAR 0021
ENCODING 33
SWIDTH 504 0
DWIDTH 7 0
BBX 2 10 3 0
BITMAP
C0
C0
C0
C0
C0
C0
C0
00
C0
C0
ENDCHAR
STARTCHAR 0022
ENCODING 34
SWIDTH 504 0
DWIDTH 7 0
BBX 6 4 1 -1
BITMAP
EC
6C
6C
D8
ENDCHAR
STARTCHAR 0023
ENCODING 35
SWIDTH 504 0
DWIDTH 7 0
BBX 6 10 1 0
BITMAP
68
68
68
FC
68
68
FC
68
68
68
ENDCHAR
STARTCHAR 0024
ENCODING 36
SWIDTH 504 0
DWIDTH 7 0
BBX 7 11 0 0
BITMAP
18
7C
DA
DA
68
3C
1A
DA
DA
7C
18
ENDCHAR
STARTCHAR 0025
ENCODING 37
SWIDTH 504 0
DWIDTH 7 0
BBX 7 10 0 0
BITMAP
76
DA
DC
78
18
30
3C
76
D6
DC
ENDCHAR
STARTCHAR 0026
ENCODING 38
SWIDTH 504 0
DWIDTH 7 0
BBX 7 10 0 0
BITMAP
38
6C
6C
6C
38
76
DA
CC
DC
76
ENDCHAR
STARTCHAR 0027
ENCODING 39
SWIDTH 504 0
DWIDTH 7 0
BBX 3 4 2 -1
BITMAP
E0
60
60
C0
ENDCHAR
STARTCHAR 0028
ENCODING 40
SWIDTH 504 0
DWIDTH 7 0
BBX 5 13 2 -1
BITMAP
18
30
60
60
C0
C0
C0
C0
C0
60
60
30
18
ENDCHAR
STARTCHAR 0029
ENCODING 41
SWIDTH 504 0
DWIDTH 7 0
BBX 5 13 1 -1
BITMAP
C0
60
30
30
18
18
18
18
18
30
30
60
C0
ENDCHAR
STARTCHAR 002A
ENCODING 42
SWIDTH 504 0
DWIDTH 7 0
BBX 6 7 1 2
BITMAP
30
D4
78
30
78
D4
30
ENDCHAR
STARTCHAR 002B
ENCODING 43
SWIDTH 504 0
DWIDTH 7 0
BBX 6 7 1 2
BITMAP
30
30
30
FC
30
30
30
ENDCHAR
STARTCHAR 002C
ENCODING 44
SWIDTH 504 0
DWIDTH 7 0
BBX 3 4 2 8
BITMAP
E0
60
60
C0
ENDCHAR
STARTCHAR 002D
ENCODING 45
SWIDTH 504 0
DWIDTH 7 0
BBX 6 1 1 5
BITMAP
FC
ENDCHAR
STARTCHAR 002E
ENCODING 46
SWIDTH 504 0
DWIDTH 7 0
BBX 3 2 2 8
BITMAP
E0
E0
ENDCHAR
STARTCHAR 002F
ENCODING 47
SWIDTH 504 0
DWIDTH 7 0
BBX 7 13 0 -1
BITMAP
06
06
0C
0C
18
18
18
30
30
60
60
C0
C0
ENDCHAR
STARTCHAR 0030
ENCODING 48
SWIDTH 504 0
DWIDTH 7 0
BBX 7 10 0 0
BITMAP
38
6C
C6
C6
C6
C6
C6
C6
6C
38
ENDCHAR
STARTCHAR 0031
ENCODING 49
SWIDTH 504 0
DWIDTH 7 0
BBX 6 10 1 0
BITMAP
30
70
D0
30
30
30
30
30
30
FC
ENDCHAR
STARTCHAR 0032
ENCODING 50
SWIDTH 504 0
DWIDTH 7 0
BBX 7 10 0 0
BITMAP
7C
C6
C6
06
0C
0C
18
30
60
FE
ENDCHAR
STARTCHAR 0033
ENCODING 51
SWIDTH 504 0
DWIDTH 7 0
BBX 7 10 0 0
BITMAP
FE
06
0C
18
3C
06
06
C6
C6
7C
ENDCHAR
STARTCHAR 0034
ENCODING 52
SWIDTH 504 0
DWIDTH 7 0
BBX 7 10 0 0
BITMAP
0C
1C
34
34
6C
6C
CC
FE
0C
0C
ENDCHAR
STARTCHAR 0035
ENCODING 53
SWIDTH 504 0
DWIDTH 7 0
BBX 7 10 0 0
BITMAP
FE
C0
C0
FC
C6
06
06
C6
C6
7C
ENDCHAR
STARTCHAR 0036
ENCODING 54
SWIDTH 504 0
DWIDTH 7 0
BBX 7 10 0 0
BITMAP
3C
60
C0
C0
DC
E6
C6
C6
C6
7C
ENDCHAR
STARTCHAR 0037
ENCODING 55
SWIDTH 504 0
DWIDTH 7 0
BBX 7 10 0 0
BITMAP
FE
06
0C
0C
18
18
30
30
60
60
ENDCHAR
STARTCHAR 0038
ENCODING 56
SWIDTH 504 0
DWIDTH 7 0
BBX 7 10 0 0
BITMAP
7C
C6
C6
6C
38
6C
C6
C6
C6
7C
ENDCHAR
STARTCHAR 0039
ENCODING 57
SWIDTH 504 0
DWIDTH 7 0
BBX 7 10 0 0
BITMAP
7C
C6
C6
C6
CE
7A
06
C6
CC
78
ENDCHAR
STARTCHAR 003A
ENCODING 58
SWIDTH 504 0
DWIDTH 7 0
BBX 3 6 2 3
BITMAP
E0
E0
00
00
E0
E0
ENDCHAR
STARTCHAR 003B
ENCODING 59
SWIDTH 504 0
DWIDTH 7 0
BBX 3 8 2 3
BITMAP
E0
E0
00
00
E0
60
60
C0
ENDCHAR
STARTCHAR 003C
ENCODING 60
SWIDTH 504 0
DWIDTH 7 0
BBX 6 9 1 1
BITMAP
0C
18
30
60
C0
60
30
18
0C
ENDCHAR
STARTCHAR 003D
ENCODING 61
SWIDTH 504 0
DWIDTH 7 0
BBX 7 4 0 3
BITMAP
FE
00
00
FE
ENDCHAR
STARTCHAR 003E
ENCODING 62
SWIDTH 504 0
DWIDTH 7 0
BBX 6 9 1 1
BITMAP
C0
60
30
18
0C
18
30
60
C0
ENDCHAR
STARTCHAR 003F
ENCODING 63
SWIDTH 504 0
DWIDTH 7 0
BBX 7 10 0 0
BITMAP
7C
C6
C6
0C
18
18
18
00
18
18
ENDCHAR
STARTCHAR 0040
ENCODING 64
SWIDTH 504 0
DWIDTH 7 0
BBX 7 10 0 0
BITMAP
3C
66
DE
D6
D6
D6
D6
DE
60
3E
ENDCHAR
STARTCHAR 0041
ENCODING 65
SWIDTH 504 0
DWIDTH 7 0
BBX 7 10 0 0
BITMAP
38
38
6C
6C
6C
7C
C6
C6
C6
C6
ENDCHAR
STARTCHAR 0042
ENCODING 66
SWIDTH 504 0
DWIDTH 7 0
BBX 7 10 0 0
BITMAP
F8
CC
CC
CC
F8
CC
C6
C6
CC
F8
ENDCHAR
STARTCHAR 0043
ENCODING 67
SWIDTH 504 0
DWIDTH 7 0
BBX 7 10 0 0
BITMAP
3C
66
C6
C0
C0
C0
C0
C6
66
3C
ENDCHAR
STARTCHAR 0044
ENCODING 68
SWIDTH 504 0
DWIDTH 7 0
BBX 7 10 0 0
BITMAP
F8
CC
C6
C6
C6
C6
C6
C6
CC
F8
ENDCHAR
STARTCHAR 0045
ENCODING 69
SWIDTH 504 0
DWIDTH 7 0
BBX 7 10 0 0
BITMAP
FE
C0
C0
C0
F8
C0
C0
C0
C0
FE
ENDCHAR
STARTCHAR 0046
ENCODING 70
SWIDTH 504 0
DWIDTH 7 0
BBX 7 10 0 0
BITMAP
FE
C0
C0
C0
F8
C0
C0
C0
C0
C0
ENDCHAR
STARTCHAR 0047
ENCODING 71
SWIDTH 504 0
DWIDTH 7 0
BBX 7 10 0 0
BITMAP
3C
66
C6
C0
C0
DE
C6
C6
6E
3A
ENDCHAR
STARTCHAR 0048
ENCODING 72
SWIDTH 504 0
DWIDTH 7 0
BBX 7 10 0 0
BITMAP
C6
C6
C6
C6
FE
C6
C6
C6
C6
C6
ENDCHAR
STARTCHAR 0049
ENCODING 73
SWIDTH 504 0
DWIDTH 7 0
BBX 4 10 2 0
BITMAP
F0
60
60
60
60
60
60
60
60
F0
ENDCHAR
STARTCHAR 004A
ENCODING 74
SWIDTH 504 0
DWIDTH 7 0
BBX 6 10 0 0
BITMAP
0C
0C
0C
0C
0C
0C
0C
CC
CC
78
ENDCHAR
STARTCHAR 004B
ENCODING 75
SWIDTH 504 0
DWIDTH 7 0
BBX 7 10 0 0
BITMAP
C6
CC
D8
D8
D0
E8
D8
CC
CC
C6
ENDCHAR
STARTCHAR 004C
ENCODING 76
SWIDTH 504 0
DWIDTH 7 0
BBX 7 10 0 0
BITMAP
C0
C0
C0
C0
C0
C0
C0
C0
C0
FE
ENDCHAR
STARTCHAR 004D
ENCODING 77
SWIDTH 504 0
DWIDTH 7 0
BBX 7 10 0 0
BITMAP
C6
EE
EE
DA
DA
C6
C6
C6
C6
C6
ENDCHAR
STARTCHAR 004E
ENCODING 78
SWIDTH 504 0
DWIDTH 7 0
BBX 7 10 0 0
BITMAP
C6
C6
E6
E6
D6
DA
CE
CE
C6
C6
ENDCHAR
STARTCHAR 004F
ENCODING 79
SWIDTH 504 0
DWIDTH 7 0
BBX 7 10 0 0
BITMAP
7C
C6
C6
C6
C6
C6
C6
C6
C6
7C
ENDCHAR
STARTCHAR 0050
ENCODING 80
SWIDTH 504 0
DWIDTH 7 0
BBX 7 10 0 0
BITMAP
FC
C6
C6
C6
C6
FC
C0
C0
C0
C0
ENDCHAR
STARTCHAR 0051
ENCODING 81
SWIDTH 504 0
DWIDTH 7 0
BBX 7 12 0 0
BITMAP
7C
C6
C6
C6
C6
C6
F6
DA
CE
7C
0C
06
ENDCHAR
STARTCHAR 0052
ENCODING 82
SWIDTH 504 0
DWIDTH 7 0
BBX 7 10 0 0
BITMAP
FC
C6
C6
C6
C6
FC
D8
CC
C6
C6
ENDCHAR
STARTCHAR 0053
ENCODING 83
SWIDTH 504 0
DWIDTH 7 0
BBX 7 10 0 0
BITMAP
7C
C6
C6
C0
70
1C
06
C6
C6
7C
ENDCHAR
STARTCHAR 0054
ENCODING 84
SWIDTH 504 0
DWIDTH 7 0
BBX 7 10 0 0
BITMAP
FE
18
18
18
18
18
18
18
18
18
ENDCHAR
STARTCHAR 0055
ENCODING 85
SWIDTH 504 0
DWIDTH 7 0
BBX 7 10 0 0
BITMAP
C6
C6
C6
C6
C6
C6
C6
C6
C6
7C
ENDCHAR
STARTCHAR 0056
ENCODING 86
SWIDTH 504 0
DWIDTH 7 0
BBX 7 10 0 0
BITMAP
C6
C6
C6
C6
6C
6C
6C
38
38
38
ENDCHAR
STARTCHAR 0057
ENCODING 87
SWIDTH 504 0
DWIDTH 7 0
BBX 6 10 1 0
BITMAP
CC
CC
CC
D4
D4
D4
D4
D4
68
68
ENDCHAR
STARTCHAR 0058
ENCODING 88
SWIDTH 504 0
DWIDTH 7 0
BBX 7 10 0 0
BITMAP
C6
C6
6C
6C
38
38
6C
6C
C6
C6
ENDCHAR
STARTCHAR 0059
ENCODING 89
SWIDTH 504 0
DWIDTH 7 0
BBX 6 10 1 0
BITMAP
CC
CC
CC
68
68
30
30
30
30
30
ENDCHAR
STARTCHAR 005A
ENCODING 90
SWIDTH 504 0
DWIDTH 7 0
BBX 7 10 0 0
BITMAP
FE
06
0C
18
18
30
60
60
C0
FE
ENDCHAR
STARTCHAR 005B
ENCODING 91
SWIDTH 504 0
DWIDTH 7 0
BBX 5 13 2 -1
BITMAP
F8
C0
C0
C0
C0
C0
C0
C0
C0
C0
C0
C0
F8
ENDCHAR
STARTCHAR 005C
ENCODING 92
SWIDTH 504 0
DWIDTH 7 0
BBX 6 10 1 0
BITMAP
CC
68
68
30
FC
30
FC
30
30
30
ENDCHAR
STARTCHAR 005D
ENCODING 93
SWIDTH 504 0
DWIDTH 7 0
BBX 5 13 1 -1
BITMAP
F8
18
18
18
18
18
18
18
18
18
18
18
F8
ENDCHAR
STARTCHAR 005E
ENCODING 94
SWIDTH 504 0
DWIDTH 7 0
BBX 7 3 0 -1
BITMAP
38
6C
C6
ENDCHAR
STARTCHAR 005F
ENCODING 95
SWIDTH 504 0
DWIDTH 7 0
BBX 7 1 0 11
BITMAP
FE
ENDCHAR
STARTCHAR 0060
ENCODING 96
SWIDTH 504 0
DWIDTH 7 0
BBX 3 4 2 -1
BITMAP
E0
C0
C0
60
ENDCHAR
STARTCHAR 0061
ENCODING 97
SWIDTH 504 0
DWIDTH 7 0
BBX 7 7 0 3
BITMAP
7C
C6
06
7E
C6
C6
7E
ENDCHAR
STARTCHAR 0062
ENCODING 98
SWIDTH 504 0
DWIDTH 7 0
BBX 7 10 0 0
BITMAP
C0
C0
C0
DC
E6
C6
C6
C6
E6
DC
ENDCHAR
STARTCHAR 0063
ENCODING 99
SWIDTH 504 0
DWIDTH 7 0
BBX 7 7 0 3
BITMAP
7C
C6
C0
C0
C0
C6
7C
ENDCHAR
STARTCHAR 0064
ENCODING 100
SWIDTH 504 0
DWIDTH 7 0
BBX 7 10 0 0
BITMAP
06
06
06
7A
CE
C6
C6
C6
CE
7A
ENDCHAR
STARTCHAR 0065
ENCODING 101
SWIDTH 504 0
DWIDTH 7 0
BBX 7 7 0 3
BITMAP
7C
C6
C6
FE
C0
C6
7C
ENDCHAR
STARTCHAR 0066
ENCODING 102
SWIDTH 504 0
DWIDTH 7 0
BBX 7 10 0 0
BITMAP
1C
36
30
30
FC
30
30
30
30
30
ENDCHAR
STARTCHAR 0067
ENCODING 103
SWIDTH 504 0
DWIDTH 7 0
BBX 7 9 0 3
BITMAP
7A
CC
CC
CC
78
60
DC
C6
7C
ENDCHAR
STARTCHAR 0068
ENCODING 104
SWIDTH 504 0
DWIDTH 7 0
BBX 7 10 0 0
BITMAP
C0
C0
C0
DC
E6
C6
C6
C6
C6
C6
ENDCHAR
STARTCHAR 0069
ENCODING 105
SWIDTH 504 0
DWIDTH 7 0
BBX 3 10 2 0
BITMAP
60
60
00
E0
60
60
60
60
60
60
ENDCHAR
STARTCHAR 006A
ENCODING 106
SWIDTH 504 0
DWIDTH 7 0
BBX 5 12 1 0
BITMAP
18
18
00
38
18
18
18
18
18
18
30
E0
ENDCHAR
STARTCHAR 006B
ENCODING 107
SWIDTH 504 0
DWIDTH 7 0
BBX 7 10 0 0
BITMAP
C0
C0
C0
CC
D8
D0
F0
D8
CC
C6
ENDCHAR
STARTCHAR 006C
ENCODING 108
SWIDTH 504 0
DWIDTH 7 0
BBX 3 10 2 0
BITMAP
E0
60
60
60
60
60
60
60
60
60
ENDCHAR
STARTCHAR 006D
ENCODING 109
SWIDTH 504 0
DWIDTH 7 0
BBX 6 7 1 3
BITMAP
E8
D4
D4
D4
D4
D4
CC
ENDCHAR
STARTCHAR 006E
ENCODING 110
SWIDTH 504 0
DWIDTH 7 0
BBX 7 7 0 3
BITMAP
DC
E6
C6
C6
C6
C6
C6
ENDCHAR
STARTCHAR 006F
ENCODING 111
SWIDTH 504 0
DWIDTH 7 0
BBX 7 7 0 3
BITMAP
7C
C6
C6
C6
C6
C6
7C
ENDCHAR
STARTCHAR 0070
ENCODING 112
SWIDTH 504 0
DWIDTH 7 0
BBX 7 9 0 3
BITMAP
DC
E6
C6
C6
C6
E6
DC
C0
C0
ENDCHAR
STARTCHAR 0071
ENCODING 113
SWIDTH 504 0
DWIDTH 7 0
BBX 7 9 0 3
BITMAP
7A
CE
C6
C6
C6
CE
7A
06
06
ENDCHAR
STARTCHAR 0072
ENCODING 114
SWIDTH 504 0
DWIDTH 7 0
BBX 7 7 0 3
BITMAP
DC
E6
C6
C0
C0
C0
C0
ENDCHAR
STARTCHAR 0073
ENCODING 115
SWIDTH 504 0
DWIDTH 7 0
BBX 7 7 0 3
BITMAP
7C
C6
60
38
0C
C6
7C
ENDCHAR
STARTCHAR 0074
ENCODING 116
SWIDTH 504 0
DWIDTH 7 0
BBX 7 10 0 0
BITMAP
30
30
30
FC
30
30
30
30
36
1C
ENDCHAR
STARTCHAR 0075
ENCODING 117
SWIDTH 504 0
DWIDTH 7 0
BBX 7 7 0 3
BITMAP
C6
C6
C6
C6
C6
CE
7A
ENDCHAR
STARTCHAR 0076
ENCODING 118
SWIDTH 504 0
DWIDTH 7 0
BBX 6 7 1 3
BITMAP
CC
CC
CC
68
68
30
30
ENDCHAR
STARTCHAR 0077
ENCODING 119
SWIDTH 504 0
DWIDTH 7 0
BBX 6 7 1 3
BITMAP
CC
CC
D4
D4
D4
68
68
ENDCHAR
STARTCHAR 0078
ENCODING 120
SWIDTH 504 0
DWIDTH 7 0
BBX 7 7 0 3
BITMAP
C6
6C
6C
38
6C
6C
C6
ENDCHAR
STARTCHAR 0079
ENCODING 121
SWIDTH 504 0
DWIDTH 7 0
BBX 7 9 0 3
BITMAP
C6
C6
6C
6C
38
18
30
30
E0
ENDCHAR
STARTCHAR 007A
ENCODING 122
SWIDTH 504 0
DWIDTH 7 0
BBX 7 7 0 3
BITMAP
FE
0C
18
30
30
60
FE
ENDCHAR
STARTCHAR 007B
ENCODING 123
SWIDTH 504 0
DWIDTH 7 0
BBX 5 13 2 -1
BITMAP
38
60
60
60
60
60
C0
60
60
60
60
60
38
ENDCHAR
STARTCHAR 007C
ENCODING 124
SWIDTH 504 0
DWIDTH 7 0
BBX 2 13 3 -1
BITMAP
C0
C0
C0
C0
C0
C0
C0
C0
C0
C0
C0
C0
C0
ENDCHAR
STARTCHAR 007D
ENCODING 125
SWIDTH 504 0
DWIDTH 7 0
BBX 5 13 1 -1
BITMAP
E0
30
30
30
30
30
18
30
30
30
30
30
E0
ENDCHAR
STARTCHAR 007E
ENCODING 126
SWIDTH 504 0
DWIDTH 7 0
BBX 7 1 0 -2
BITMAP
FE
ENDCHAR
STARTCHAR 00A0
ENCODING 160
SWIDTH 1008 0
DWIDTH 14 0
BBX 13 1 0 -2
BITMAP
AAA8
ENDCHAR
STARTCHAR 00A1
ENCODING 161
SWIDTH 1008 0
DWIDTH 14 0
BBX 4 14 5 -2
BITMAP
60
F0
60
00
60
60
60
F0
F0
F0
F0
F0
F0
60
ENDCHAR
STARTCHAR 00A2
ENCODING 162
SWIDTH 504 0
DWIDTH 7 0
BBX 7 9 0 -1
BITMAP
30
7C
D6
D0
D0
D0
D6
7C
30
ENDCHAR
STARTCHAR 00A3
ENCODING 163
SWIDTH 504 0
DWIDTH 7 0
BBX 6 9 1 0
BITMAP
38
6C
60
60
F8
60
60
F8
6C
ENDCHAR
STARTCHAR 00A4
ENCODING 164
SWIDTH 1008 0
DWIDTH 14 0
BBX 13 12 0 -1
BITMAP
C018
6730
3DE0
3060
3060
6030
6030
3060
3060
3DE0
6730
C018
ENDCHAR
STARTCHAR 00A5
ENCODING 165
SWIDTH 504 0
DWIDTH 7 0
BBX 7 13 0 -2
BITMAP
C0
C0
60
60
30
30
30
18
18
0C
0C
06
06
ENDCHAR
STARTCHAR 00A6
ENCODING 166
SWIDTH 1008 0
DWIDTH 14 0
BBX 2 11 6 0
BITMAP
C0
C0
C0
C0
C0
00
C0
C0
C0
C0
C0
ENDCHAR
STARTCHAR 00A7
ENCODING 167
SWIDTH 1008 0
DWIDTH 14 0
BBX 6 14 4 -2
BITMAP
78
CC
CC
E0
70
78
DC
EC
78
38
1C
CC
CC
78
ENDCHAR
STARTCHAR 00A8
ENCODING 168
SWIDTH 1008 0
DWIDTH 14 0
BBX 8 2 3 10
BITMAP
E7
E7
ENDCHAR
STARTCHAR 00A9
ENCODING 169
SWIDTH 1008 0
DWIDTH 14 0
BBX 14 14 0 -2
BITMAP
0F80
38E0
6030
CFA8
DCE8
B86C
B86C
B80C
B86C
DCD8
CF98
6030
38E0
0F80
ENDCHAR
STARTCHAR 00AA
ENCODING 170
SWIDTH 1008 0
DWIDTH 14 0
BBX 7 7 3 5
BITMAP
78
6C
0E
7E
CE
CE
7E
ENDCHAR
STARTCHAR 00AB
ENCODING 171
SWIDTH 1008 0
DWIDTH 14 0
BBX 7 5 6 0
BITMAP
36
6C
EC
6C
36
ENDCHAR
STARTCHAR 00AC
ENCODING 172
SWIDTH 504 0
DWIDTH 7 0
BBX 6 4 1 0
BITMAP
FC
0C
0C
0C
ENDCHAR
STARTCHAR 00AD
ENCODING 173
SWIDTH 1008 0
DWIDTH 14 0
BBX 13 8 0 -2
BITMAP
1FE0
0000
0000
0000
0000
0000
0000
AAA8
ENDCHAR
STARTCHAR 00AE
ENCODING 174
SWIDTH 1008 0
DWIDTH 14 0
BBX 14 14 0 -2
BITMAP
0F80
38E0
6030
DF98
DCD8
9CCC
9F8C
9D8C
9D8C
DCD8
DEE8
6030
38E0
0F80
ENDCHAR
STARTCHAR 00AF
ENCODING 175
SWIDTH 1008 0
DWIDTH 14 0
BBX 11 1 1 11
BITMAP
FFE0
ENDCHAR
STARTCHAR 00B0
ENCODING 176
SWIDTH 1008 0
DWIDTH 14 0
BBX 5 4 1 7
BITMAP
70
D8
D8
70
ENDCHAR
STARTCHAR 00B1
ENCODING 177
SWIDTH 1008 0
DWIDTH 14 0
BBX 12 11 1 0
BITMAP
0600
0600
0600
0600
FFF0
0600
0600
0600
0600
0000
FFF0
ENDCHAR
STARTCHAR 00B2
ENCODING 178
SWIDTH 1008 0
DWIDTH 14 0
BBX 7 7 3 5
BITMAP
7C
CE
0E
7C
E0
E0
FE
ENDCHAR
STARTCHAR 00B3
ENCODING 179
SWIDTH 1008 0
DWIDTH 14 0
BBX 7 7 3 5
BITMAP
7C
CE
0E
7C
0E
CE
7C
ENDCHAR
STARTCHAR 00B4
ENCODING 180
SWIDTH 1008 0
DWIDTH 14 0
BBX 5 3 4 9
BITMAP
38
70
C0
ENDCHAR
STARTCHAR 00B5
ENCODING 181
SWIDTH 504 0
DWIDTH 7 0
BBX 7 8 0 -2
BITMAP
66
66
66
66
76
6A
60
C0
ENDCHAR
STARTCHAR 00B6
ENCODING 182
SWIDTH 1008 0
DWIDTH 14 0
BBX 6 12 4 -1
BITMAP
7C
F4
F4
F4
74
34
34
34
34
34
34
34
ENDCHAR
STARTCHAR 00B7
ENCODING 183
SWIDTH 1008 0
DWIDTH 14 0
BBX 3 2 5 4
BITMAP
E0
E0
ENDCHAR
STARTCHAR 00B8
ENCODING 184
SWIDTH 1008 0
DWIDTH 14 0
BBX 5 5 5 7
BITMAP
60
70
18
D8
70
ENDCHAR
STARTCHAR 00B9
ENCODING 185
SWIDTH 1008 0
DWIDTH 14 0
BBX 7 7 3 -2
BITMAP
18
38
F8
38
38
38
FE
ENDCHAR
STARTCHAR 00BA
ENCODING 186
SWIDTH 1008 0
DWIDTH 14 0
BBX 8 7 2 -2
BITMAP
3C
76
E7
E7
E7
66
3C
ENDCHAR
STARTCHAR 00BB
ENCODING 187
SWIDTH 1008 0
DWIDTH 14 0
BBX 7 5 6 5
BITMAP
D8
6C
76
6C
D8
ENDCHAR
STARTCHAR 00BC
ENCODING 188
SWIDTH 1008 0
DWIDTH 14 0
BBX 13 14 0 -2
BITMAP
1800
3818
7830
1860
18C0
1980
1B30
7E70
0CD0
19B0
3330
63F8
C030
0030
ENDCHAR
STARTCHAR 00BD
ENCODING 189
SWIDTH 1008 0
DWIDTH 14 0
BBX 13 14 0 -2
BITMAP
1800
3818
7830
1860
18C0
1980
1BF0
7E98
0D98
1870
30C0
6180
C300
03F8
ENDCHAR
STARTCHAR 00BE
ENCODING 190
SWIDTH 1008 0
DWIDTH 14 0
BBX 13 14 0 -2
BITMAP
3C00
6618
0630
1C60
06C0
6680
6D30
3A70
0CD0
19B0
3330
63F8
C030
0030
ENDCHAR
STARTCHAR 00BF
ENCODING 191
SWIDTH 1008 0
DWIDTH 14 0
BBX 8 13 2 -2
BITMAP
38
38
00
18
18
18
0C
0E
E7
E7
C7
6E
3C
ENDCHAR
STARTCHAR 00C0
ENCODING 192
SWIDTH 1008 0
DWIDTH 14 0
BBX 13 12 0 -2
BITMAP
0380
0180
00C0
0780
0780
0DC0
0CC0
18E0
1FE0
3070
3070
F8F8
ENDCHAR
STARTCHAR 00C1
ENCODING 193
SWIDTH 1008 0
DWIDTH 14 0
BBX 13 12 0 -2
BITMAP
0700
0600
0C00
0780
0780
0DC0
0DC0
18E0
1FE0
3070
3070
F8F8
ENDCHAR
STARTCHAR 00C2
ENCODING 194
SWIDTH 1008 0
DWIDTH 14 0
BBX 13 12 0 -2
BITMAP
0300
0680
0CC0
0780
0780
0DC0
0DC0
18E0
1FE0
3070
3070
F8F8
ENDCHAR
STARTCHAR 00C3
ENCODING 195
SWIDTH 1008 0
DWIDTH 14 0
BBX 13 12 0 -2
BITMAP
0760
0DC0
0000
0780
0780
0DC0
0DC0
18E0
1FE0
3070
3070
F8F8
ENDCHAR
STARTCHAR 00C4
ENCODING 196
SWIDTH 1008 0
DWIDTH 14 0
BBX 13 12 0 -2
BITMAP
1DC0
1DC0
0000
0780
0780
0DC0
0DC0
18E0
1FE0
3070
3070
F8F8
ENDCHAR
STARTCHAR 00C5
ENCODING 197
SWIDTH 1008 0
DWIDTH 14 0
BBX 13 12 0 -2
BITMAP
0380
06C0
06C0
0780
0780
0DC0
0DC0
18E0
1FE0
3070
3070
F8F8
ENDCHAR
STARTCHAR 00C6
ENCODING 198
SWIDTH 1008 0
DWIDTH 14 0
BBX 14 11 0 -1
BITMAP
0FF8
0798
078C
0D80
1BB0
1BF0
33B0
7F80
638C
C398
E7F8
ENDCHAR
STARTCHAR 00C7
ENCODING 199
SWIDTH 1008 0
DWIDTH 14 0
BBX 11 13 1 -1
BITMAP
0FA0
38E0
7060
E060
E000
E000
E000
E000
7060
38E0
0F80
0700
1E00
ENDCHAR
STARTCHAR 00C8
ENCODING 200
SWIDTH 1008 0
DWIDTH 14 0
BBX 12 12 1 -2
BITMAP
0E00
0600
0300
FFC0
38C0
3860
3980
3F80
3980
3830
3860
FFE0
ENDCHAR
STARTCHAR 00C9
ENCODING 201
SWIDTH 1008 0
DWIDTH 14 0
BBX 12 12 1 -2
BITMAP
0700
0600
0C00
FFC0
38C0
3860
3980
3F80
3980
3830
3860
FFE0
ENDCHAR
STARTCHAR 00CA
ENCODING 202
SWIDTH 1008 0
DWIDTH 14 0
BBX 12 12 1 -2
BITMAP
0600
0D00
1980
FFC0
38C0
3860
3980
3F80
3980
3830
3860
FFE0
ENDCHAR
STARTCHAR 00CB
ENCODING 203
SWIDTH 1008 0
DWIDTH 14 0
BBX 12 12 1 -2
BITMAP
3B80
3B80
0000
FFC0
38C0
3860
3980
3F80
3980
3830
3860
FFE0
ENDCHAR
STARTCHAR 00CC
ENCODING 204
SWIDTH 1008 0
DWIDTH 14 0
BBX 7 12 3 -2
BITMAP
38
18
0C
FE
38
38
38
38
38
38
38
FE
ENDCHAR
STARTCHAR 00CD
ENCODING 205
SWIDTH 1008 0
DWIDTH 14 0
BBX 7 12 3 -2
BITMAP
1C
18
30
FE
38
38
38
38
38
38
38
FE
ENDCHAR
STARTCHAR 00CE
ENCODING 206
SWIDTH 1008 0
DWIDTH 14 0
BBX 7 12 3 -2
BITMAP
30
68
CC
FE
38
38
38
38
38
38
38
FE
ENDCHAR
STARTCHAR 00CF
ENCODING 207
SWIDTH 1008 0
DWIDTH 14 0
BBX 7 12 3 -2
BITMAP
EE
EE
00
FE
38
38
38
38
38
38
38
FE
ENDCHAR
STARTCHAR 00D0
ENCODING 208
SWIDTH 1008 0
DWIDTH 14 0
BBX 13 11 0 -1
BITMAP
7F80
1CE0
1C70
1C38
1C38
FFB8
1C38
1C38
1C70
1CE0
7F80
ENDCHAR
STARTCHAR 00D1
ENCODING 209
SWIDTH 1008 0
DWIDTH 14 0
BBX 11 12 1 -2
BITMAP
1D80
3700
F1E0
78C0
6CC0
6CC0
6EC0
6740
6740
63C0
61C0
F1C0
ENDCHAR
STARTCHAR 00D2
ENCODING 210
SWIDTH 1008 0
DWIDTH 14 0
BBX 12 12 1 -2
BITMAP
0E00
0600
0300
0F00
39C0
70E0
E070
E070
E070
70E0
39C0
0F00
ENDCHAR
STARTCHAR 00D3
ENCODING 211
SWIDTH 1008 0
DWIDTH 14 0
BBX 12 12 1 -2
BITMAP
0700
0600
0C00
0F00
39C0
70E0
E070
E070
E070
70E0
39C0
0F00
ENDCHAR
STARTCHAR 00D4
ENCODING 212
SWIDTH 1008 0
DWIDTH 14 0
BBX 12 12 1 -2
BITMAP
0600
0D00
1980
0F00
39C0
70E0
E070
E070
E070
70E0
39C0
0F00
ENDCHAR
STARTCHAR 00D5
ENCODING 213
SWIDTH 1008 0
DWIDTH 14 0
BBX 12 12 1 -2
BITMAP
1D80
3700
0000
0F00
39C0
70E0
E070
E070
E070
70E0
39C0
0F00
ENDCHAR
STARTCHAR 00D6
ENCODING 214
SWIDTH 1008 0
DWIDTH 14 0
BBX 12 12 1 -2
BITMAP
3B80
3B80
0000
0F00
39C0
70E0
E070
E070
E070
70E0
39C0
0F00
ENDCHAR
STARTCHAR 00D7
ENCODING 215
SWIDTH 1008 0
DWIDTH 14 0
BBX 12 11 1 -1
BITMAP
C030
6060
30C0
1980
0D00
0600
0D00
1980
30C0
6060
C030
ENDCHAR
STARTCHAR 00D8
ENCODING 216
SWIDTH 1008 0
DWIDTH 14 0
BBX 12 11 1 -1
BITMAP
0F30
39E0
70E0
E1B0
E370
E670
EC70
E870
70E0
79C0
CF00
ENDCHAR
STARTCHAR 00D9
ENCODING 217
SWIDTH 1008 0
DWIDTH 14 0
BBX 12 12 1 -2
BITMAP
0E00
0600
0300
F8F0
7060
7060
7060
7060
7060
7060
38C0
0F80
ENDCHAR
STARTCHAR 00DA
ENCODING 218
SWIDTH 1008 0
DWIDTH 14 0
BBX 12 12 1 -2
BITMAP
0700
0600
0C00
F8F0
7060
7060
7060
7060
7060
7060
38C0
0F80
ENDCHAR
STARTCHAR 00DB
ENCODING 219
SWIDTH 1008 0
DWIDTH 14 0
BBX 12 12 1 -2
BITMAP
0600
0D00
1980
F8F0
7060
7060
7060
7060
7060
7060
38C0
0F80
ENDCHAR
STARTCHAR 00DC
ENCODING 220
SWIDTH 1008 0
DWIDTH 14 0
BBX 12 12 1 -2
BITMAP
3B80
3B80
0000
F8F0
7060
7060
7060
7060
7060
7060
38C0
0F80
ENDCHAR
STARTCHAR 00DD
ENCODING 221
SWIDTH 1008 0
DWIDTH 14 0
BBX 12 12 1 -2
BITMAP
0700
0600
FDF0
70C0
3980
1D00
0E00
0E00
0E00
0E00
0E00
3F80
ENDCHAR
STARTCHAR 00DE
ENCODING 222
SWIDTH 1008 0
DWIDTH 14 0
BBX 11 11 1 -1
BITMAP
FE00
3800
3F00
39C0
38E0
38E0
39C0
3F00
3800
3800
FE00
ENDCHAR
STARTCHAR 00DF
ENCODING 223
SWIDTH 1008 0
DWIDTH 14 0
BBX 9 11 2 -1
BITMAP
1E00
3300
7380
7300
7600
7380
7380
7380
7380
7500
F600
ENDCHAR
STARTCHAR 00E0
ENCODING 224
SWIDTH 1008 0
DWIDTH 14 0
BBX 10 12 2 -2
BITMAP
1C00
0C00
0600
0000
3E00
7300
7380
1F80
7380
E380
E780
7DC0
ENDCHAR
STARTCHAR 00E1
ENCODING 225
SWIDTH 1008 0
DWIDTH 14 0
BBX 10 12 2 -2
BITMAP
0E00
0C00
1800
0000
3E00
7300
7380
1F80
7380
E380
E780
7DC0
ENDCHAR
STARTCHAR 00E2
ENCODING 226
SWIDTH 1008 0
DWIDTH 14 0
BBX 10 12 2 -2
BITMAP
0C00
1A00
3300
0000
3E00
7300
7380
1F80
7380
E380
E780
7DC0
ENDCHAR
STARTCHAR 00E3
ENCODING 227
SWIDTH 1008 0
DWIDTH 14 0
BBX 10 11 2 -1
BITMAP
3B00
6E00
0000
3E00
7300
7380
1F80
7380
E380
E780
7DC0
ENDCHAR
STARTCHAR 00E4
ENCODING 228
SWIDTH 1008 0
DWIDTH 14 0
BBX 10 11 2 -1
BITMAP
7700
7700
0000
3E00
7300
7380
1F80
7380
E380
E780
7DC0
ENDCHAR
STARTCHAR 00E5
ENCODING 229
SWIDTH 1008 0
DWIDTH 14 0
BBX 10 12 2 -2
BITMAP
1C00
3600
3600
1C00
3E00
7300
7380
1F80
7380
E380
E780
7DC0
ENDCHAR
STARTCHAR 00E6
ENCODING 230
SWIDTH 1008 0
DWIDTH 14 0
BBX 13 8 0 2
BITMAP
3CE0
77B0
6738
3FF8
6700
E718
EF98
7B70
ENDCHAR
STARTCHAR 00E7
ENCODING 231
SWIDTH 1008 0
DWIDTH 14 0
BBX 9 10 2 2
BITMAP
1E00
7380
E180
E000
E000
E180
7380
1E00
1C00
7800
ENDCHAR
STARTCHAR 00E8
ENCODING 232
SWIDTH 1008 0
DWIDTH 14 0
BBX 10 12 2 -2
BITMAP
1C00
0C00
0600
0000
3F00
6180
E1C0
FFC0
E000
E0C0
71C0
1F00
ENDCHAR
STARTCHAR 00E9
ENCODING 233
SWIDTH 1008 0
DWIDTH 14 0
BBX 10 12 2 -2
BITMAP
0E00
0C00
1800
0000
3F00
6180
E1C0
FFC0
E000
E0C0
71C0
1F00
ENDCHAR
STARTCHAR 00EA
ENCODING 234
SWIDTH 1008 0
DWIDTH 14 0
BBX 10 12 2 -2
BITMAP
0C00
1A00
3300
0000
3F00
6180
E1C0
FFC0
E000
E0C0
71C0
1F00
ENDCHAR
STARTCHAR 00EB
ENCODING 235
SWIDTH 1008 0
DWIDTH 14 0
BBX 10 11 2 -1
BITMAP
7700
7700
0000
3F00
6180
E1C0
FFC0
E000
E0C0
71C0
1F00
ENDCHAR
STARTCHAR 00EC
ENCODING 236
SWIDTH 1008 0
DWIDTH 14 0
BBX 7 11 3 -1
BITMAP
38
18
0C
00
F8
38
38
38
38
38
FE
ENDCHAR
STARTCHAR 00ED
ENCODING 237
SWIDTH 1008 0
DWIDTH 14 0
BBX 7 11 3 -1
BITMAP
1C
18
30
00
F8
38
38
38
38
38
FE
ENDCHAR
STARTCHAR 00EE
ENCODING 238
SWIDTH 1008 0
DWIDTH 14 0
BBX 7 11 3 -1
BITMAP
18
34
66
00
F8
38
38
38
38
38
FE
ENDCHAR
STARTCHAR 00EF
ENCODING 239
SWIDTH 1008 0
DWIDTH 14 0
BBX 7 11 3 -1
BITMAP
EE
EE
00
00
F8
38
38
38
38
38
FE
ENDCHAR
STARTCHAR 00F0
ENCODING 240
SWIDTH 1008 0
DWIDTH 14 0
BBX 9 12 2 -1
BITMAP
3D80
6700
1D00
3380
0380
3D80
6780
E380
E380
E380
6700
3E00
ENDCHAR
STARTCHAR 00F1
ENCODING 241
SWIDTH 1008 0
DWIDTH 14 0
BBX 11 11 2 -1
BITMAP
3B00
6E00
0000
F700
7980
71C0
71C0
71C0
71C0
71C0
FBE0
ENDCHAR
STARTCHAR 00F2
ENCODING 242
SWIDTH 1008 0
DWIDTH 14 0
BBX 10 12 2 -2
BITMAP
1C00
0C00
0600
0000
1E00
7380
E1C0
E1C0
E1C0
E1C0
7380
1E00
ENDCHAR
STARTCHAR 00F3
ENCODING 243
SWIDTH 1008 0
DWIDTH 14 0
BBX 10 12 2 -2
BITMAP
0E00
0C00
1800
0000
1E00
7380
E1C0
E1C0
E1C0
E1C0
7380
1E00
ENDCHAR
STARTCHAR 00F4
ENCODING 244
SWIDTH 1008 0
DWIDTH 14 0
BBX 10 12 2 -2
BITMAP
0C00
1A00
3300
0000
1E00
7380
E1C0
E1C0
E1C0
E1C0
7380
1E00
ENDCHAR
STARTCHAR 00F5
ENCODING 245
SWIDTH 1008 0
DWIDTH 14 0
BBX 10 11 2 -1
BITMAP
3B00
6E00
0000
1E00
7380
E1C0
E1C0
E1C0
E1C0
7380
1E00
ENDCHAR
STARTCHAR 00F6
ENCODING 246
SWIDTH 1008 0
DWIDTH 14 0
BBX 10 11 2 -1
BITMAP
7700
7700
0000
1E00
7380
E1C0
E1C0
E1C0
E1C0
7380
1E00
ENDCHAR
STARTCHAR 00F7
ENCODING 247
SWIDTH 1008 0
DWIDTH 14 0
BBX 12 11 1 -1
BITMAP
0600
0F00
0600
0000
0000
FFF0
0000
0000
0600
0F00
0600
ENDCHAR
STARTCHAR 00F8
ENCODING 248
SWIDTH 1008 0
DWIDTH 14 0
BBX 10 8 2 2
BITMAP
1E80
7380
E6C0
EDC0
EDC0
E9C0
7380
6E00
ENDCHAR
STARTCHAR 00F9
ENCODING 249
SWIDTH 1008 0
DWIDTH 14 0
BBX 11 12 2 -2
BITMAP
1C00
0C00
0600
0000
F7C0
71C0
71C0
71C0
71C0
71C0
73C0
3EE0
ENDCHAR
STARTCHAR 00FA
ENCODING 250
SWIDTH 1008 0
DWIDTH 14 0
BBX 11 12 2 -2
BITMAP
0E00
0C00
1800
0000
F7C0
71C0
71C0
71C0
71C0
71C0
73C0
3EE0
ENDCHAR
STARTCHAR 00FB
ENCODING 251
SWIDTH 1008 0
DWIDTH 14 0
BBX 11 12 2 -2
BITMAP
0C00
1A00
3300
0000
F7C0
71C0
71C0
71C0
71C0
71C0
73C0
3EE0
ENDCHAR
STARTCHAR 00FC
ENCODING 252
SWIDTH 1008 0
DWIDTH 14 0
BBX 11 11 2 -1
BITMAP
7700
7700
0000
F7C0
71C0
71C0
71C0
71C0
71C0
73C0
3EE0
ENDCHAR
STARTCHAR 00FD
ENCODING 253
SWIDTH 1008 0
DWIDTH 14 0
BBX 10 14 2 -2
BITMAP
0E00
0C00
1800
0000
FDC0
7180
3980
3B00
1D00
1E00
0E00
EC00
EC00
7800
ENDCHAR
STARTCHAR 00FE
ENCODING 254
SWIDTH 1008 0
DWIDTH 14 0
BBX 10 14 2 -2
BITMAP
F000
7000
7000
7000
7700
7B80
71C0
71C0
71C0
71C0
7B80
7700
7000
F800
ENDCHAR
STARTCHAR 00FF
ENCODING 255
SWIDTH 1008 0
DWIDTH 14 0
BBX 10 13 2 -1
BITMAP
7700
7700
0000
FDC0
7180
3980
3B00
1D00
1E00
0E00
EC00
EC00
7800
ENDCHAR
STARTCHAR 0100
ENCODING 256
SWIDTH 1008 0
DWIDTH 14 0
BBX 13 12 0 -2
BITMAP
1FC0
0000
0300
0780
0780
0DC0
0DC0
18E0
1FE0
3070
3070
F8F8
ENDCHAR
STARTCHAR 0101
ENCODING 257
SWIDTH 1008 0
DWIDTH 14 0
BBX 10 10 2 0
BITMAP
7F00
0000
3E00
7300
7380
1F80
7380
E380
E780
7DC0
ENDCHAR
STARTCHAR 0102
ENCODING 258
SWIDTH 1008 0
DWIDTH 14 0
BBX 13 12 0 -2
BITMAP
0CC0
0780
0000
0780
0780
0DC0
0DC0
18E0
1FE0
3070
3070
F8F8
ENDCHAR
STARTCHAR 0103
ENCODING 259
SWIDTH 1008 0
DWIDTH 14 0
BBX 10 11 2 -1
BITMAP
3300
1E00
0000
3E00
7300
7380
1F80
7380
E380
E780
7DC0
ENDCHAR
STARTCHAR 0104
ENCODING 260
SWIDTH 1008 0
DWIDTH 14 0
BBX 13 13 0 -1
BITMAP
0300
0300
0780
0780
0DC0
0DC0
18E0
1FE0
3070
3070
F8F8
0060
0038
ENDCHAR
STARTCHAR 0105
ENCODING 261
SWIDTH 1008 0
DWIDTH 14 0
BBX 12 10 2 2
BITMAP
3E00
7300
7380
1F80
7380
E380
E780
7DC0
00C0
0070
ENDCHAR
STARTCHAR 0106
ENCODING 262
SWIDTH 1008 0
DWIDTH 14 0
BBX 11 12 1 -2
BITMAP
0700
0600
0C00
0FA0
38E0
7060
E060
E000
E000
7060
38E0
0F80
ENDCHAR
STARTCHAR 0107
ENCODING 263
SWIDTH 1008 0
DWIDTH 14 0
BBX 9 12 2 -2
BITMAP
0E00
0C00
1800
0000
1E00
7380
E180
E000
E000
E180
7380
1E00
ENDCHAR
STARTCHAR 0108
ENCODING 264
SWIDTH 1008 0
DWIDTH 14 0
BBX 11 12 1 -2
BITMAP
0600
0D00
1980
0FA0
38E0
7060
E060
E000
E000
7060
38E0
0F80
ENDCHAR
STARTCHAR 0109
ENCODING 265
SWIDTH 1008 0
DWIDTH 14 0
BBX 9 12 2 -2
BITMAP
0C00
1A00
3300
0000
1E00
7380
E180
E000
E000
E180
7380
1E00
ENDCHAR
STARTCHAR 010C
ENCODING 268
SWIDTH 1008 0
DWIDTH 14 0
BBX 11 12 1 -2
BITMAP
1980
0D00
0600
0FA0
38E0
7060
E060
E000
E000
7060
38E0
0F80
ENDCHAR
STARTCHAR 010D
ENCODING 269
SWIDTH 1008 0
DWIDTH 14 0
BBX 9 12 2 -2
BITMAP
3300
1A00
0C00
0000
1E00
7380
E180
E000
E000
E180
7380
1E00
ENDCHAR
STARTCHAR 010E
ENCODING 270
SWIDTH 1008 0
DWIDTH 14 0
BBX 12 12 1 -2
BITMAP
1980
0D00
0600
FF00
39C0
38E0
3870
3870
3870
38E0
39C0
FF00
ENDCHAR
STARTCHAR 010F
ENCODING 271
SWIDTH 1008 0
DWIDTH 14 0
BBX 10 12 2 -2
BITMAP
3300
1A00
0F80
0380
0380
3D80
7780
E380
E380
E380
7780
1DC0
ENDCHAR
STARTCHAR 0111
ENCODING 273
SWIDTH 1008 0
DWIDTH 14 0
BBX 10 11 2 -1
BITMAP
0780
0380
3FC0
0380
1D80
7780
E380
E380
E380
7780
1DC0
ENDCHAR
STARTCHAR 0112
ENCODING 274
SWIDTH 1008 0
DWIDTH 14 0
BBX 12 12 1 -2
BITMAP
3F80
0000
FFC0
38C0
3860
3980
3F80
3980
3800
3830
3860
FFE0
ENDCHAR
STARTCHAR 0113
ENCODING 275
SWIDTH 1008 0
DWIDTH 14 0
BBX 10 10 2 0
BITMAP
7F00
0000
3F00
6180
E1C0
FFC0
E000
E0C0
71C0
1F00
ENDCHAR
STARTCHAR 0118
ENCODING 280
SWIDTH 1008 0
DWIDTH 14 0
BBX 12 13 1 -1
BITMAP
FFC0
38C0
3860
3800
3980
3F80
3980
3800
3830
3860
FFE0
00C0
0070
ENDCHAR
STARTCHAR 0119
ENCODING 281
SWIDTH 1008 0
DWIDTH 14 0
BBX 10 10 2 2
BITMAP
3F00
6180
E1C0
FFC0
E000
E0C0
71C0
1F00
0300
01C0
ENDCHAR
STARTCHAR 011A
ENCODING 282
SWIDTH 1008 0
DWIDTH 14 0
BBX 12 12 1 -2
BITMAP
1980
0D00
0600
FFC0
38C0
3860
3980
3F80
3980
3830
3860
FFE0
ENDCHAR
STARTCHAR 011B
ENCODING 283
SWIDTH 1008 0
DWIDTH 14 0
BBX 10 12 2 -2
BITMAP
3300
1A00
0C00
0000
3F00
6180
E1C0
FFC0
E000
E0C0
71C0
1F00
ENDCHAR
STARTCHAR 011C
ENCODING 284
SWIDTH 1008 0
DWIDTH 14 0
BBX 12 12 1 -2
BITMAP
0600
0D00
1980
0FA0
38E0
7060
E000
E3F0
E0E0
70E0
39C0
0F00
ENDCHAR
STARTCHAR 011D
ENCODING 285
SWIDTH 1008 0
DWIDTH 14 0
BBX 9 14 2 -2
BITMAP
0C00
1A00
3300
0000
3F80
7700
6700
6600
3C00
7000
7F00
E780
6180
3F00
ENDCHAR
STARTCHAR 0124
ENCODING 292
SWIDTH 1008 0
DWIDTH 14 0
BBX 12 12 1 -2
BITMAP
0600
0D00
1980
F9F0
70E0
70E0
70E0
7FE0
70E0
70E0
70E0
F9F0
ENDCHAR
STARTCHAR 0125
ENCODING 293
SWIDTH 1008 0
DWIDTH 14 0
BBX 11 12 2 -2
BITMAP
0600
F500
7980
7000
7700
7B80
71C0
71C0
71C0
71C0
71C0
FBE0
ENDCHAR
STARTCHAR 0127
ENCODING 295
SWIDTH 1008 0
DWIDTH 14 0
BBX 11 11 2 -1
BITMAP
F000
7000
FE00
7000
7700
7B80
71C0
71C0
71C0
71C0
FBE0
ENDCHAR
STARTCHAR 012A
ENCODING 298
SWIDTH 1008 0
DWIDTH 14 0
BBX 7 12 3 -2
BITMAP
FE
00
FE
38
38
38
38
38
38
38
38
FE
ENDCHAR
STARTCHAR 012B
ENCODING 299
SWIDTH 1008 0
DWIDTH 14 0
BBX 7 10 3 0
BITMAP
FE
00
00
F8
38
38
38
38
38
FE
ENDCHAR
STARTCHAR 0134
ENCODING 308
SWIDTH 1008 0
DWIDTH 14 0
BBX 12 12 1 -2
BITMAP
0600
0D00
1980
07F0
01C0
01C0
01C0
61C0
F1C0
E1C0
7380
1E00
ENDCHAR
STARTCHAR 0135
ENCODING 309
SWIDTH 1008 0
DWIDTH 14 0
BBX 8 13 2 -1
BITMAP
0C
1A
33
00
7E
0E
0E
0E
0E
0E
EE
EC
78
ENDCHAR
STARTCHAR 0139
ENCODING 313
SWIDTH 1008 0
DWIDTH 14 0
BBX 12 12 1 -2
BITMAP
0380
FD00
3A00
3800
3800
3800
3800
3800
3800
3830
3860
FFE0
ENDCHAR
STARTCHAR 013A
ENCODING 314
SWIDTH 1008 0
DWIDTH 14 0
BBX 7 12 3 -2
BITMAP
1C
18
30
F8
38
38
38
38
38
38
38
FE
ENDCHAR
STARTCHAR 013D
ENCODING 317
SWIDTH 1008 0
DWIDTH 14 0
BBX 12 12 1 -2
BITMAP
0CC0
FA80
3B00
3800
3800
3800
3800
3800
3800
3830
3860
FFE0
ENDCHAR
STARTCHAR 013E
ENCODING 318
SWIDTH 1008 0
DWIDTH 14 0
BBX 7 12 3 -2
BITMAP
66
34
18
F8
38
38
38
38
38
38
38
FE
ENDCHAR
STARTCHAR 0141
ENCODING 321
SWIDTH 1008 0
DWIDTH 14 0
BBX 12 11 1 -1
BITMAP
FE00
3800
3800
3A00
3C00
3800
7800
D800
3830
3860
FFE0
ENDCHAR
STARTCHAR 0142
ENCODING 322
SWIDTH 1008 0
DWIDTH 14 0
BBX 7 11 3 -1
BITMAP
F8
38
3A
3C
38
78
D8
38
38
38
FE
ENDCHAR
STARTCHAR 0143
ENCODING 323
SWIDTH 1008 0
DWIDTH 14 0
BBX 11 12 1 -2
BITMAP
0700
0600
F5E0
78C0
6CC0
6CC0
6EC0
6740
6740
63C0
61C0
F1C0
ENDCHAR
STARTCHAR 0144
ENCODING 324
SWIDTH 1008 0
DWIDTH 14 0
BBX 11 12 2 -2
BITMAP
0E00
0C00
1800
0000
F700
7980
71C0
71C0
71C0
71C0
71C0
FBE0
ENDCHAR
STARTCHAR 0147
ENCODING 327
SWIDTH 1008 0
DWIDTH 14 0
BBX 11 12 1 -2
BITMAP
1D80
3700
0000
F1E0
78C0
7CC0
6EC0
6F40
6740
63C0
61C0
F1C0
ENDCHAR
STARTCHAR 0148
ENCODING 328
SWIDTH 1008 0
DWIDTH 14 0
BBX 11 12 2 -2
BITMAP
3300
1A00
0C00
0000
F700
7980
71C0
71C0
71C0
71C0
71C0
FBE0
ENDCHAR
STARTCHAR 014B
ENCODING 331
SWIDTH 1008 0
DWIDTH 14 0
BBX 10 10 2 2
BITMAP
F700
7980
71C0
71C0
71C0
71C0
71C0
F9C0
0D80
0F00
ENDCHAR
STARTCHAR 014C
ENCODING 332
SWIDTH 1008 0
DWIDTH 14 0
BBX 12 12 1 -2
BITMAP
3F80
0000
0F00
39C0
70E0
E070
E070
E070
E070
70E0
39C0
0F00
ENDCHAR
STARTCHAR 014D
ENCODING 333
SWIDTH 1008 0
DWIDTH 14 0
BBX 10 10 2 0
BITMAP
7F00
0000
1E00
7380
E1C0
E1C0
E1C0
E1C0
7380
1E00
ENDCHAR
STARTCHAR 0150
ENCODING 336
SWIDTH 1008 0
DWIDTH 14 0
BBX 12 12 1 -2
BITMAP
1DC0
1980
3300
0F00
39C0
70E0
E070
E070
E070
70E0
39C0
0F00
ENDCHAR
STARTCHAR 0151
ENCODING 337
SWIDTH 1008 0
DWIDTH 14 0
BBX 10 12 2 -2
BITMAP
1D80
1B00
3600
0000
1E00
7380
E1C0
E1C0
E1C0
E1C0
7380
1E00
ENDCHAR
STARTCHAR 0152
ENCODING 338
SWIDTH 1008 0
DWIDTH 14 0
BBX 14 11 0 -1
BITMAP
3DF8
7798
638C
E380
E3B0
E3F0
E3B0
E380
638C
7798
3DF8
ENDCHAR
STARTCHAR 0153
ENCODING 339
SWIDTH 1008 0
DWIDTH 14 0
BBX 13 8 0 2
BITMAP
3CE0
77B0
E738
E7F8
E700
E718
7798
3DF0
ENDCHAR
STARTCHAR 0154
ENCODING 340
SWIDTH 1008 0
DWIDTH 14 0
BBX 12 12 1 -2
BITMAP
0700
0600
0C00
FF80
39E0
38E0
39C0
3F00
3B80
39C0
39E0
FCF0
ENDCHAR
STARTCHAR 0155
ENCODING 341
SWIDTH 1008 0
DWIDTH 14 0
BBX 9 12 2 -2
BITMAP
0E00
0C00
1800
0000
F700
7B80
7380
7000
7000
7000
7000
F800
ENDCHAR
STARTCHAR 0158
ENCODING 344
SWIDTH 1008 0
DWIDTH 14 0
BBX 12 12 1 -2
BITMAP
1980
0D00
0600
FF80
38E0
38E0
39C0
3F00
3B80
39C0
38E0
FCF0
ENDCHAR
STARTCHAR 0159
ENCODING 345
SWIDTH 1008 0
DWIDTH 14 0
BBX 9 12 2 -2
BITMAP
3300
1A00
0C00
0000
F700
7B80
7380
7000
7000
7000
7000
F800
ENDCHAR
STARTCHAR 015A
ENCODING 346
SWIDTH 1008 0
DWIDTH 14 0
BBX 10 12 2 -2
BITMAP
0E00
0C00
1800
3E80
6380
E180
7C00
3F00
CF80
E1C0
F180
DF00
ENDCHAR
STARTCHAR 015B
ENCODING 347
SWIDTH 1008 0
DWIDTH 14 0
BBX 9 12 2 -2
BITMAP
0E00
0C00
1800
0000
7F00
E300
F000
7C00
1F00
C780
E380
DF00
ENDCHAR
STARTCHAR 015C
ENCODING 348
SWIDTH 1008 0
DWIDTH 14 0
BBX 10 12 2 -2
BITMAP
0C00
1A00
3300
3E80
6380
E180
7C00
3F00
CF80
E1C0
F180
DF00
ENDCHAR
STARTCHAR 015D
ENCODING 349
SWIDTH 1008 0
DWIDTH 14 0
BBX 9 12 2 -2
BITMAP
1800
3400
6600
0000
7F00
E300
F000
7C00
1F00
C780
E380
DF00
ENDCHAR
STARTCHAR 015E
ENCODING 350
SWIDTH 1008 0
DWIDTH 14 0
BBX 10 13 2 -1
BITMAP
3E80
6380
E180
F000
7C00
1F00
0780
C1C0
E1C0
F180
DF00
0C00
3800
ENDCHAR
STARTCHAR 015F
ENCODING 351
SWIDTH 1008 0
DWIDTH 14 0
BBX 9 10 2 2
BITMAP
7F00
E300
F000
7C00
1F00
C780
E380
DF00
0C00
3800
ENDCHAR
STARTCHAR 0160
ENCODING 352
SWIDTH 1008 0
DWIDTH 14 0
BBX 10 12 2 -2
BITMAP
3300
1A00
0C00
3E80
6380
E180
7C00
3F00
CF80
E1C0
F180
DF00
ENDCHAR
STARTCHAR 0161
ENCODING 353
SWIDTH 1008 0
DWIDTH 14 0
BBX 9 12 2 -2
BITMAP
3300
1A00
0C00
0000
7F00
E300
F000
7C00
1F00
C780
E380
DF00
ENDCHAR
STARTCHAR 0162
ENCODING 354
SWIDTH 1008 0
DWIDTH 14 0
BBX 13 13 0 -1
BITMAP
7FF0
6730
C718
0700
0700
0700
0700
0700
0700
0700
1FC0
0600
1C00
ENDCHAR
STARTCHAR 0163
ENCODING 355
SWIDTH 1008 0
DWIDTH 14 0
BBX 9 12 2 0
BITMAP
1800
3800
3800
FF80
3800
3800
3800
3800
3980
1F00
0C00
3800
ENDCHAR
STARTCHAR 0164
ENCODING 356
SWIDTH 1008 0
DWIDTH 14 0
BBX 13 12 0 -2
BITMAP
0CC0
0680
0300
7FF0
6730
C718
0700
0700
0700
0700
0700
1FC0
ENDCHAR
STARTCHAR 0165
ENCODING 357
SWIDTH 1008 0
DWIDTH 14 0
BBX 9 12 2 -2
BITMAP
1980
0D00
1A00
3800
3800
FF80
3800
3800
3800
3800
3980
1F00
ENDCHAR
STARTCHAR 016A
ENCODING 362
SWIDTH 1008 0
DWIDTH 14 0
BBX 12 12 1 -2
BITMAP
3F80
0000
F8F0
7060
7060
7060
7060
7060
7060
7060
38C0
0F80
ENDCHAR
STARTCHAR 016B
ENCODING 363
SWIDTH 1008 0
DWIDTH 14 0
BBX 11 10 2 0
BITMAP
7F00
0000
F7C0
71C0
71C0
71C0
71C0
71C0
73C0
3EE0
ENDCHAR
STARTCHAR 016C
ENCODING 364
SWIDTH 1008 0
DWIDTH 14 0
BBX 12 12 1 -2
BITMAP
1980
0F00
F8F0
7060
7060
7060
7060
7060
7060
7060
38C0
0F80
ENDCHAR
STARTCHAR 016D
ENCODING 365
SWIDTH 1008 0
DWIDTH 14 0
BBX 11 11 2 -1
BITMAP
3300
1E00
0000
F7C0
71C0
71C0
71C0
71C0
71C0
73C0
3EE0
ENDCHAR
STARTCHAR 016E
ENCODING 366
SWIDTH 1008 0
DWIDTH 14 0
BBX 12 12 1 -2
BITMAP
0700
0D80
0D80
FB70
7060
7060
7060
7060
7060
7060
38C0
0F80
ENDCHAR
STARTCHAR 016F
ENCODING 367
SWIDTH 1008 0
DWIDTH 14 0
BBX 11 12 2 -2
BITMAP
1C00
3600
3600
1C00
F7C0
71C0
71C0
71C0
71C0
71C0
73C0
3EE0
ENDCHAR
STARTCHAR 0170
ENCODING 368
SWIDTH 1008 0
DWIDTH 14 0
BBX 12 12 1 -2
BITMAP
0EC0
0D80
1B00
F8F0
7060
7060
7060
7060
7060
7060
38C0
0F80
ENDCHAR
STARTCHAR 0171
ENCODING 369
SWIDTH 1008 0
DWIDTH 14 0
BBX 11 12 2 -2
BITMAP
1D80
1B00
3600
0000
F7C0
71C0
71C0
71C0
71C0
71C0
73C0
3EE0
ENDCHAR
STARTCHAR 0179
ENCODING 377
SWIDTH 1008 0
DWIDTH 14 0
BBX 12 12 1 -2
BITMAP
0700
0600
0C00
7FE0
61C0
C380
0700
0E00
1C00
3830
7060
FFE0
ENDCHAR
STARTCHAR 017A
ENCODING 378
SWIDTH 1008 0
DWIDTH 14 0
BBX 9 12 2 -2
BITMAP
0E00
0C00
1800
0000
FF80
C700
0E00
1C00
3800
7000
E180
FF80
ENDCHAR
STARTCHAR 017B
ENCODING 379
SWIDTH 1008 0
DWIDTH 14 0
BBX 12 12 1 -2
BITMAP
0E00
0E00
0000
7FE0
61C0
C380
0700
0E00
1C00
3830
7060
FFE0
ENDCHAR
STARTCHAR 017C
ENCODING 380
SWIDTH 1008 0
DWIDTH 14 0
BBX 9 11 2 -1
BITMAP
1C00
1C00
0000
FF80
C700
0E00
1C00
3800
7000
E180
FF80
ENDCHAR
STARTCHAR 017D
ENCODING 381
SWIDTH 1008 0
DWIDTH 14 0
BBX 12 12 1 -2
BITMAP
1980
0D00
0600
7FE0
61C0
C380
0700
0E00
1C00
3830
7060
FFE0
ENDCHAR
STARTCHAR 017E
ENCODING 382
SWIDTH 1008 0
DWIDTH 14 0
BBX 9 12 2 -2
BITMAP
3300
1A00
0C00
0000
FF80
C700
0E00
1C00
3800
7000
E180
FF80
ENDCHAR
STARTCHAR 0193
ENCODING 403
SWIDTH 1008 0
DWIDTH 14 0
BBX 12 11 1 -1
BITMAP
0F70
39D0
70C0
E000
E000
E3F0
E0E0
E0E0
70E0
39C0
0F00
ENDCHAR
STARTCHAR 01C2
ENCODING 450
SWIDTH 1008 0
DWIDTH 14 0
BBX 8 11 3 -1
BITMAP
18
18
18
FF
18
18
18
FF
18
18
18
ENDCHAR
STARTCHAR 01CD
ENCODING 461
SWIDTH 1008 0
DWIDTH 14 0
BBX 13 12 0 -2
BITMAP
0CC0
0680
0300
0780
0780
0DC0
0DC0
18E0
1FE0
3070
3070
F8F8
ENDCHAR
STARTCHAR 01CE
ENCODING 462
SWIDTH 1008 0
DWIDTH 14 0
BBX 10 12 2 -2
BITMAP
6600
3400
1800
0000
3E00
7300
7380
1F80
7380
E380
E780
7DC0
ENDCHAR
STARTCHAR 01D0
ENCODING 464
SWIDTH 1008 0
DWIDTH 14 0
BBX 7 11 3 -1
BITMAP
66
34
18
00
F8
38
38
38
38
38
FE
ENDCHAR
STARTCHAR 01D1
ENCODING 465
SWIDTH 1008 0
DWIDTH 14 0
BBX 12 12 1 -2
BITMAP
1980
0D00
0600
0F00
39C0
70E0
E070
E070
E070
70E0
39C0
0F00
ENDCHAR
STARTCHAR 01D2
ENCODING 466
SWIDTH 1008 0
DWIDTH 14 0
BBX 10 11 2 -1
BITMAP
3300
1A00
0C00
1E00
7380
E1C0
E1C0
E1C0
E1C0
7380
1E00
ENDCHAR
STARTCHAR 01D4
ENCODING 468
SWIDTH 1008 0
DWIDTH 14 0
BBX 11 11 2 -1
BITMAP
3300
1A00
0C00
F7C0
71C0
71C0
71C0
71C0
71C0
73C0
3EE0
ENDCHAR
STARTCHAR 01D6
ENCODING 470
SWIDTH 1008 0
DWIDTH 14 0
BBX 11 12 2 -2
BITMAP
7F80
0000
7380
7380
0000
F7C0
71C0
71C0
71C0
71C0
73C0
3EE0
ENDCHAR
STARTCHAR 01D8
ENCODING 472
SWIDTH 1008 0
DWIDTH 14 0
BBX 11 12 2 -2
BITMAP
0E00
0C00
7B80
7380
0000
F7C0
71C0
71C0
71C0
71C0
73C0
3EE0
ENDCHAR
STARTCHAR 01DA
ENCODING 474
SWIDTH 1008 0
DWIDTH 14 0
BBX 11 12 2 -2
BITMAP
3300
1A00
7580
7380
0000
F7C0
71C0
71C0
71C0
71C0
73C0
3EE0
ENDCHAR
STARTCHAR 01DC
ENCODING 476
SWIDTH 1008 0
DWIDTH 14 0
BBX 11 12 2 -2
BITMAP
1C00
0C00
7780
7380
0000
F7C0
71C0
71C0
71C0
71C0
73C0
3EE0
ENDCHAR
STARTCHAR 01F8
ENCODING 504
SWIDTH 1008 0
DWIDTH 14 0
BBX 11 12 1 -2
BITMAP
1C00
F5E0
76C0
78C0
6CC0
6CC0
6EC0
6740
6740
63C0
61C0
F1C0
ENDCHAR
STARTCHAR 01F9
ENCODING 505
SWIDTH 1008 0
DWIDTH 14 0
BBX 11 12 2 -2
BITMAP
1C00
0C00
0600
0000
F700
7980
71C0
71C0
71C0
71C0
71C0
FBE0
ENDCHAR
STARTCHAR 01FD
ENCODING 509
SWIDTH 1008 0
DWIDTH 14 0
BBX 13 12 0 -2
BITMAP
0380
0300
0600
0000
3CE0
77B0
6738
3FF8
6700
E718
EF98
7B70
ENDCHAR
STARTCHAR 0250
ENCODING 592
SWIDTH 1008 0
DWIDTH 14 0
BBX 10 8 1 2
BITMAP
EF80
79C0
71C0
7380
7E00
7380
3380
1F00
ENDCHAR
STARTCHAR 0251
ENCODING 593
SWIDTH 1008 0
DWIDTH 14 0
BBX 10 8 2 2
BITMAP
1D80
7780
E380
E380
E380
E380
7780
1DC0
ENDCHAR
STARTCHAR 0252
ENCODING 594
SWIDTH 1008 0
DWIDTH 14 0
BBX 10 8 1 2
BITMAP
EE00
7B80
71C0
71C0
71C0
71C0
7B80
7600
ENDCHAR
STARTCHAR 0253
ENCODING 595
SWIDTH 1008 0
DWIDTH 14 0
BBX 10 11 2 -1
BITMAP
1F00
3380
7380
7000
7600
7B80
71C0
71C0
71C0
7B80
F600
ENDCHAR
STARTCHAR 0254
ENCODING 596
SWIDTH 1008 0
DWIDTH 14 0
BBX 9 8 2 2
BITMAP
3C00
E700
C380
0380
0380
C380
E700
DC00
ENDCHAR
STARTCHAR 0255
ENCODING 597
SWIDTH 1008 0
DWIDTH 14 0
BBX 9 10 2 2
BITMAP
1E00
7380
E180
E000
E300
E680
7580
1F00
1800
3000
ENDCHAR
STARTCHAR 0256
ENCODING 598
SWIDTH 1008 0
DWIDTH 14 0
BBX 11 13 2 -1
BITMAP
0780
0380
0380
1D80
7780
E380
E380
E380
E380
7780
1D80
03A0
01E0
ENDCHAR
STARTCHAR 0257
ENCODING 599
SWIDTH 1008 0
DWIDTH 14 0
BBX 12 11 1 -1
BITMAP
01F0
03B0
0380
1D80
7780
E380
E380
E380
E380
7780
1DC0
ENDCHAR
STARTCHAR 0258
ENCODING 600
SWIDTH 1008 0
DWIDTH 14 0
BBX 10 8 2 2
BITMAP
3F00
6180
E1C0
FFC0
01C0
C1C0
E380
3E00
ENDCHAR
STARTCHAR 0259
ENCODING 601
SWIDTH 1008 0
DWIDTH 14 0
BBX 10 8 2 2
BITMAP
3E00
E380
C1C0
01C0
FFC0
E1C0
6180
3F00
ENDCHAR
STARTCHAR 025A
ENCODING 602
SWIDTH 1008 0
DWIDTH 14 0
BBX 12 8 2 2
BITMAP
3E60
EF60
C7B0
1D80
3380
E380
7300
3E00
ENDCHAR
STARTCHAR 025C
ENCODING 604
SWIDTH 1008 0
DWIDTH 14 0
BBX 10 8 2 2
BITMAP
3F00
E3C0
01C0
1F80
01C0
C1C0
6380
3F00
ENDCHAR
STARTCHAR 025E
ENCODING 606
SWIDTH 1008 0
DWIDTH 14 0
BBX 10 8 2 2
BITMAP
3F00
63C0
C1C0
DF80
C1C0
C1C0
6380
3F00
ENDCHAR
STARTCHAR 025F
ENCODING 607
SWIDTH 1008 0
DWIDTH 14 0
BBX 9 9 2 3
BITMAP
3F80
0E00
0E00
3F80
0E00
0E00
EE00
EC00
7800
ENDCHAR
STARTCHAR 0260
ENCODING 608
SWIDTH 1008 0
DWIDTH 14 0
BBX 12 11 1 1
BITMAP
00F0
1EB0
7380
E380
E380
E380
7780
1D80
E380
E300
7E00
ENDCHAR
STARTCHAR 0261
ENCODING 609
SWIDTH 1008 0
DWIDTH 14 0
BBX 9 10 2 2
BITMAP
1E80
7380
E380
E380
E380
7780
1D80
E380
E300
7E00
ENDCHAR
STARTCHAR 0264
ENCODING 612
SWIDTH 1008 0
DWIDTH 14 0
BBX 10 8 2 2
BITMAP
FBC0
7380
3B00
1E00
0C00
1E00
1A00
0C00
ENDCHAR
STARTCHAR 0265
ENCODING 613
SWIDTH 1008 0
DWIDTH 14 0
BBX 11 11 2 -1
BITMAP
F9C0
71C0
71C0
71C0
71C0
71C0
3BC0
1EC0
01C0
01C0
01E0
ENDCHAR
STARTCHAR 0266
ENCODING 614
SWIDTH 1008 0
DWIDTH 14 0
BBX 11 11 2 -1
BITMAP
1F00
3380
7380
7000
7700
7B80
71C0
71C0
71C0
71C0
FBE0
ENDCHAR
STARTCHAR 0267
ENCODING 615
SWIDTH 1008 0
DWIDTH 14 0
BBX 10 13 2 -1
BITMAP
1F00
3380
7380
7000
7700
7B80
71C0
71C0
71C0
71C0
F9C0
0D80
0F00
ENDCHAR
STARTCHAR 0268
ENCODING 616
SWIDTH 1008 0
DWIDTH 14 0
BBX 7 11 3 -1
BITMAP
18
3C
18
00
F8
38
38
FE
38
38
FE
ENDCHAR
STARTCHAR 026C
ENCODING 620
SWIDTH 1008 0
DWIDTH 14 0
BBX 9 11 2 -1
BITMAP
7C00
1C00
1C00
7C00
DC00
DC00
DC00
7F80
1C00
1C00
7F00
ENDCHAR
STARTCHAR 026D
ENCODING 621
SWIDTH 1008 0
DWIDTH 14 0
BBX 8 13 3 -1
BITMAP
F8
38
38
38
38
38
38
38
38
38
38
3B
1F
ENDCHAR
STARTCHAR 026E
ENCODING 622
SWIDTH 1008 0
DWIDTH 14 0
BBX 12 13 1 -1
BITMAP
F800
3800
3800
3FF0
38E0
39C0
39C0
3B80
3BE0
38F0
FCF0
1CE0
0FC0
ENDCHAR
STARTCHAR 026F
ENCODING 623
SWIDTH 1008 0
DWIDTH 14 0
BBX 13 8 0 2
BITMAP
F778
7770
7770
7770
7770
7770
7770
3DB8
ENDCHAR
STARTCHAR 0270
ENCODING 624
SWIDTH 1008 0
DWIDTH 14 0
BBX 13 10 0 2
BITMAP
F778
7770
7770
7770
7770
7770
7770
3DB0
0070
0078
ENDCHAR
STARTCHAR 0271
ENCODING 625
SWIDTH 1008 0
DWIDTH 14 0
BBX 12 10 0 2
BITMAP
F6E0
7B70
7770
7770
7770
7770
7770
FB70
03B0
03E0
ENDCHAR
STARTCHAR 0272
ENCODING 626
SWIDTH 1008 0
DWIDTH 14 0
BBX 13 10 0 2
BITMAP
1EC0
0F60
0E70
0E70
0E70
0E70
0E70
EEF8
EC00
7800
ENDCHAR
STARTCHAR 0273
ENCODING 627
SWIDTH 1008 0
DWIDTH 14 0
BBX 12 10 1 2
BITMAP
F700
7980
71C0
71C0
71C0
71C0
71C0
F9C0
01D0
00F0
ENDCHAR
STARTCHAR 0275
ENCODING 629
SWIDTH 1008 0
DWIDTH 14 0
BBX 10 8 2 2
BITMAP
3F00
6180
E1C0
FFC0
E1C0
E1C0
7380
1E00
ENDCHAR
STARTCHAR 0279
ENCODING 633
SWIDTH 1008 0
DWIDTH 14 0
BBX 9 8 2 2
BITMAP
0F80
0700
0700
0700
0700
E700
EF00
7B80
ENDCHAR
STARTCHAR 027A
ENCODING 634
SWIDTH 1008 0
DWIDTH 14 0
BBX 9 11 2 -1
BITMAP
0F80
0700
0700
0700
0700
0700
0700
0700
E700
EF00
7B80
ENDCHAR
STARTCHAR 027B
ENCODING 635
SWIDTH 1008 0
DWIDTH 14 0
BBX 11 10 2 2
BITMAP
0F80
0700
0700
0700
0700
E700
EF00
7B00
0760
03E0
ENDCHAR
STARTCHAR 027D
ENCODING 637
SWIDTH 1008 0
DWIDTH 14 0
BBX 9 10 2 2
BITMAP
F700
7B80
7380
7000
7000
7000
7000
7000
7600
3E00
ENDCHAR
STARTCHAR 027E
ENCODING 638
SWIDTH 1008 0
DWIDTH 14 0
BBX 8 8 3 2
BITMAP
1E
3B
3B
3B
38
38
38
FE
ENDCHAR
STARTCHAR 0281
ENCODING 641
SWIDTH 1008 0
DWIDTH 14 0
BBX 10 8 2 2
BITMAP
F3C0
76C0
7600
7B80
71C0
71C0
7B80
F600
ENDCHAR
STARTCHAR 0282
ENCODING 642
SWIDTH 1008 0
DWIDTH 14 0
BBX 9 10 2 2
BITMAP
7F00
E300
F000
7C00
1F00
C780
E380
DF00
C000
7000
ENDCHAR
STARTCHAR 0283
ENCODING 643
SWIDTH 1008 0
DWIDTH 14 0
BBX 11 14 1 -2
BITMAP
07C0
0EE0
0EE0
0E00
0E00
0E00
0E00
0E00
0E00
0E00
0E00
EE00
EE00
7C00
ENDCHAR
STARTCHAR 0284
ENCODING 644
SWIDTH 1008 0
DWIDTH 14 0
BBX 10 11 2 1
BITMAP
0780
0DC0
1DC0
1C00
1C00
1C00
1C00
7F00
1C00
DC00
F800
ENDCHAR
STARTCHAR 0288
ENCODING 648
SWIDTH 1008 0
DWIDTH 14 0
BBX 9 12 2 0
BITMAP
1800
3800
3800
FF80
3800
3800
3800
3800
3800
3800
3B00
1F00
ENDCHAR
STARTCHAR 0289
ENCODING 649
SWIDTH 1008 0
DWIDTH 14 0
BBX 11 8 2 2
BITMAP
F7C0
71C0
71C0
FFE0
71C0
71C0
73C0
3EE0
ENDCHAR
STARTCHAR 028A
ENCODING 650
SWIDTH 1008 0
DWIDTH 14 0
BBX 10 8 2 2
BITMAP
FBC0
DAC0
3300
7380
E1C0
E1C0
7380
3F00
ENDCHAR
STARTCHAR 028B
ENCODING 651
SWIDTH 1008 0
DWIDTH 14 0
BBX 10 8 2 2
BITMAP
F7C0
71C0
71C0
71C0
71C0
7180
7380
3E00
ENDCHAR
STARTCHAR 028C
ENCODING 652
SWIDTH 1008 0
DWIDTH 14 0
BBX 11 8 1 2
BITMAP
0E00
0E00
1B00
1B00
3380
3380
61C0
F7E0
ENDCHAR
STARTCHAR 028D
ENCODING 653
SWIDTH 1008 0
DWIDTH 14 0
BBX 12 8 1 2
BITMAP
3B80
3B80
3B80
3DC0
6DC0
6EE0
6EE0
F6F0
ENDCHAR
STARTCHAR 028E
ENCODING 654
SWIDTH 1008 0
DWIDTH 14 0
BBX 10 10 2 0
BITMAP
0780
0DC0
0DC0
1C00
1E00
3600
3700
6700
6380
F7C0
ENDCHAR
STARTCHAR 0290
ENCODING 656
SWIDTH 1008 0
DWIDTH 14 0
BBX 11 10 2 2
BITMAP
FF80
C700
0E00
1C00
3800
7000
E180
FF80
01A0
00E0
ENDCHAR
STARTCHAR 0291
ENCODING 657
SWIDTH 1008 0
DWIDTH 14 0
BBX 9 10 2 2
BITMAP
FF80
C700
0E00
1C00
3B00
7680
ED80
FF80
1800
3000
ENDCHAR
STARTCHAR 0292
ENCODING 658
SWIDTH 1008 0
DWIDTH 14 0
BBX 9 10 2 2
BITMAP
FF80
C700
CE00
0E00
1C00
3F00
0780
E780
E700
7E00
ENDCHAR
STARTCHAR 0294
ENCODING 660
SWIDTH 1008 0
DWIDTH 14 0
BBX 9 11 2 -1
BITMAP
3E00
6F00
C380
E380
E380
1F00
1C00
1C00
1C00
1C00
7F00
ENDCHAR
STARTCHAR 0295
ENCODING 661
SWIDTH 1008 0
DWIDTH 14 0
BBX 9 11 2 -1
BITMAP
3E00
7B00
E180
E380
E380
7C00
1C00
1C00
1C00
1C00
7F00
ENDCHAR
STARTCHAR 0298
ENCODING 664
SWIDTH 1008 0
DWIDTH 14 0
BBX 11 10 1 0
BITMAP
3F80
71C0
E0E0
C060
CE60
CE60
C060
E0E0
71C0
3F80
ENDCHAR
STARTCHAR 029D
ENCODING 669
SWIDTH 1008 0
DWIDTH 14 0
BBX 8 13 2 -1
BITMAP
0C
1E
0C
00
7F
1C
1C
1C
1C
1C
FF
DC
78
ENDCHAR
STARTCHAR 02A1
ENCODING 673
SWIDTH 1008 0
DWIDTH 14 0
BBX 9 11 2 -1
BITMAP
3E00
6F00
C380
E380
E380
1F00
1C00
7F00
1C00
1C00
7F00
ENDCHAR
STARTCHAR 02A2
ENCODING 674
SWIDTH 1008 0
DWIDTH 14 0
BBX 9 11 2 -1
BITMAP
3E00
7B00
E180
E380
E380
7C00
1C00
7F00
1C00
1C00
7F00
ENDCHAR
STARTCHAR 02C7
ENCODING 711
SWIDTH 1008 0
DWIDTH 14 0
BBX 8 4 3 -2
BITMAP
C3
66
34
18
ENDCHAR
STARTCHAR 02C8
ENCODING 712
SWIDTH 1008 0
DWIDTH 14 0
BBX 2 4 6 -1
BITMAP
C0
C0
C0
C0
ENDCHAR
STARTCHAR 02CC
ENCODING 716
SWIDTH 1008 0
DWIDTH 14 0
BBX 2 4 6 7
BITMAP
C0
C0
C0
C0
ENDCHAR
STARTCHAR 02D0
ENCODING 720
SWIDTH 1008 0
DWIDTH 14 0
BBX 6 9 4 1
BITMAP
FC
78
30
30
00
30
30
78
FC
ENDCHAR
STARTCHAR 02D1
ENCODING 721
SWIDTH 1008 0
DWIDTH 14 0
BBX 6 4 4 1
BITMAP
FC
78
30
30
ENDCHAR
STARTCHAR 02D8
ENCODING 728
SWIDTH 1008 0
DWIDTH 14 0
BBX 7 4 3 -2
BITMAP
C6
C6
6C
38
ENDCHAR
STARTCHAR 02D9
ENCODING 729
SWIDTH 1008 0
DWIDTH 14 0
BBX 3 2 5 -1
BITMAP
E0
E0
ENDCHAR
STARTCHAR 02DB
ENCODING 731
SWIDTH 1008 0
DWIDTH 14 0
BBX 4 5 7 6
BITMAP
60
C0
C0
70
70
ENDCHAR
STARTCHAR 02DD
ENCODING 733
SWIDTH 1008 0
DWIDTH 14 0
BBX 6 3 4 -1
BITMAP
34
68
D0
ENDCHAR
STARTCHAR 02DE
ENCODING 734
SWIDTH 1008 0
DWIDTH 14 0
BBX 7 4 2 4
BITMAP
F0
36
36
1C
ENDCHAR
STARTCHAR 02E5
ENCODING 741
SWIDTH 1008 0
DWIDTH 14 0
BBX 8 14 0 -2
BITMAP
FF
03
03
03
03
03
03
03
03
03
03
03
03
03
ENDCHAR
STARTCHAR 02E6
ENCODING 742
SWIDTH 1008 0
DWIDTH 14 0
BBX 8 14 0 -2
BITMAP
03
03
03
FF
03
03
03
03
03
03
03
03
03
03
ENDCHAR
STARTCHAR 02E7
ENCODING 743
SWIDTH 1008 0
DWIDTH 14 0
BBX 8 14 0 -2
BITMAP
03
03
03
03
03
03
03
FF
03
03
03
03
03
03
ENDCHAR
STARTCHAR 02E8
ENCODING 744
SWIDTH 1008 0
DWIDTH 14 0
BBX 8 14 0 -2
BITMAP
03
03
03
03
03
03
03
03
03
03
FF
03
03
03
ENDCHAR
STARTCHAR 02E9
ENCODING 745
SWIDTH 1008 0
DWIDTH 14 0
BBX 8 14 0 -2
BITMAP
03
03
03
03
03
03
03
03
03
03
03
03
03
FF
ENDCHAR
STARTCHAR 0300
ENCODING 768
SWIDTH 1008 0
DWIDTH 14 0
BBX 5 3 4 -1
BITMAP
E0
70
18
ENDCHAR
STARTCHAR 0301
ENCODING 769
SWIDTH 1008 0
DWIDTH 14 0
BBX 5 3 5 -1
BITMAP
38
70
C0
ENDCHAR
STARTCHAR 0302
ENCODING 770
SWIDTH 1008 0
DWIDTH 14 0
BBX 6 3 4 -1
BITMAP
30
68
CC
ENDCHAR
STARTCHAR 0303
ENCODING 771
SWIDTH 1008 0
DWIDTH 14 0
BBX 7 2 3 -1
BITMAP
76
DC
ENDCHAR
STARTCHAR 0304
ENCODING 772
SWIDTH 1008 0
DWIDTH 14 0
BBX 6 1 4 -1
BITMAP
FC
ENDCHAR
STARTCHAR 0306
ENCODING 774
SWIDTH 1008 0
DWIDTH 14 0
BBX 7 4 3 -1
BITMAP
C6
C6
6C
38
ENDCHAR
STARTCHAR 0308
ENCODING 776
SWIDTH 1008 0
DWIDTH 14 0
BBX 7 2 3 -2
BITMAP
EE
EE
ENDCHAR
STARTCHAR 030B
ENCODING 779
SWIDTH 1008 0
DWIDTH 14 0
BBX 6 3 4 -1
BITMAP
34
68
D0
ENDCHAR
STARTCHAR 030C
ENCODING 780
SWIDTH 1008 0
DWIDTH 14 0
BBX 6 3 4 -1
BITMAP
CC
68
30
ENDCHAR
STARTCHAR 030F
ENCODING 783
SWIDTH 1008 0
DWIDTH 14 0
BBX 6 3 4 -1
BITMAP
D0
68
34
ENDCHAR
STARTCHAR 0318
ENCODING 792
SWIDTH 1008 0
DWIDTH 14 0
BBX 5 5 3 7
BITMAP
18
18
F8
18
18
ENDCHAR
STARTCHAR 0319
ENCODING 793
SWIDTH 1008 0
DWIDTH 14 0
BBX 5 5 6 7
BITMAP
C0
C0
F8
C0
C0
ENDCHAR
STARTCHAR 031A
ENCODING 794
SWIDTH 1008 0
DWIDTH 14 0
BBX 4 3 7 -1
BITMAP
F0
30
30
ENDCHAR
STARTCHAR 031C
ENCODING 796
SWIDTH 1008 0
DWIDTH 14 0
BBX 5 4 4 8
BITMAP
78
C0
C0
78
ENDCHAR
STARTCHAR 031D
ENCODING 797
SWIDTH 1008 0
DWIDTH 14 0
BBX 8 3 3 7
BITMAP
18
18
FF
ENDCHAR
STARTCHAR 031E
ENCODING 798
SWIDTH 1008 0
DWIDTH 14 0
BBX 8 3 3 9
BITMAP
FF
18
18
ENDCHAR
STARTCHAR 031F
ENCODING 799
SWIDTH 1008 0
DWIDTH 14 0
BBX 8 5 3 7
BITMAP
18
18
FF
18
18
ENDCHAR
STARTCHAR 0320
ENCODING 800
SWIDTH 1008 0
DWIDTH 14 0
BBX 8 1 3 9
BITMAP
FF
ENDCHAR
STARTCHAR 0324
ENCODING 804
SWIDTH 1008 0
DWIDTH 14 0
BBX 7 2 3 10
BITMAP
EE
EE
ENDCHAR
STARTCHAR 0325
ENCODING 805
SWIDTH 1008 0
DWIDTH 14 0
BBX 6 4 4 8
BITMAP
78
CC
CC
78
ENDCHAR
STARTCHAR 0329
ENCODING 809
SWIDTH 1008 0
DWIDTH 14 0
BBX 2 4 6 8
BITMAP
C0
C0
C0
C0
ENDCHAR
STARTCHAR 032A
ENCODING 810
SWIDTH 1008 0
DWIDTH 14 0
BBX 8 3 3 8
BITMAP
FF
C3
C3
ENDCHAR
STARTCHAR 032C
ENCODING 812
SWIDTH 1008 0
DWIDTH 14 0
BBX 6 3 4 9
BITMAP
CC
68
30
ENDCHAR
STARTCHAR 032F
ENCODING 815
SWIDTH 1008 0
DWIDTH 14 0
BBX 7 4 3 7
BITMAP
38
6C
C6
C6
ENDCHAR
STARTCHAR 0330
ENCODING 816
SWIDTH 1008 0
DWIDTH 14 0
BBX 7 2 3 10
BITMAP
76
DC
ENDCHAR
STARTCHAR 0334
ENCODING 820
SWIDTH 1008 0
DWIDTH 14 0
BBX 7 2 3 4
BITMAP
76
DC
ENDCHAR
STARTCHAR 0339
ENCODING 825
SWIDTH 1008 0
DWIDTH 14 0
BBX 5 4 5 8
BITMAP
F0
18
18
F0
ENDCHAR
STARTCHAR 033A
ENCODING 826
SWIDTH 1008 0
DWIDTH 14 0
BBX 8 3 3 8
BITMAP
C3
C3
FF
ENDCHAR
STARTCHAR 033B
ENCODING 827
SWIDTH 1008 0
DWIDTH 14 0
BBX 8 3 3 8
BITMAP
FF
C3
FF
ENDCHAR
STARTCHAR 033C
ENCODING 828
SWIDTH 1008 0
DWIDTH 14 0
BBX 9 2 2 10
BITMAP
7700
DD80
ENDCHAR
STARTCHAR 033D
ENCODING 829
SWIDTH 1008 0
DWIDTH 14 0
BBX 5 3 4 -2
BITMAP
D8
70
D8
ENDCHAR
STARTCHAR 0361
ENCODING 865
SWIDTH 1008 0
DWIDTH 14 0
BBX 11 3 1 -1
BITMAP
1F00
71C0
C060
ENDCHAR
STARTCHAR 0391
ENCODING 913
SWIDTH 1008 0
DWIDTH 14 0
BBX 13 11 0 -1
BITMAP
0300
0300
0780
0780
0DC0
0DC0
18E0
1FE0
3070
3070
F8F8
ENDCHAR
STARTCHAR 0392
ENCODING 914
SWIDTH 1008 0
DWIDTH 14 0
BBX 12 11 1 -1
BITMAP
FF00
39C0
38E0
38E0
39C0
3F80
38E0
3870
3870
38E0
FF80
ENDCHAR
STARTCHAR 0393
ENCODING 915
SWIDTH 1008 0
DWIDTH 14 0
BBX 11 11 1 -1
BITMAP
FFC0
39C0
3860
3800
3800
3800
3800
3800
3800
3800
FE00
ENDCHAR
STARTCHAR 0394
ENCODING 916
SWIDTH 1008 0
DWIDTH 14 0
BBX 12 11 1 -1
BITMAP
0600
0600
0F00
0F00
1B80
1B80
31C0
31C0
60E0
60E0
FFF0
ENDCHAR
STARTCHAR 0395
ENCODING 917
SWIDTH 1008 0
DWIDTH 14 0
BBX 12 11 1 -1
BITMAP
FFC0
38C0
3860
3800
3980
3F80
3980
3800
3830
3860
FFE0
ENDCHAR
STARTCHAR 0396
ENCODING 918
SWIDTH 1008 0
DWIDTH 14 0
BBX 12 11 1 -1
BITMAP
7FE0
61C0
C380
0700
0700
0E00
1C00
1C00
3830
7060
FFE0
ENDCHAR
STARTCHAR 0397
ENCODING 919
SWIDTH 1008 0
DWIDTH 14 0
BBX 12 11 1 -1
BITMAP
F9F0
70E0
70E0
70E0
70E0
7FE0
70E0
70E0
70E0
70E0
F9F0
ENDCHAR
STARTCHAR 0398
ENCODING 920
SWIDTH 1008 0
DWIDTH 14 0
BBX 12 11 1 -1
BITMAP
0F00
39C0
70E0
E070
E9B0
EFB0
E9B0
E070
70E0
39C0
0F00
ENDCHAR
STARTCHAR 0399
ENCODING 921
SWIDTH 1008 0
DWIDTH 14 0
BBX 7 11 3 -1
BITMAP
FE
38
38
38
38
38
38
38
38
38
FE
ENDCHAR
STARTCHAR 039A
ENCODING 922
SWIDTH 1008 0
DWIDTH 14 0
BBX 12 11 1 -1
BITMAP
F9F0
70C0
7180
7300
7700
7580
7B80
71C0
71C0
70E0
F9F0
ENDCHAR
STARTCHAR 039B
ENCODING 923
SWIDTH 1008 0
DWIDTH 14 0
BBX 12 11 1 -1
BITMAP
0600
0600
0F00
0F00
1B80
1B80
31C0
31C0
60E0
60E0
F1F0
ENDCHAR
STARTCHAR 039C
ENCODING 924
SWIDTH 1008 0
DWIDTH 14 0
BBX 12 11 1 -1
BITMAP
F0F0
70E0
79E0
79E0
6D60
6D60
6EE0
6EE0
6CE0
60E0
F1F0
ENDCHAR
STARTCHAR 039D
ENCODING 925
SWIDTH 1008 0
DWIDTH 14 0
BBX 11 11 1 -1
BITMAP
F1E0
70C0
78C0
6CC0
6CC0
6EC0
6740
6740
63C0
61C0
F1C0
ENDCHAR
STARTCHAR 039E
ENCODING 926
SWIDTH 1008 0
DWIDTH 14 0
BBX 11 12 1 -1
BITMAP
7FE0
7FC0
C0C0
0000
60C0
7FC0
7FC0
60C0
0000
6060
7FC0
FFC0
ENDCHAR
STARTCHAR 039F
ENCODING 927
SWIDTH 1008 0
DWIDTH 14 0
BBX 12 11 1 -1
BITMAP
0F00
39C0
70E0
E070
E070
E070
E070
E070
70E0
39C0
0F00
ENDCHAR
STARTCHAR 03A0
ENCODING 928
SWIDTH 1008 0
DWIDTH 14 0
BBX 12 11 1 -1
BITMAP
FFF0
70E0
70E0
70E0
70E0
70E0
70E0
70E0
70E0
70E0
F9F0
ENDCHAR
STARTCHAR 03A1
ENCODING 929
SWIDTH 1008 0
DWIDTH 14 0
BBX 11 11 1 -1
BITMAP
FF00
39C0
38E0
38E0
39C0
3F00
3800
3800
3800
3800
FE00
ENDCHAR
STARTCHAR 03A3
ENCODING 931
SWIDTH 1008 0
DWIDTH 14 0
BBX 11 11 1 -1
BITMAP
FFC0
70C0
3860
1C00
0E00
0700
0600
0C00
1860
30C0
FFC0
ENDCHAR
STARTCHAR 03A4
ENCODING 932
SWIDTH 1008 0
DWIDTH 14 0
BBX 13 11 0 -1
BITMAP
7FF0
6730
C718
0700
0700
0700
0700
0700
0700
0700
1FC0
ENDCHAR
STARTCHAR 03A5
ENCODING 933
SWIDTH 1008 0
DWIDTH 14 0
BBX 11 11 1 -1
BITMAP
3B80
6F40
CE60
CE60
0E00
0E00
0E00
0E00
0E00
0E00
3F80
ENDCHAR
STARTCHAR 03A6
ENCODING 934
SWIDTH 1008 0
DWIDTH 14 0
BBX 11 11 1 -1
BITMAP
3F80
0E00
1F00
76C0
EEE0
EEE0
EEE0
76C0
1F00
0E00
3F80
ENDCHAR
STARTCHAR 03A7
ENCODING 935
SWIDTH 1008 0
DWIDTH 14 0
BBX 12 11 1 -1
BITMAP
F9F0
70C0
3980
1D00
0E00
0E00
0F00
1B80
31C0
60E0
F1F0
ENDCHAR
STARTCHAR 03A8
ENCODING 936
SWIDTH 1008 0
DWIDTH 14 0
BBX 13 11 0 -1
BITMAP
1FC0
0700
E738
7770
7770
7770
3760
1FC0
0700
0700
1FC0
ENDCHAR
STARTCHAR 03A9
ENCODING 937
SWIDTH 1008 0
DWIDTH 14 0
BBX 12 11 1 -1
BITMAP
0F00
39C0
70E0
E070
E070
E070
70E0
30C0
1980
CD30
FDF0
ENDCHAR
STARTCHAR 03B1
ENCODING 945
SWIDTH 1008 0
DWIDTH 14 0
BBX 10 9 2 1
BITMAP
0180
3D80
7680
E380
C380
C300
C700
ED00
79C0
ENDCHAR
STARTCHAR 03B2
ENCODING 946
SWIDTH 1008 0
DWIDTH 14 0
BBX 10 13 2 -1
BITMAP
0780
0CC0
18C0
18C0
3180
3700
3180
7180
6180
7380
EF00
C000
C000
ENDCHAR
STARTCHAR 03B3
ENCODING 947
SWIDTH 1008 0
DWIDTH 14 0
BBX 9 9 3 2
BITMAP
7380
DA00
1C00
1800
1800
3800
3800
3800
3000
ENDCHAR
STARTCHAR 03B4
ENCODING 948
SWIDTH 1008 0
DWIDTH 14 0
BBX 9 11 3 -1
BITMAP
3C00
6F00
6180
3000
3C00
6E00
E600
C600
CE00
DC00
7800
ENDCHAR
STARTCHAR 03B5
ENCODING 949
SWIDTH 1008 0
DWIDTH 14 0
BBX 7 8 3 2
BITMAP
3C
76
60
3C
70
E0
E6
7C
ENDCHAR
STARTCHAR 03B6
ENCODING 950
SWIDTH 1008 0
DWIDTH 14 0
BBX 8 13 3 -1
BITMAP
60
EF
7E
30
60
60
C0
C0
F0
7C
0E
76
3C
ENDCHAR
STARTCHAR 03B7
ENCODING 951
SWIDTH 1008 0
DWIDTH 14 0
BBX 9 10 2 2
BITMAP
7700
DD80
1980
3180
3180
7300
6300
6700
0600
0600
ENDCHAR
STARTCHAR 03B8
ENCODING 952
SWIDTH 1008 0
DWIDTH 14 0
BBX 9 11 3 -1
BITMAP
0F00
1980
3180
7180
6380
FF80
E300
C700
C600
CC00
7800
ENDCHAR
STARTCHAR 03B9
ENCODING 953
SWIDTH 1008 0
DWIDTH 14 0
BBX 5 8 4 2
BITMAP
30
70
60
E0
C0
C0
E8
70
ENDCHAR
STARTCHAR 03BA
ENCODING 954
SWIDTH 1008 0
DWIDTH 14 0
BBX 10 8 2 2
BITMAP
33C0
3700
7400
7800
6C00
EC00
CE80
C700
ENDCHAR
STARTCHAR 03BB
ENCODING 955
SWIDTH 1008 0
DWIDTH 14 0
BBX 9 11 3 -1
BITMAP
3C00
0E00
0600
0E00
1A00
1A00
3600
7600
6600
E700
C380
ENDCHAR
STARTCHAR 03BC
ENCODING 956
SWIDTH 1008 0
DWIDTH 14 0
BBX 11 10 2 2
BITMAP
3180
3180
3380
7300
6300
6300
77A0
EDC0
C000
C000
ENDCHAR
STARTCHAR 03BD
ENCODING 957
SWIDTH 1008 0
DWIDTH 14 0
BBX 8 8 3 2
BITMAP
C3
E3
66
66
6C
78
F0
C0
ENDCHAR
STARTCHAR 03BE
ENCODING 958
SWIDTH 1008 0
DWIDTH 14 0
BBX 8 14 3 -2
BITMAP
38
67
3F
30
60
60
3E
6E
C0
C0
F0
7C
0E
7C
ENDCHAR
STARTCHAR 03BF
ENCODING 959
SWIDTH 1008 0
DWIDTH 14 0
BBX 9 8 3 2
BITMAP
0E00
3B00
7180
E380
E380
C700
6E00
3800
ENDCHAR
STARTCHAR 03C0
ENCODING 960
SWIDTH 1008 0
DWIDTH 14 0
BBX 12 9 1 1
BITMAP
3830
7FE0
CD80
1980
1B00
3300
3300
7380
E1C0
ENDCHAR
STARTCHAR 03C1
ENCODING 961
SWIDTH 1008 0
DWIDTH 14 0
BBX 10 10 2 2
BITMAP
0F80
1CC0
38C0
30C0
71C0
7180
7380
EE00
C000
C000
ENDCHAR
STARTCHAR 03C2
ENCODING 962
SWIDTH 1008 0
DWIDTH 14 0
BBX 9 11 3 1
BITMAP
1E00
3D00
7180
E380
C380
E700
6000
3000
1800
6C00
3800
ENDCHAR
STARTCHAR 03C3
ENCODING 963
SWIDTH 1008 0
DWIDTH 14 0
BBX 10 8 2 2
BITMAP
0FC0
3E00
7300
E300
C300
C700
CE00
7C00
ENDCHAR
STARTCHAR 03C4
ENCODING 964
SWIDTH 1008 0
DWIDTH 14 0
BBX 10 8 2 2
BITMAP
39C0
7F80
CC00
1C00
1800
3000
3A00
1C00
ENDCHAR
STARTCHAR 03C5
ENCODING 965
SWIDTH 1008 0
DWIDTH 14 0
BBX 8 8 3 2
BITMAP
66
67
E3
E3
C7
C6
CE
7C
ENDCHAR
STARTCHAR 03C6
ENCODING 966
SWIDTH 1008 0
DWIDTH 14 0
BBX 11 13 1 -1
BITMAP
0300
0300
0300
0F00
3B80
76C0
E6E0
ECE0
6DC0
3D80
1E00
1800
1800
ENDCHAR
STARTCHAR 03C7
ENCODING 967
SWIDTH 1008 0
DWIDTH 14 0
BBX 11 13 1 -1
BITMAP
1C60
36E0
06C0
0680
0700
0600
0E00
1E00
1A00
3600
7600
E740
C380
ENDCHAR
STARTCHAR 03C8
ENCODING 968
SWIDTH 1008 0
DWIDTH 14 0
BBX 12 13 0 -1
BITMAP
0180
0180
0180
73A0
DB70
1B30
1B30
3670
36E0
36C0
1F00
0C00
0C00
ENDCHAR
STARTCHAR 03C9
ENCODING 969
SWIDTH 1008 0
DWIDTH 14 0
BBX 11 8 1 2
BITMAP
30C0
6060
E660
CE60
CCE0
CCC0
EDC0
7700
ENDCHAR
STARTCHAR 0401
ENCODING 1025
SWIDTH 1008 0
DWIDTH 14 0
BBX 12 12 1 -2
BITMAP
3B80
3B80
FFC0
3860
3800
3980
3F80
3980
3800
3830
3860
FFE0
ENDCHAR
STARTCHAR 0410
ENCODING 1040
SWIDTH 1008 0
DWIDTH 14 0
BBX 13 11 0 -1
BITMAP
0300
0300
0780
0780
0DC0
0DC0
18E0
1FE0
3070
3070
F8F8
ENDCHAR
STARTCHAR 0411
ENCODING 1041
SWIDTH 1008 0
DWIDTH 14 0
BBX 11 12 1 -1
BITMAP
FFC0
38C0
3860
3800
3800
3F00
39C0
38E0
38E0
38E0
39C0
FF00
ENDCHAR
STARTCHAR 0412
ENCODING 1042
SWIDTH 1008 0
DWIDTH 14 0
BBX 12 11 1 -1
BITMAP
FF00
39C0
38E0
38E0
39C0
3F80
38E0
3870
3870
38E0
FF80
ENDCHAR
STARTCHAR 0413
ENCODING 1043
SWIDTH 1008 0
DWIDTH 14 0
BBX 11 11 1 -1
BITMAP
FFC0
39C0
3860
3800
3800
3800
3800
3800
3800
3800
FE00
ENDCHAR
STARTCHAR 0414
ENCODING 1044
SWIDTH 1008 0
DWIDTH 14 0
BBX 12 13 1 -1
BITMAP
3FE0
19C0
19C0
19C0
19C0
19C0
19C0
19C0
31C0
31C0
7FF0
E070
C030
ENDCHAR
STARTCHAR 0415
ENCODING 1045
SWIDTH 1008 0
DWIDTH 14 0
BBX 12 11 1 -1
BITMAP
FFC0
38C0
3860
3800
3980
3F80
3980
3800
3830
3860
FFE0
ENDCHAR
STARTCHAR 0416
ENCODING 1046
SWIDTH 1008 0
DWIDTH 14 0
BBX 13 11 0 -1
BITMAP
EFB8
F778
3760
3760
3760
1FC0
1B40
3760
7770
6730
F7B8
ENDCHAR
STARTCHAR 0417
ENCODING 1047
SWIDTH 1008 0
DWIDTH 14 0
BBX 10 11 2 -1
BITMAP
3E00
F380
C1C0
01C0
0380
1F00
0380
01C0
C1C0
F380
3E00
ENDCHAR
STARTCHAR 0418
ENCODING 1048
SWIDTH 1008 0
DWIDTH 14 0
BBX 12 11 1 -1
BITMAP
F9F0
70E0
70E0
71E0
7360
76E0
74E0
78E0
70E0
70E0
F9F0
ENDCHAR
STARTCHAR 0419
ENCODING 1049
SWIDTH 1008 0
DWIDTH 14 0
BBX 12 12 1 -2
BITMAP
1D80
0F00
F9F0
70E0
71E0
7360
76E0
74E0
78E0
70E0
70E0
F9F0
ENDCHAR
STARTCHAR 041A
ENCODING 1050
SWIDTH 1008 0
DWIDTH 14 0
BBX 12 11 1 -1
BITMAP
F8F0
71B0
7300
7300
7600
7E00
7700
7380
71C0
70E0
F9F0
ENDCHAR
STARTCHAR 041B
ENCODING 1051
SWIDTH 1008 0
DWIDTH 14 0
BBX 12 11 1 -1
BITMAP
1FF0
0CE0
0CE0
0CE0
0CE0
0CE0
0CE0
0CE0
E8E0
E8E0
71F0
ENDCHAR
STARTCHAR 041C
ENCODING 1052
SWIDTH 1008 0
DWIDTH 14 0
BBX 13 11 0 -1
BITMAP
78F0
38E0
38E0
3DE0
3DE0
3760
6E70
6670
6670
6070
F0F8
ENDCHAR
STARTCHAR 041D
ENCODING 1053
SWIDTH 1008 0
DWIDTH 14 0
BBX 12 11 1 -1
BITMAP
F9F0
70E0
70E0
70E0
70E0
7FE0
70E0
70E0
70E0
70E0
F9F0
ENDCHAR
STARTCHAR 041E
ENCODING 1054
SWIDTH 1008 0
DWIDTH 14 0
BBX 12 11 1 -1
BITMAP
0F00
39C0
70E0
E070
E070
E070
E070
E070
70E0
39C0
0F00
ENDCHAR
STARTCHAR 041F
ENCODING 1055
SWIDTH 1008 0
DWIDTH 14 0
BBX 12 11 1 -1
BITMAP
FFF0
70E0
70E0
70E0
70E0
70E0
70E0
70E0
70E0
70E0
F9F0
ENDCHAR
STARTCHAR 0420
ENCODING 1056
SWIDTH 1008 0
DWIDTH 14 0
BBX 11 11 1 -1
BITMAP
FF00
39C0
38E0
38E0
39C0
3F00
3800
3800
3800
3800
FE00
ENDCHAR
STARTCHAR 0421
ENCODING 1057
SWIDTH 1008 0
DWIDTH 14 0
BBX 11 11 1 -1
BITMAP
0FA0
38E0
7060
E060
E000
E000
E000
E000
7060
38E0
0F80
ENDCHAR
STARTCHAR 0422
ENCODING 1058
SWIDTH 1008 0
DWIDTH 14 0
BBX 13 11 0 -1
BITMAP
7FF0
6730
C718
0700
0700
0700
0700
0700
0700
0700
1FC0
ENDCHAR
STARTCHAR 0423
ENCODING 1059
SWIDTH 1008 0
DWIDTH 14 0
BBX 12 13 1 -1
BITMAP
F9F0
7060
7060
38C0
38C0
1D80
1D80
0F00
0F00
0600
7600
7400
3800
ENDCHAR
STARTCHAR 0424
ENCODING 1060
SWIDTH 1008 0
DWIDTH 14 0
BBX 11 11 1 -1
BITMAP
3F80
0E00
1F00
76C0
EEE0
EEE0
EEE0
76C0
1F00
0E00
3F80
ENDCHAR
STARTCHAR 0425
ENCODING 1061
SWIDTH 1008 0
DWIDTH 14 0
BBX 12 11 1 -1
BITMAP
F9F0
70C0
3980
1D00
0E00
0E00
0F00
1B80
31C0
60E0
F1F0
ENDCHAR
STARTCHAR 0426
ENCODING 1062
SWIDTH 1008 0
DWIDTH 14 0
BBX 12 13 1 -1
BITMAP
F9F0
70E0
70E0
70E0
70E0
70E0
70E0
70E0
70E0
70E0
FFF0
0070
0030
ENDCHAR
STARTCHAR 0427
ENCODING 1063
SWIDTH 1008 0
DWIDTH 14 0
BBX 11 11 1 -1
BITMAP
FBE0
71C0
71C0
71C0
71C0
71C0
3FC0
01C0
01C0
01C0
07E0
ENDCHAR
STARTCHAR 0428
ENCODING 1064
SWIDTH 1008 0
DWIDTH 14 0
BBX 13 11 0 -1
BITMAP
F7B8
7770
7770
7770
7770
7770
7770
7770
7770
7770
FFF8
ENDCHAR
STARTCHAR 0429
ENCODING 1065
SWIDTH 1008 0
DWIDTH 14 0
BBX 13 13 0 -1
BITMAP
F7B8
7770
7770
7770
7770
7770
7770
7770
7770
7770
FFF8
0038
0018
ENDCHAR
STARTCHAR 042A
ENCODING 1066
SWIDTH 1008 0
DWIDTH 14 0
BBX 13 11 0 -1
BITMAP
7F00
6E00
CE00
0E00
0FE0
0E70
0E38
0E38
0E38
0E70
3FC0
ENDCHAR
STARTCHAR 042B
ENCODING 1067
SWIDTH 1008 0
DWIDTH 14 0
BBX 12 11 1 -1
BITMAP
F9F0
70E0
70E0
70E0
7CE0
7760
73E0
73E0
73E0
7760
FDF0
ENDCHAR
STARTCHAR 042C
ENCODING 1068
SWIDTH 1008 0
DWIDTH 14 0
BBX 11 11 1 -1
BITMAP
FE00
3800
3800
3800
3F00
39C0
38E0
38E0
38E0
39C0
FF00
ENDCHAR
STARTCHAR 042D
ENCODING 1069
SWIDTH 1008 0
DWIDTH 14 0
BBX 11 11 2 -1
BITMAP
3E00
F380
C1C0
00C0
38E0
6EE0
0760
00C0
C1C0
F380
3E00
ENDCHAR
STARTCHAR 042E
ENCODING 1070
SWIDTH 1008 0
DWIDTH 14 0
BBX 13 11 0 -1
BITMAP
F9C0
7770
7630
7638
7638
7E38
7638
7638
7630
7770
F9C0
ENDCHAR
STARTCHAR 042F
ENCODING 1071
SWIDTH 1008 0
DWIDTH 14 0
BBX 12 11 1 -1
BITMAP
0FF0
38E0
70E0
70E0
70E0
38E0
1FE0
0EE0
1CE0
38E0
E1F0
ENDCHAR
STARTCHAR 0430
ENCODING 1072
SWIDTH 1008 0
DWIDTH 14 0
BBX 10 8 2 2
BITMAP
3E00
7300
7380
1F80
7380
E380
E780
7DC0
ENDCHAR
STARTCHAR 0431
ENCODING 1073
SWIDTH 1008 0
DWIDTH 14 0
BBX 9 12 3 -2
BITMAP
0180
0F00
3E00
6000
6C00
F700
E380
E380
E380
E380
7700
1C00
ENDCHAR
STARTCHAR 0432
ENCODING 1074
SWIDTH 1008 0
DWIDTH 14 0
BBX 10 8 2 2
BITMAP
FF00
7380
7380
7F00
7180
71C0
71C0
FF80
ENDCHAR
STARTCHAR 0433
ENCODING 1075
SWIDTH 1008 0
DWIDTH 14 0
BBX 10 8 2 2
BITMAP
FF80
7180
70C0
7000
7000
7000
7000
FC00
ENDCHAR
STARTCHAR 0434
ENCODING 1076
SWIDTH 1008 0
DWIDTH 14 0
BBX 11 9 1 2
BITMAP
3FE0
19C0
19C0
19C0
19C0
19C0
31C0
FFC0
C060
ENDCHAR
STARTCHAR 0435
ENCODING 1077
SWIDTH 1008 0
DWIDTH 14 0
BBX 10 8 2 2
BITMAP
3F00
6180
E1C0
FFC0
E000
E0C0
71C0
1F00
ENDCHAR
STARTCHAR 0436
ENCODING 1078
SWIDTH 1008 0
DWIDTH 14 0
BBX 13 8 0 2
BITMAP
EFB8
F778
1B40
1FC0
1B40
3760
7770
EFB8
ENDCHAR
STARTCHAR 0437
ENCODING 1079
SWIDTH 1008 0
DWIDTH 14 0
BBX 9 8 2 2
BITMAP
3E00
E380
C380
1F00
0380
C380
E380
3E00
ENDCHAR
STARTCHAR 0438
ENCODING 1080
SWIDTH 1008 0
DWIDTH 14 0
BBX 11 8 1 2
BITMAP
FBE0
71C0
73C0
76C0
75C0
79C0
71C0
FBE0
ENDCHAR
STARTCHAR 0439
ENCODING 1081
SWIDTH 1008 0
DWIDTH 14 0
BBX 11 11 1 -1
BITMAP
1D80
0F00
0000
FBE0
71C0
73C0
76C0
75C0
79C0
71C0
FBE0
ENDCHAR
STARTCHAR 043A
ENCODING 1082
SWIDTH 1008 0
DWIDTH 14 0
BBX 11 8 1 2
BITMAP
F9C0
73C0
7600
7E00
7700
7380
71C0
F9E0
ENDCHAR
STARTCHAR 043B
ENCODING 1083
SWIDTH 1008 0
DWIDTH 14 0
BBX 11 8 1 2
BITMAP
1FE0
0DC0
0DC0
0DC0
0DC0
E9C0
E9C0
73E0
ENDCHAR
STARTCHAR 043C
ENCODING 1084
SWIDTH 1008 0
DWIDTH 14 0
BBX 12 8 1 2
BITMAP
F0F0
79E0
79E0
6D60
6D60
6EE0
6EE0
F1F0
ENDCHAR
STARTCHAR 043D
ENCODING 1085
SWIDTH 1008 0
DWIDTH 14 0
BBX 11 8 1 2
BITMAP
FBE0
71C0
71C0
7FC0
71C0
71C0
71C0
FBE0
ENDCHAR
STARTCHAR 043E
ENCODING 1086
SWIDTH 1008 0
DWIDTH 14 0
BBX 10 8 2 2
BITMAP
1E00
7380
E1C0
E1C0
E1C0
E1C0
7380
1E00
ENDCHAR
STARTCHAR 043F
ENCODING 1087
SWIDTH 1008 0
DWIDTH 14 0
BBX 11 8 1 2
BITMAP
FFE0
71C0
71C0
71C0
71C0
71C0
71C0
FBE0
ENDCHAR
STARTCHAR 0440
ENCODING 1088
SWIDTH 1008 0
DWIDTH 14 0
BBX 10 10 2 2
BITMAP
F700
7B80
71C0
71C0
71C0
71C0
7B80
7700
7000
F800
ENDCHAR
STARTCHAR 0441
ENCODING 1089
SWIDTH 1008 0
DWIDTH 14 0
BBX 9 8 2 2
BITMAP
1E00
7380
E180
E000
E000
E180
7380
1E00
ENDCHAR
STARTCHAR 0442
ENCODING 1090
SWIDTH 1008 0
DWIDTH 14 0
BBX 11 8 1 2
BITMAP
7FC0
6EC0
CE60
0E00
0E00
0E00
0E00
1F00
ENDCHAR
STARTCHAR 0443
ENCODING 1091
SWIDTH 1008 0
DWIDTH 14 0
BBX 10 10 2 2
BITMAP
FDC0
7180
3980
3B00
1D00
1E00
0E00
EC00
EC00
7800
ENDCHAR
STARTCHAR 0444
ENCODING 1092
SWIDTH 1008 0
DWIDTH 14 0
BBX 13 13 0 -1
BITMAP
0300
0700
0700
3B60
77B0
E738
E738
E738
E738
77B0
3B60
0700
0F80
ENDCHAR
STARTCHAR 0445
ENCODING 1093
SWIDTH 1008 0
DWIDTH 14 0
BBX 10 8 2 2
BITMAP
FBC0
7180
3B00
1E00
1E00
3700
6380
F7C0
ENDCHAR
STARTCHAR 0446
ENCODING 1094
SWIDTH 1008 0
DWIDTH 14 0
BBX 11 10 1 2
BITMAP
FBE0
71C0
71C0
71C0
71C0
71C0
71C0
7FE0
00E0
0060
ENDCHAR
STARTCHAR 0447
ENCODING 1095
SWIDTH 1008 0
DWIDTH 14 0
BBX 11 8 1 2
BITMAP
FBE0
71C0
71C0
71C0
3FC0
01C0
01C0
03E0
ENDCHAR
STARTCHAR 0448
ENCODING 1096
SWIDTH 1008 0
DWIDTH 14 0
BBX 13 8 0 2
BITMAP
F778
7770
7770
7770
7770
7770
7770
FFF8
ENDCHAR
STARTCHAR 0449
ENCODING 1097
SWIDTH 1008 0
DWIDTH 14 0
BBX 13 10 0 2
BITMAP
F778
7770
7770
7770
7770
7770
7770
FFF8
0038
0018
ENDCHAR
STARTCHAR 044A
ENCODING 1098
SWIDTH 1008 0
DWIDTH 14 0
BBX 12 8 0 2
BITMAP
7F00
6E00
CE00
0FE0
0E70
0E70
0E70
1FE0
ENDCHAR
STARTCHAR 044B
ENCODING 1099
SWIDTH 1008 0
DWIDTH 14 0
BBX 12 8 1 2
BITMAP
F9F0
70E0
70E0
7EE0
7760
7760
7760
FEF0
ENDCHAR
STARTCHAR 044C
ENCODING 1100
SWIDTH 1008 0
DWIDTH 14 0
BBX 10 8 2 2
BITMAP
F800
7000
7000
7F80
71C0
71C0
71C0
FF80
ENDCHAR
STARTCHAR 044D
ENCODING 1101
SWIDTH 1008 0
DWIDTH 14 0
BBX 10 8 2 2
BITMAP
3E00
E380
C1C0
1DC0
36C0
C1C0
E380
3E00
ENDCHAR
STARTCHAR 044E
ENCODING 1102
SWIDTH 1008 0
DWIDTH 14 0
BBX 12 8 1 2
BITMAP
FBC0
7660
7670
7E70
7670
7670
7660
FBC0
ENDCHAR
STARTCHAR 044F
ENCODING 1103
SWIDTH 1008 0
DWIDTH 14 0
BBX 10 8 2 2
BITMAP
3FC0
6380
E380
E380
7F80
3B80
7380
C7C0
ENDCHAR
STARTCHAR 0451
ENCODING 1105
SWIDTH 1008 0
DWIDTH 14 0
BBX 10 11 2 -1
BITMAP
3B80
3B80
0000
3F00
6180
E1C0
FFC0
E000
E0C0
71C0
1F00
ENDCHAR
STARTCHAR 1E3E
ENCODING 7742
SWIDTH 1008 0
DWIDTH 14 0
BBX 12 12 1 -2
BITMAP
0700
F6F0
74E0
79E0
79E0
6D60
6D60
6EE0
6EE0
6CE0
60E0
F1F0
ENDCHAR
STARTCHAR 1E3F
ENCODING 7743
SWIDTH 1008 0
DWIDTH 14 0
BBX 13 12 0 -2
BITMAP
0700
0600
0C00
0000
F6E0
7B70
7770
7770
7770
7770
7770
FBB8
ENDCHAR
STARTCHAR 1F70
ENCODING 8048
SWIDTH 1008 0
DWIDTH 14 0
BBX 10 12 2 -2
BITMAP
1C00
0C00
0600
0000
1D80
7780
E380
E380
E380
E380
7780
1DC0
ENDCHAR
STARTCHAR 1F71
ENCODING 8049
SWIDTH 1008 0
DWIDTH 14 0
BBX 10 12 2 -2
BITMAP
0E00
0C00
1800
0000
1D80
7780
E380
E380
E380
E380
7780
1DC0
ENDCHAR
STARTCHAR 1F72
ENCODING 8050
SWIDTH 1008 0
DWIDTH 14 0
BBX 10 12 2 -2
BITMAP
1C00
0C00
0600
0000
3F00
F3C0
E000
7F00
E000
E0C0
7180
3F00
ENDCHAR
STARTCHAR 1F73
ENCODING 8051
SWIDTH 1008 0
DWIDTH 14 0
BBX 10 12 2 -2
BITMAP
0E00
0C00
1800
0000
3F00
F3C0
E000
7F00
E000
E0C0
7180
3F00
ENDCHAR
STARTCHAR 2000
ENCODING 8192
SWIDTH 1008 0
DWIDTH 14 0
BBX 0 0 0 -2
BITMAP
ENDCHAR
STARTCHAR 2001
ENCODING 8193
SWIDTH 1008 0
DWIDTH 14 0
BBX 0 0 0 -2
BITMAP
ENDCHAR
STARTCHAR 2002
ENCODING 8194
SWIDTH 1008 0
DWIDTH 14 0
BBX 0 0 0 -2
BITMAP
ENDCHAR
STARTCHAR 2003
ENCODING 8195
SWIDTH 1008 0
DWIDTH 14 0
BBX 0 0 0 -2
BITMAP
ENDCHAR
STARTCHAR 2004
ENCODING 8196
SWIDTH 1008 0
DWIDTH 14 0
BBX 0 0 0 -2
BITMAP
ENDCHAR
STARTCHAR 2005
ENCODING 8197
SWIDTH 1008 0
DWIDTH 14 0
BBX 0 0 0 -2
BITMAP
ENDCHAR
STARTCHAR 2006
ENCODING 8198
SWIDTH 1008 0
DWIDTH 14 0
BBX 0 0 0 -2
BITMAP
ENDCHAR
STARTCHAR 2007
ENCODING 8199
SWIDTH 1008 0
DWIDTH 14 0
BBX 0 0 0 -2
BITMAP
ENDCHAR
STARTCHAR 2008
ENCODING 8200
SWIDTH 1008 0
DWIDTH 14 0
BBX 0 0 0 -2
BITMAP
ENDCHAR
STARTCHAR 2009
ENCODING 8201
SWIDTH 1008 0
DWIDTH 14 0
BBX 0 0 0 -2
BITMAP
ENDCHAR
STARTCHAR 200A
ENCODING 8202
SWIDTH 1008 0
DWIDTH 14 0
BBX 0 0 0 -2
BITMAP
ENDCHAR
STARTCHAR 200B
ENCODING 8203
SWIDTH 504 0
DWIDTH 7 0
BBX 0 0 0 0
BITMAP
ENDCHAR
STARTCHAR 200C
ENCODING 8204
SWIDTH 504 0
DWIDTH 7 0
BBX 0 0 0 0
BITMAP
ENDCHAR
STARTCHAR 200D
ENCODING 8205
SWIDTH 504 0
DWIDTH 7 0
BBX 0 0 0 0
BITMAP
ENDCHAR
STARTCHAR 200E
ENCODING 8206
SWIDTH 504 0
DWIDTH 7 0
BBX 0 0 0 0
BITMAP
ENDCHAR
STARTCHAR 200F
ENCODING 8207
SWIDTH 504 0
DWIDTH 7 0
BBX 0 0 0 0
BITMAP
ENDCHAR
STARTCHAR 2010
ENCODING 8208
SWIDTH 1008 0
DWIDTH 14 0
BBX 6 1 4 4
BITMAP
FC
ENDCHAR
STARTCHAR 2013
ENCODING 8211
SWIDTH 1008 0
DWIDTH 14 0
BBX 7 1 3 4
BITMAP
FE
ENDCHAR
STARTCHAR 2014
ENCODING 8212
SWIDTH 1008 0
DWIDTH 14 0
BBX 14 1 0 4
BITMAP
FFFC
ENDCHAR
STARTCHAR 2015
ENCODING 8213
SWIDTH 1008 0
DWIDTH 14 0
BBX 14 1 0 4
BITMAP
FFFC
ENDCHAR
STARTCHAR 2016
ENCODING 8214
SWIDTH 1008 0
DWIDTH 14 0
BBX 5 14 4 -2
BITMAP
D8
D8
D8
D8
D8
D8
D8
D8
D8
D8
D8
D8
D8
D8
ENDCHAR
STARTCHAR 2018
ENCODING 8216
SWIDTH 1008 0
DWIDTH 14 0
BBX 4 5 9 -2
BITMAP
70
C0
E0
F0
60
ENDCHAR
STARTCHAR 2019
ENCODING 8217
SWIDTH 1008 0
DWIDTH 14 0
BBX 4 5 0 -2
BITMAP
60
F0
70
30
E0
ENDCHAR
STARTCHAR 201C
ENCODING 8220
SWIDTH 1008 0
DWIDTH 14 0
BBX 8 5 5 -2
BITMAP
77
CC
EE
F7
66
ENDCHAR
STARTCHAR 201D
ENCODING 8221
SWIDTH 1008 0
DWIDTH 14 0
BBX 8 5 0 -2
BITMAP
66
F7
77
33
EE
ENDCHAR
STARTCHAR 2020
ENCODING 8224
SWIDTH 1008 0
DWIDTH 14 0
BBX 10 14 2 -2
BITMAP
0C00
1E00
0C00
6D80
FFC0
6D80
1E00
1E00
0C00
0C00
0C00
0C00
0C00
0C00
ENDCHAR
STARTCHAR 2021
ENCODING 8225
SWIDTH 1008 0
DWIDTH 14 0
BBX 10 14 2 -2
BITMAP
0C00
1E00
6D80
FFC0
6D80
1E00
0C00
0C00
1E00
6D80
FFC0
6D80
1E00
0C00
ENDCHAR
STARTCHAR 2022
ENCODING 8226
SWIDTH 1008 0
DWIDTH 14 0
BBX 6 5 4 3
BITMAP
78
FC
FC
FC
78
ENDCHAR
STARTCHAR 2025
ENCODING 8229
SWIDTH 1008 0
DWIDTH 14 0
BBX 9 2 2 4
BITMAP
E380
E380
ENDCHAR
STARTCHAR 2026
ENCODING 8230
SWIDTH 1008 0
DWIDTH 14 0
BBX 11 2 1 4
BITMAP
EEE0
EEE0
ENDCHAR
STARTCHAR 2030
ENCODING 8240
SWIDTH 1008 0
DWIDTH 14 0
BBX 14 12 0 -1
BITMAP
3860
6CC0
EE80
EE80
6D00
3A00
0730
0EA8
1EEC
36EC
36A8
6330
ENDCHAR
STARTCHAR 2032
ENCODING 8242
SWIDTH 1008 0
DWIDTH 14 0
BBX 5 5 0 -1
BITMAP
38
38
70
60
C0
ENDCHAR
STARTCHAR 2033
ENCODING 8243
SWIDTH 1008 0
DWIDTH 14 0
BBX 8 5 0 -1
BITMAP
3B
3B
76
6C
D8
ENDCHAR
STARTCHAR 203B
ENCODING 8251
SWIDTH 1008 0
DWIDTH 14 0
BBX 12 11 1 0
BITMAP
C630
6F60
36C0
1980
6D60
F6F0
6D60
1980
36C0
6F60
C630
ENDCHAR
STARTCHAR 203C
ENCODING 8252
SWIDTH 1008 0
DWIDTH 14 0
BBX 9 13 2 -1
BITMAP
6300
F780
F780
F780
F780
F780
6300
6300
6300
0000
6300
F780
6300
ENDCHAR
STARTCHAR 203E
ENCODING 8254
SWIDTH 1008 0
DWIDTH 14 0
BBX 14 1 0 -2
BITMAP
FFFC
ENDCHAR
STARTCHAR 203F
ENCODING 8255
SWIDTH 1008 0
DWIDTH 14 0
BBX 11 3 1 8
BITMAP
C060
71C0
1F00
ENDCHAR
STARTCHAR 2042
ENCODING 8258
SWIDTH 1008 0
DWIDTH 14 0
BBX 14 14 0 -2
BITMAP
0300
3BB0
1D60
0780
1D60
3BB0
0300
1860
DD74
EAAC
3CF0
EAAC
DD74
1860
ENDCHAR
STARTCHAR 2047
ENCODING 8263
SWIDTH 1008 0
DWIDTH 14 0
BBX 12 13 1 -1
BITMAP
38E0
6DB0
CD30
EDB0
EDB0
1C70
1860
30C0
30C0
30C0
0000
38E0
38E0
ENDCHAR
STARTCHAR 2048
ENCODING 8264
SWIDTH 1008 0
DWIDTH 14 0
BBX 11 13 1 -1
BITMAP
38C0
6DE0
CDE0
EDE0
EDE0
1DE0
18C0
30C0
30C0
3000
00C0
39E0
38C0
ENDCHAR
STARTCHAR 2049
ENCODING 8265
SWIDTH 1008 0
DWIDTH 14 0
BBX 11 13 2 -1
BITMAP
61C0
F360
F660
F760
F760
F0E0
60C0
6180
6180
0180
6000
F1C0
61C0
ENDCHAR
STARTCHAR 2051
ENCODING 8273
SWIDTH 1008 0
DWIDTH 14 0
BBX 10 14 2 -2
BITMAP
0C00
EEC0
7580
1E00
7580
EEC0
0C00
0C00
EEC0
7580
1E00
7580
EEC0
0C00
ENDCHAR
STARTCHAR 20AC
ENCODING 8364
SWIDTH 1008 0
DWIDTH 14 0
BBX 12 11 0 -1
BITMAP
07C0
1C70
3830
7000
FFE0
6000
FFC0
7000
3830
1C70
07C0
ENDCHAR
STARTCHAR 2103
ENCODING 8451
SWIDTH 1008 0
DWIDTH 14 0
BBX 13 12 0 -1
BITMAP
7000
D9E8
DB38
7718
0E18
0E00
0E00
0E00
0E00
0618
0330
01E0
ENDCHAR
STARTCHAR 210F
ENCODING 8463
SWIDTH 1008 0
DWIDTH 14 0
BBX 12 11 1 -1
BITMAP
7B00
3C00
7800
DB80
3DC0
38E0
38E0
38E0
38E0
38E0
7DF0
ENDCHAR
STARTCHAR 2113
ENCODING 8467
SWIDTH 1008 0
DWIDTH 14 0
BBX 10 11 1 -1
BITMAP
0700
0F80
1E80
1D80
3D80
3980
3B00
3B00
3EC0
1E80
F700
ENDCHAR
STARTCHAR 2116
ENCODING 8470
SWIDTH 1008 0
DWIDTH 14 0
BBX 14 12 0 -1
BITMAP
EF00
E600
F600
F6E0
DAB0
DB38
DB38
DF38
DF38
CEB4
EEEC
000C
ENDCHAR
STARTCHAR 2121
ENCODING 8481
SWIDTH 1008 0
DWIDTH 14 0
BBX 14 10 0 0
BITMAP
FF70
66A0
6660
6660
67A0
6660
6660
6660
66AC
6F78
ENDCHAR
STARTCHAR 2127
ENCODING 8487
SWIDTH 1008 0
DWIDTH 14 0
BBX 12 11 1 -1
BITMAP
F9F0
CD30
1980
30C0
70E0
E070
E070
E070
70E0
39C0
0F00
ENDCHAR
STARTCHAR 212B
ENCODING 8491
SWIDTH 1008 0
DWIDTH 14 0
BBX 12 13 1 -2
BITMAP
0E00
1B00
1B00
0E00
0600
0F00
0F00
1B80
1B80
31C0
3FC0
60E0
F1F0
ENDCHAR
STARTCHAR 2135
ENCODING 8501
SWIDTH 1008 0
DWIDTH 14 0
BBX 11 12 1 -1
BITMAP
6180
71C0
70E0
39A0
3D80
1F00
3700
3380
33C0
31E0
F0E0
E0E0
ENDCHAR
STARTCHAR 2153
ENCODING 8531
SWIDTH 1008 0
DWIDTH 14 0
BBX 12 12 1 -1
BITMAP
3000
7060
D0C0
3180
3300
36E0
0D30
1830
31E0
6030
C330
01E0
ENDCHAR
STARTCHAR 2154
ENCODING 8532
SWIDTH 1008 0
DWIDTH 14 0
BBX 13 12 0 -1
BITMAP
7800
CC30
0C60
78C0
C180
C370
FE98
0C18
18F0
3018
6198
00F0
ENDCHAR
STARTCHAR 2155
ENCODING 8533
SWIDTH 1008 0
DWIDTH 14 0
BBX 12 12 1 -1
BITMAP
3000
7060
D0C0
3180
3300
37F0
0D00
1B00
33E0
6030
C330
01E0
ENDCHAR
STARTCHAR 2160
ENCODING 8544
SWIDTH 1008 0
DWIDTH 14 0
BBX 7 11 3 -1
BITMAP
FE
38
38
38
38
38
38
38
38
38
FE
ENDCHAR
STARTCHAR 2161
ENCODING 8545
SWIDTH 1008 0
DWIDTH 14 0
BBX 11 11 1 -1
BITMAP
FFE0
3B80
3B80
3B80
3B80
3B80
3B80
3B80
3B80
3B80
FFE0
ENDCHAR
STARTCHAR 2162
ENCODING 8546
SWIDTH 1008 0
DWIDTH 14 0
BBX 13 11 0 -1
BITMAP
FFF8
7770
7770
7770
7770
7770
7770
7770
7770
7770
FFF8
ENDCHAR
STARTCHAR 2163
ENCODING 8547
SWIDTH 1008 0
DWIDTH 14 0
BBX 13 11 0 -1
BITMAP
FF78
7630
7630
7760
7760
7760
7340
73C0
7380
7180
F980
ENDCHAR
STARTCHAR 2164
ENCODING 8548
SWIDTH 1008 0
DWIDTH 14 0
BBX 12 11 1 -1
BITMAP
F8F0
7060
7060
38C0
38C0
1D80
1D80
0F00
0F00
0600
0600
ENDCHAR
STARTCHAR 2165
ENCODING 8549
SWIDTH 1008 0
DWIDTH 14 0
BBX 13 11 0 -1
BITMAP
FBF8
71B0
71B0
3B70
3B70
3B70
1A70
1E70
1C70
0C70
0CF8
ENDCHAR
STARTCHAR 2166
ENCODING 8550
SWIDTH 1008 0
DWIDTH 14 0
BBX 14 11 0 -1
BITMAP
F7FC
E6D8
E6D8
EDD8
EDD8
75D8
79D8
79D8
31D8
31D8
33FC
ENDCHAR
STARTCHAR 2167
ENCODING 8551
SWIDTH 1008 0
DWIDTH 14 0
BBX 14 11 0 -1
BITMAP
F7FC
E6A8
E6A8
EDA8
EDA8
75A8
79A8
79A8
31A8
31A8
33FC
ENDCHAR
STARTCHAR 2168
ENCODING 8552
SWIDTH 1008 0
DWIDTH 14 0
BBX 14 11 0 -1
BITMAP
FFBC
7398
71B8
71D0
70E0
70E0
70E0
71B0
71B0
7338
FFBC
ENDCHAR
STARTCHAR 2169
ENCODING 8553
SWIDTH 1008 0
DWIDTH 14 0
BBX 12 11 1 -1
BITMAP
F9F0
70C0
3980
1D00
0E00
0E00
0F00
1B80
31C0
60E0
F1F0
ENDCHAR
STARTCHAR 216A
ENCODING 8554
SWIDTH 1008 0
DWIDTH 14 0
BBX 14 11 0 -1
BITMAP
F7FC
7370
3770
3A70
1C70
1C70
1C70
3670
3670
6770
F7FC
ENDCHAR
STARTCHAR 216B
ENCODING 8555
SWIDTH 1008 0
DWIDTH 14 0
BBX 14 11 0 -1
BITMAP
EFFC
E6D8
6ED8
75D8
39D8
39D8
39D8
6DD8
6DD8
CED8
EFFC
ENDCHAR
STARTCHAR 2170
ENCODING 8560
SWIDTH 1008 0
DWIDTH 14 0
BBX 7 11 3 -1
BITMAP
18
3C
18
00
F8
38
38
38
38
38
FE
ENDCHAR
STARTCHAR 2171
ENCODING 8561
SWIDTH 1008 0
DWIDTH 14 0
BBX 11 11 1 -1
BITMAP
3180
7BC0
3180
0000
FBC0
39C0
39C0
39C0
39C0
39C0
FFE0
ENDCHAR
STARTCHAR 2172
ENCODING 8562
SWIDTH 1008 0
DWIDTH 14 0
BBX 14 11 0 -1
BITMAP
3330
7BB8
3330
0000
F770
7770
7770
7770
7770
7770
FFFC
ENDCHAR
STARTCHAR 2173
ENCODING 8563
SWIDTH 1008 0
DWIDTH 14 0
BBX 13 11 0 -1
BITMAP
1800
3C00
1800
0FB8
FA30
3B30
3B60
3BA0
3BA0
39C0
FDC0
ENDCHAR
STARTCHAR 2174
ENCODING 8564
SWIDTH 1008 0
DWIDTH 14 0
BBX 11 8 1 2
BITMAP
FDE0
70C0
3980
3980
1D00
1D00
0E00
0E00
ENDCHAR
STARTCHAR 2175
ENCODING 8565
SWIDTH 1008 0
DWIDTH 14 0
BBX 13 11 0 -1
BITMAP
0030
0078
0030
FB80
6370
7370
7670
3A70
3A70
1C70
1DF8
ENDCHAR
STARTCHAR 2176
ENCODING 8566
SWIDTH 1008 0
DWIDTH 14 0
BBX 13 11 0 -1
BITMAP
01B0
03F8
01B0
F700
66F8
76D8
75D8
75D8
39D8
39D8
3BF8
ENDCHAR
STARTCHAR 2177
ENCODING 8567
SWIDTH 1008 0
DWIDTH 14 0
BBX 13 11 0 -1
BITMAP
0350
07F8
0350
EE00
CDF0
ED50
EB50
EB50
7350
7350
77F8
ENDCHAR
STARTCHAR 2178
ENCODING 8568
SWIDTH 1008 0
DWIDTH 14 0
BBX 13 11 0 -1
BITMAP
3000
7800
3000
1F78
F630
7760
73C0
73C0
76E0
7470
FEF8
ENDCHAR
STARTCHAR 2179
ENCODING 8569
SWIDTH 1008 0
DWIDTH 14 0
BBX 10 8 2 2
BITMAP
FBC0
7180
3B00
1E00
1E00
3700
6380
F7C0
ENDCHAR
STARTCHAR 217A
ENCODING 8570
SWIDTH 1008 0
DWIDTH 14 0
BBX 13 11 0 -1
BITMAP
0030
0078
0030
FBC0
71B0
3B70
1E70
1E70
3770
63B0
F7F8
ENDCHAR
STARTCHAR 217B
ENCODING 8571
SWIDTH 1008 0
DWIDTH 14 0
BBX 13 11 0 -1
BITMAP
01B0
03F8
01B0
FB00
76F8
75D8
39D8
3DD8
6ED8
6ED8
F7F8
ENDCHAR
STARTCHAR 2190
ENCODING 8592
SWIDTH 1008 0
DWIDTH 14 0
BBX 13 7 0 1
BITMAP
0600
0C00
3800
FFF8
3800
0C00
0600
ENDCHAR
STARTCHAR 2191
ENCODING 8593
SWIDTH 1008 0
DWIDTH 14 0
BBX 8 12 3 -1
BITMAP
18
18
3C
3C
6A
DB
18
18
18
18
18
18
ENDCHAR
STARTCHAR 2192
ENCODING 8594
SWIDTH 1008 0
DWIDTH 14 0
BBX 13 7 0 1
BITMAP
0300
0180
00E0
FFF8
00E0
0180
0300
ENDCHAR
STARTCHAR 2193
ENCODING 8595
SWIDTH 1008 0
DWIDTH 14 0
BBX 8 12 3 -1
BITMAP
18
18
18
18
18
18
DB
6A
3C
3C
18
18
ENDCHAR
STARTCHAR 2194
ENCODING 8596
SWIDTH 1008 0
DWIDTH 14 0
BBX 13 7 0 1
BITMAP
18C0
18C0
7070
FFF8
7070
18C0
18C0
ENDCHAR
STARTCHAR 2196
ENCODING 8598
SWIDTH 1008 0
DWIDTH 14 0
BBX 13 12 0 -1
BITMAP
C000
7000
7E00
3800
3400
3600
0300
0180
00C0
0060
0030
0018
ENDCHAR
STARTCHAR 2197
ENCODING 8599
SWIDTH 1008 0
DWIDTH 14 0
BBX 13 12 0 -1
BITMAP
0018
0070
03F0
00E0
01A0
0360
0600
0C00
1800
3000
6000
C000
ENDCHAR
STARTCHAR 2198
ENCODING 8600
SWIDTH 1008 0
DWIDTH 14 0
BBX 13 12 0 -1
BITMAP
C000
6000
3000
1800
0C00
0600
0360
01A0
00E0
03F0
0070
0018
ENDCHAR
STARTCHAR 2199
ENCODING 8601
SWIDTH 1008 0
DWIDTH 14 0
BBX 13 12 0 -1
BITMAP
0018
0030
0060
00C0
0180
0300
3600
3400
3800
7E00
7000
C000
ENDCHAR
STARTCHAR 21C4
ENCODING 8644
SWIDTH 1008 0
DWIDTH 14 0
BBX 13 12 0 -1
BITMAP
0300
0180
00E0
FFF8
00E0
0D80
0D80
3800
FFF8
3800
0C00
0600
ENDCHAR
STARTCHAR 21D2
ENCODING 8658
SWIDTH 1008 0
DWIDTH 14 0
BBX 13 7 0 1
BITMAP
00C0
0060
FFF0
0018
FFF0
0060
00C0
ENDCHAR
STARTCHAR 21D4
ENCODING 8660
SWIDTH 1008 0
DWIDTH 14 0
BBX 13 7 0 1
BITMAP
18C0
3060
7FF0
C018
7FF0
3060
18C0
ENDCHAR
STARTCHAR 21E6
ENCODING 8678
SWIDTH 1008 0
DWIDTH 14 0
BBX 13 9 0 0
BITMAP
0C00
1C00
3C00
77F8
C018
77F8
3C00
1C00
0C00
ENDCHAR
STARTCHAR 21E7
ENCODING 8679
SWIDTH 1008 0
DWIDTH 14 0
BBX 10 13 1 -2
BITMAP
0C00
1A00
3B00
7380
FBC0
1A00
1A00
1A00
1A00
1A00
1A00
1A00
1E00
ENDCHAR
STARTCHAR 21E8
ENCODING 8680
SWIDTH 1008 0
DWIDTH 14 0
BBX 13 9 0 0
BITMAP
0180
01C0
01E0
FFB0
C018
FFB0
01E0
01C0
0180
ENDCHAR
STARTCHAR 21E9
ENCODING 8681
SWIDTH 1008 0
DWIDTH 14 0
BBX 10 13 1 -1
BITMAP
1E00
1A00
1A00
1A00
1A00
1A00
1A00
FBC0
7380
3B00
1A00
1E00
0C00
ENDCHAR
STARTCHAR 2200
ENCODING 8704
SWIDTH 1008 0
DWIDTH 14 0
BBX 12 12 1 -1
BITMAP
C030
C030
6060
7FE0
30C0
30C0
1980
1980
0D00
0D00
0600
0600
ENDCHAR
STARTCHAR 2202
ENCODING 8706
SWIDTH 1008 0
DWIDTH 14 0
BBX 8 12 3 -1
BITMAP
1E
37
03
03
3D
77
67
E7
E6
EE
6C
38
ENDCHAR
STARTCHAR 2203
ENCODING 8707
SWIDTH 1008 0
DWIDTH 14 0
BBX 9 11 2 -1
BITMAP
FF80
0180
0180
0180
0180
FF80
0180
0180
0180
0180
FF80
ENDCHAR
STARTCHAR 2205
ENCODING 8709
SWIDTH 1008 0
DWIDTH 14 0
BBX 12 11 1 0
BITMAP
0F30
39E0
60E0
61A0
C330
C630
CC30
6860
7060
79C0
CF00
ENDCHAR
STARTCHAR 2207
ENCODING 8711
SWIDTH 1008 0
DWIDTH 14 0
BBX 12 11 1 0
BITMAP
FFF0
7FE0
7060
30C0
38C0
1980
1D80
0D00
0F00
0600
0600
ENDCHAR
STARTCHAR 2208
ENCODING 8712
SWIDTH 1008 0
DWIDTH 14 0
BBX 11 9 1 0
BITMAP
0FE0
3800
6000
C000
FFE0
C000
6000
3800
0FE0
ENDCHAR
STARTCHAR 2209
ENCODING 8713
SWIDTH 1008 0
DWIDTH 14 0
BBX 11 12 1 -1
BITMAP
0600
0FE0
3A00
6600
C600
FFE0
C600
6600
3A00
0FE0
0600
0600
ENDCHAR
STARTCHAR 220B
ENCODING 8715
SWIDTH 1008 0
DWIDTH 14 0
BBX 11 9 1 0
BITMAP
FE00
0380
00C0
0060
FFE0
0060
00C0
0380
FE00
ENDCHAR
STARTCHAR 2212
ENCODING 8722
SWIDTH 1008 0
DWIDTH 14 0
BBX 12 1 1 4
BITMAP
FFF0
ENDCHAR
STARTCHAR 2213
ENCODING 8723
SWIDTH 1008 0
DWIDTH 14 0
BBX 12 11 1 -1
BITMAP
FFF0
0000
0000
0600
0600
0600
FFF0
0600
0600
0600
0600
ENDCHAR
STARTCHAR 221A
ENCODING 8730
SWIDTH 1008 0
DWIDTH 14 0
BBX 13 12 0 -1
BITMAP
03F8
0300
0300
0300
0600
0600
0600
6600
F400
3C00
1C00
0C00
ENDCHAR
STARTCHAR 221D
ENCODING 8733
SWIDTH 1008 0
DWIDTH 14 0
BBX 10 6 2 2
BITMAP
39C0
6D00
C600
C600
6D00
39C0
ENDCHAR
STARTCHAR 221E
ENCODING 8734
SWIDTH 1008 0
DWIDTH 14 0
BBX 12 6 1 2
BITMAP
79E0
EDB0
CF30
CF30
EDB0
79E0
ENDCHAR
STARTCHAR 221F
ENCODING 8735
SWIDTH 1008 0
DWIDTH 14 0
BBX 12 11 1 -1
BITMAP
C000
C000
C000
C000
C000
C000
C000
C000
C000
C000
FFF0
ENDCHAR
STARTCHAR 2220
ENCODING 8736
SWIDTH 1008 0
DWIDTH 14 0
BBX 11 10 1 0
BITMAP
0060
00C0
0180
0300
0600
0C00
1800
3000
6000
FFE0
ENDCHAR
STARTCHAR 2225
ENCODING 8741
SWIDTH 1008 0
DWIDTH 14 0
BBX 11 12 1 -1
BITMAP
0600
0C60
0C60
18C0
18C0
3180
3180
6300
6300
C600
C600
0C00
ENDCHAR
STARTCHAR 2226
ENCODING 8742
SWIDTH 1008 0
DWIDTH 14 0
BBX 11 12 1 -1
BITMAP
0600
CC60
6C60
38C0
18C0
3580
3680
6300
6380
C6C0
C660
0C00
ENDCHAR
STARTCHAR 2227
ENCODING 8743
SWIDTH 1008 0
DWIDTH 14 0
BBX 10 10 2 0
BITMAP
0C00
0C00
1A00
1A00
3300
3300
6180
6180
C0C0
C0C0
ENDCHAR
STARTCHAR 2228
ENCODING 8744
SWIDTH 1008 0
DWIDTH 14 0
BBX 10 10 2 0
BITMAP
C0C0
C0C0
6180
6180
3300
3300
1A00
1A00
0C00
0C00
ENDCHAR
STARTCHAR 2229
ENCODING 8745
SWIDTH 1008 0
DWIDTH 14 0
BBX 11 10 1 0
BITMAP
1F00
3180
60C0
60C0
C060
C060
C060
C060
C060
C060
ENDCHAR
STARTCHAR 222A
ENCODING 8746
SWIDTH 1008 0
DWIDTH 14 0
BBX 11 10 1 0
BITMAP
C060
C060
C060
C060
C060
C060
60C0
60C0
3180
1F00
ENDCHAR
STARTCHAR 222B
ENCODING 8747
SWIDTH 1008 0
DWIDTH 14 0
BBX 5 14 5 -2
BITMAP
38
78
C0
C0
E0
E0
70
70
38
38
18
18
F0
E0
ENDCHAR
STARTCHAR 222C
ENCODING 8748
SWIDTH 1008 0
DWIDTH 14 0
BBX 9 14 2 -2
BITMAP
3B80
7B80
CC00
CC00
EE00
EE00
7700
7700
3B80
3B80
1980
1980
F700
EE00
ENDCHAR
STARTCHAR 222E
ENCODING 8750
SWIDTH 1008 0
DWIDTH 14 0
BBX 7 14 4 -2
BITMAP
1C
3C
60
60
78
74
DA
DA
6C
3C
0C
0C
78
70
ENDCHAR
STARTCHAR 2234
ENCODING 8756
SWIDTH 1008 0
DWIDTH 14 0
BBX 12 10 1 0
BITMAP
0600
0F00
0600
0000
0000
0000
0000
6060
F0F0
6060
ENDCHAR
STARTCHAR 2235
ENCODING 8757
SWIDTH 1008 0
DWIDTH 14 0
BBX 12 10 1 0
BITMAP
6060
F0F0
6060
0000
0000
0000
0000
0600
0F00
0600
ENDCHAR
STARTCHAR 223D
ENCODING 8765
SWIDTH 1008 0
DWIDTH 14 0
BBX 12 6 1 2
BITMAP
39C0
6360
C630
C630
6C60
39C0
ENDCHAR
STARTCHAR 2243
ENCODING 8771
SWIDTH 1008 0
DWIDTH 14 0
BBX 11 8 1 1
BITMAP
3800
6C60
C6C0
0380
0000
0000
0000
FFE0
ENDCHAR
STARTCHAR 2245
ENCODING 8773
SWIDTH 1008 0
DWIDTH 14 0
BBX 11 9 1 1
BITMAP
3800
6C60
C6C0
0380
0000
FFE0
0000
0000
FFE0
ENDCHAR
STARTCHAR 2248
ENCODING 8776
SWIDTH 1008 0
DWIDTH 14 0
BBX 11 8 1 1
BITMAP
3800
6C60
C6C0
0380
3800
6C60
C6C0
0380
ENDCHAR
STARTCHAR 2252
ENCODING 8786
SWIDTH 1008 0
DWIDTH 14 0
BBX 11 10 1 0
BITMAP
3000
7800
3000
FFE0
0000
0000
FFE0
0180
03C0
0180
ENDCHAR
STARTCHAR 2260
ENCODING 8800
SWIDTH 1008 0
DWIDTH 14 0
BBX 12 11 1 -1
BITMAP
0300
0300
0300
FFF0
0600
0600
0600
FFF0
0C00
0C00
0C00
ENDCHAR
STARTCHAR 2261
ENCODING 8801
SWIDTH 1008 0
DWIDTH 14 0
BBX 11 7 1 1
BITMAP
FFE0
0000
0000
FFE0
0000
0000
FFE0
ENDCHAR
STARTCHAR 2262
ENCODING 8802
SWIDTH 1008 0
DWIDTH 14 0
BBX 11 13 1 -2
BITMAP
0180
0180
0300
FFE0
0600
0600
FFE0
0C00
0C00
FFE0
1800
3000
3000
ENDCHAR
STARTCHAR 2266
ENCODING 8806
SWIDTH 1008 0
DWIDTH 14 0
BBX 12 13 1 -2
BITMAP
00E0
0380
0E00
3800
E000
3800
0E00
0380
00E0
0000
FFF0
0000
FFF0
ENDCHAR
STARTCHAR 2267
ENCODING 8807
SWIDTH 1008 0
DWIDTH 14 0
BBX 12 13 1 -2
BITMAP
E000
3800
0E00
0380
00E0
0380
0E00
3800
E000
0000
FFF0
0000
FFF0
ENDCHAR
STARTCHAR 226A
ENCODING 8810
SWIDTH 1008 0
DWIDTH 14 0
BBX 11 11 1 -1
BITMAP
0660
0CC0
1980
3300
6600
CC00
6600
3300
1980
0CC0
0660
ENDCHAR
STARTCHAR 226B
ENCODING 8811
SWIDTH 1008 0
DWIDTH 14 0
BBX 11 11 1 -1
BITMAP
CC00
6600
3300
1980
0CC0
0660
0CC0
1980
3300
6600
CC00
ENDCHAR
STARTCHAR 2276
ENCODING 8822
SWIDTH 1008 0
DWIDTH 14 0
BBX 11 13 1 -2
BITMAP
00E0
0780
1C00
F000
1C00
0780
E0E0
3C00
0700
01E0
0700
3C00
E000
ENDCHAR
STARTCHAR 2277
ENCODING 8823
SWIDTH 1008 0
DWIDTH 14 0
BBX 11 13 1 -2
BITMAP
E000
3C00
0700
01E0
0700
3C00
E0E0
0780
1C00
F000
1C00
0780
00E0
ENDCHAR
STARTCHAR 2282
ENCODING 8834
SWIDTH 1008 0
DWIDTH 14 0
BBX 11 10 1 0
BITMAP
0FE0
3800
6000
C000
C000
C000
C000
6000
3800
0FE0
ENDCHAR
STARTCHAR 2283
ENCODING 8835
SWIDTH 1008 0
DWIDTH 14 0
BBX 11 10 1 0
BITMAP
FE00
0380
00C0
0060
0060
0060
0060
00C0
0380
FE00
ENDCHAR
STARTCHAR 2284
ENCODING 8836
SWIDTH 1008 0
DWIDTH 14 0
BBX 11 12 1 -1
BITMAP
00C0
0FE0
3980
6180
C300
C600
C600
CC00
6800
3800
37E0
3000
ENDCHAR
STARTCHAR 2285
ENCODING 8837
SWIDTH 1008 0
DWIDTH 14 0
BBX 11 12 1 -1
BITMAP
0180
FE80
0380
0340
0660
0C60
0C60
1860
30C0
3380
FE00
6000
ENDCHAR
STARTCHAR 2286
ENCODING 8838
SWIDTH 1008 0
DWIDTH 14 0
BBX 11 10 1 0
BITMAP
3FE0
6000
C000
C000
C000
6000
3FE0
0000
0000
FFE0
ENDCHAR
STARTCHAR 2287
ENCODING 8839
SWIDTH 1008 0
DWIDTH 14 0
BBX 11 10 1 0
BITMAP
FF80
00C0
0060
0060
0060
00C0
FF80
0000
0000
FFE0
ENDCHAR
STARTCHAR 228A
ENCODING 8842
SWIDTH 1008 0
DWIDTH 14 0
BBX 11 12 1 0
BITMAP
3FE0
6000
C000
C000
C000
6000
3FE0
0300
0300
FFE0
0C00
0C00
ENDCHAR
STARTCHAR 228B
ENCODING 8843
SWIDTH 1008 0
DWIDTH 14 0
BBX 11 12 1 0
BITMAP
FF80
00C0
0060
0060
0060
00C0
FF80
0300
0300
FFE0
0C00
0C00
ENDCHAR
STARTCHAR 2295
ENCODING 8853
SWIDTH 1008 0
DWIDTH 14 0
BBX 13 12 0 -1
BITMAP
0F80
38E0
6630
6630
C618
DFE8
C618
C618
6630
6630
38E0
0F80
ENDCHAR
STARTCHAR 2296
ENCODING 8854
SWIDTH 1008 0
DWIDTH 14 0
BBX 13 12 0 -1
BITMAP
0F80
38E0
6030
6030
C018
DFE8
C018
C018
6030
6030
38E0
0F80
ENDCHAR
STARTCHAR 2297
ENCODING 8855
SWIDTH 1008 0
DWIDTH 14 0
BBX 13 12 0 -1
BITMAP
0F80
38E0
7070
68D0
CD98
C718
C718
CD98
68D0
7070
38E0
0F80
ENDCHAR
STARTCHAR 22A5
ENCODING 8869
SWIDTH 1008 0
DWIDTH 14 0
BBX 12 10 1 0
BITMAP
0600
0600
0600
0600
0600
0600
0600
0600
0600
FFF0
ENDCHAR
STARTCHAR 22BF
ENCODING 8895
SWIDTH 1008 0
DWIDTH 14 0
BBX 12 11 1 -1
BITMAP
0030
0070
00D0
01B0
0330
0630
0C30
1830
3030
6030
FFF0
ENDCHAR
STARTCHAR 22DA
ENCODING 8922
SWIDTH 1008 0
DWIDTH 14 0
BBX 11 11 1 -1
BITMAP
03C0
1E00
F000
1E00
03C0
FFE0
7800
0F00
01E0
0F00
7800
ENDCHAR
STARTCHAR 22DB
ENCODING 8923
SWIDTH 1008 0
DWIDTH 14 0
BBX 11 11 1 -1
BITMAP
7800
0F00
01E0
0F00
7800
FFE0
03C0
1E00
F000
1E00
03C0
ENDCHAR
STARTCHAR 2305
ENCODING 8965
SWIDTH 1008 0
DWIDTH 14 0
BBX 13 7 0 2
BITMAP
FFF8
0700
0D80
18C0
3060
6030
C018
ENDCHAR
STARTCHAR 2306
ENCODING 8966
SWIDTH 1008 0
DWIDTH 14 0
BBX 13 10 0 0
BITMAP
FFF8
0000
0000
FFF8
0700
0D80
18C0
3060
6030
C018
ENDCHAR
STARTCHAR 2312
ENCODING 8978
SWIDTH 1008 0
DWIDTH 14 0
BBX 14 3 0 -1
BITMAP
1FE0
7038
C00C
ENDCHAR
STARTCHAR 2318
ENCODING 8984
SWIDTH 1008 0
DWIDTH 14 0
BBX 11 10 1 0
BITMAP
71C0
DB60
DB60
7FC0
1B00
1B00
7FC0
DB60
DB60
71C0
ENDCHAR
STARTCHAR 23BE
ENCODING 9150
SWIDTH 1008 0
DWIDTH 14 0
BBX 8 14 6 -2
BITMAP
FF
C0
C0
C0
C0
C0
C0
C0
C0
C0
C0
C0
C0
C0
ENDCHAR
STARTCHAR 23BF
ENCODING 9151
SWIDTH 1008 0
DWIDTH 14 0
BBX 8 14 6 -2
BITMAP
C0
C0
C0
C0
C0
C0
C0
C0
C0
C0
C0
C0
C0
FF
ENDCHAR
STARTCHAR 23C0
ENCODING 9152
SWIDTH 1008 0
DWIDTH 14 0
BBX 12 14 1 -2
BITMAP
0600
0600
1F80
76E0
6660
C630
C630
C630
C630
6660
76E0
1F80
0600
0600
ENDCHAR
STARTCHAR 23C1
ENCODING 9153
SWIDTH 1008 0
DWIDTH 14 0
BBX 14 14 0 -2
BITMAP
FFFC
0300
0FC0
3B70
3330
6318
6318
6318
6318
3330
3B70
0FC0
0300
0300
ENDCHAR
STARTCHAR 23C2
ENCODING 9154
SWIDTH 1008 0
DWIDTH 14 0
BBX 14 14 0 -2
BITMAP
0300
0300
0FC0
3B70
3330
6318
6318
6318
6318
3330
3B70
0FC0
0300
FFFC
ENDCHAR
STARTCHAR 23C3
ENCODING 9155
SWIDTH 1008 0
DWIDTH 14 0
BBX 12 14 1 -2
BITMAP
0600
0600
0600
0F00
0F00
1A80
1A80
36C0
36C0
6660
6660
FFF0
0600
0600
ENDCHAR
STARTCHAR 23C4
ENCODING 9156
SWIDTH 1008 0
DWIDTH 14 0
BBX 14 14 0 -2
BITMAP
FFFC
0300
0300
0780
0780
0D40
0D40
1B60
1B60
3330
3330
7FF8
0300
0300
ENDCHAR
STARTCHAR 23C5
ENCODING 9157
SWIDTH 1008 0
DWIDTH 14 0
BBX 14 14 0 -2
BITMAP
0300
0300
0300
0780
0780
0D40
0D40
1B60
1B60
3330
3330
7FF8
0300
FFFC
ENDCHAR
STARTCHAR 23C6
ENCODING 9158
SWIDTH 1008 0
DWIDTH 14 0
BBX 12 14 1 -2
BITMAP
0600
0600
0600
0600
0600
7A00
CE30
C730
06E0
0600
0600
0600
0600
0600
ENDCHAR
STARTCHAR 23C7
ENCODING 9159
SWIDTH 1008 0
DWIDTH 14 0
BBX 14 14 0 -2
BITMAP
FFFC
0300
0300
0300
0300
3D00
6718
6398
0370
0300
0300
0300
0300
0300
ENDCHAR
STARTCHAR 23C8
ENCODING 9160
SWIDTH 1008 0
DWIDTH 14 0
BBX 14 14 0 -2
BITMAP
0300
0300
0300
0300
0300
3D00
6718
6398
0370
0300
0300
0300
0300
FFFC
ENDCHAR
STARTCHAR 23C9
ENCODING 9161
SWIDTH 1008 0
DWIDTH 14 0
BBX 14 14 0 -2
BITMAP
FFFC
0300
0300
0300
0300
0300
0300
0300
0300
0300
0300
0300
0300
0300
ENDCHAR
STARTCHAR 23CA
ENCODING 9162
SWIDTH 1008 0
DWIDTH 14 0
BBX 14 14 0 -2
BITMAP
0300
0300
0300
0300
0300
0300
0300
0300
0300
0300
0300
0300
0300
FFFC
ENDCHAR
STARTCHAR 23CB
ENCODING 9163
SWIDTH 1008 0
DWIDTH 14 0
BBX 8 14 0 -2
BITMAP
FF
03
03
03
03
03
03
03
03
03
03
03
03
03
ENDCHAR
STARTCHAR 23CC
ENCODING 9164
SWIDTH 1008 0
DWIDTH 14 0
BBX 8 14 0 -2
BITMAP
03
03
03
03
03
03
03
03
03
03
03
03
03
FF
ENDCHAR
STARTCHAR 23CE
ENCODING 9166
SWIDTH 1008 0
DWIDTH 14 0
BBX 13 11 0 0
BITMAP
00F8
00D8
0CD8
1CD8
34D8
F798
C038
F7F0
3400
1C00
0C00
ENDCHAR
STARTCHAR 2423
ENCODING 9251
SWIDTH 1008 0
DWIDTH 14 0
BBX 9 3 2 8
BITMAP
C180
C180
FF80
ENDCHAR
STARTCHAR 2460
ENCODING 9312
SWIDTH 1008 0
DWIDTH 14 0
BBX 14 14 0 -2
BITMAP
0F80
38E0
6330
C718
DF18
870C
870C
870C
870C
C718
DFD8
6030
38E0
0F80
ENDCHAR
STARTCHAR 2461
ENCODING 9313
SWIDTH 1008 0
DWIDTH 14 0
BBX 14 14 0 -2
BITMAP
0F80
38E0
67B0
DDD8
DDD8
818C
830C
860C
8C6C
CFD8
DFD8
6030
38E0
0F80
ENDCHAR
STARTCHAR 2462
ENCODING 9314
SWIDTH 1008 0
DWIDTH 14 0
BBX 14 14 0 -2
BITMAP
0F80
38E0
67B0
DDD8
DDD8
81CC
878C
81CC
9DCC
DDD8
C718
6030
38E0
0F80
ENDCHAR
STARTCHAR 2463
ENCODING 9315
SWIDTH 1008 0
DWIDTH 14 0
BBX 14 14 0 -2
BITMAP
0F80
38E0
63B0
C798
CD98
8D8C
9B8C
BB8C
BFCC
C398
C7D8
6030
38E0
0F80
ENDCHAR
STARTCHAR 2464
ENCODING 9316
SWIDTH 1008 0
DWIDTH 14 0
BBX 14 14 0 -2
BITMAP
0F80
38E0
6FB0
DF18
D818
9F8C
81CC
81CC
9DCC
DDD8
CF18
6030
38E0
0F80
ENDCHAR
STARTCHAR 2465
ENCODING 9317
SWIDTH 1008 0
DWIDTH 14 0
BBX 14 14 0 -2
BITMAP
0F80
38E0
67B0
CDD8
DDD8
9C0C
9F8C
9DCC
9DCC
DDD8
C718
6030
38E0
0F80
ENDCHAR
STARTCHAR 2466
ENCODING 9318
SWIDTH 1008 0
DWIDTH 14 0
BBX 14 14 0 -2
BITMAP
0F80
38E0
6FD0
CF98
D998
998C
830C
830C
870C
C718
C718
6030
38E0
0F80
ENDCHAR
STARTCHAR 2467
ENCODING 9319
SWIDTH 1008 0
DWIDTH 14 0
BBX 14 14 0 -2
BITMAP
0F80
38E0
6730
DDD8
DDD8
9DCC
8F8C
9DCC
9DCC
DDD8
C718
6030
38E0
0F80
ENDCHAR
STARTCHAR 2468
ENCODING 9320
SWIDTH 1008 0
DWIDTH 14 0
BBX 14 14 0 -2
BITMAP
0F80
38E0
6730
DDD8
DDD8
9DCC
87CC
81CC
9DCC
DD98
C718
6030
38E0
0F80
ENDCHAR
STARTCHAR 2469
ENCODING 9321
SWIDTH 1008 0
DWIDTH 14 0
BBX 14 14 0 -2
BITMAP
0F80
38E0
6BB0
DB68
FAE8
9AEC
9AEC
9AEC
9AEC
DB68
FD98
6030
38E0
0F80
ENDCHAR
STARTCHAR 246A
ENCODING 9322
SWIDTH 1008 0
DWIDTH 14 0
BBX 14 14 0 -2
BITMAP
0F80
38E0
68D0
D9D8
FBD8
98CC
98CC
98CC
98CC
D8D8
FDE8
6030
38E0
0F80
ENDCHAR
STARTCHAR 246B
ENCODING 9323
SWIDTH 1008 0
DWIDTH 14 0
BBX 14 14 0 -2
BITMAP
0F80
38E0
69D0
DB68
FB68
98EC
98CC
998C
9B34
DBE8
FFE8
6030
38E0
0F80
ENDCHAR
STARTCHAR 246C
ENCODING 9324
SWIDTH 1008 0
DWIDTH 14 0
BBX 14 14 0 -2
BITMAP
0F80
38E0
69D0
DB68
FB68
98EC
99CC
98EC
9B6C
DB68
FDD8
6030
38E0
0F80
ENDCHAR
STARTCHAR 246D
ENCODING 9325
SWIDTH 1008 0
DWIDTH 14 0
BBX 14 14 0 -2
BITMAP
0F80
38E0
69D0
DB68
FB68
9AEC
9AEC
9BF4
98EC
D8E8
FDE8
6030
38E0
0F80
ENDCHAR
STARTCHAR 246E
ENCODING 9326
SWIDTH 1008 0
DWIDTH 14 0
BBX 14 14 0 -2
BITMAP
0F80
38E0
6BF0
DBD8
FA18
9BCC
98EC
98EC
9B6C
DB68
FDD8
6030
38E0
0F80
ENDCHAR
STARTCHAR 246F
ENCODING 9327
SWIDTH 1008 0
DWIDTH 14 0
BBX 14 14 0 -2
BITMAP
0F80
38E0
69D0
DB68
FB68
9B0C
9BCC
9B6C
9B6C
DB68
FDD8
6030
38E0
0F80
ENDCHAR
STARTCHAR 2470
ENCODING 9328
SWIDTH 1008 0
DWIDTH 14 0
BBX 14 14 0 -2
BITMAP
0F80
38E0
6BF0
DBD8
FCD8
998C
998C
9B8C
9B8C
DB98
FD98
6030
38E0
0F80
ENDCHAR
STARTCHAR 2471
ENCODING 9329
SWIDTH 1008 0
DWIDTH 14 0
BBX 14 14 0 -2
BITMAP
0F80
38E0
69B0
DB68
FB68
9B6C
9BCC
9B6C
9B6C
DB68
FD98
6030
38E0
0F80
ENDCHAR
STARTCHAR 2472
ENCODING 9330
SWIDTH 1008 0
DWIDTH 14 0
BBX 14 14 0 -2
BITMAP
0F80
38E0
6BB0
DB68
FB68
9B6C
9BEC
98EC
9B6C
DB68
FD98
6030
38E0
0F80
ENDCHAR
STARTCHAR 2473
ENCODING 9331
SWIDTH 1008 0
DWIDTH 14 0
BBX 14 14 0 -2
BITMAP
0F80
38E0
6DD0
F768
F768
B56C
8D6C
9B6C
B36C
DF68
FDD8
6030
38E0
0F80
ENDCHAR
STARTCHAR 24D0
ENCODING 9424
SWIDTH 1008 0
DWIDTH 14 0
BBX 14 14 0 -2
BITMAP
0F80
38E0
6030
C018
DF98
B9CC
81CC
9FCC
B9CC
D9D8
DF68
6030
38E0
0F80
ENDCHAR
STARTCHAR 24D1
ENCODING 9425
SWIDTH 1008 0
DWIDTH 14 0
BBX 14 14 0 -2
BITMAP
0F80
38E0
7C30
DC18
DD98
9ECC
9CEC
9CEC
9CEC
DED8
DD98
6030
38E0
0F80
ENDCHAR
STARTCHAR 24D2
ENCODING 9426
SWIDTH 1008 0
DWIDTH 14 0
BBX 14 14 0 -2
BITMAP
0F80
38E0
6030
C018
C798
9CEC
B86C
B80C
B86C
DCE8
C798
6030
38E0
0F80
ENDCHAR
STARTCHAR 24D3
ENCODING 9427
SWIDTH 1008 0
DWIDTH 14 0
BBX 14 14 0 -2
BITMAP
0F80
38E0
63D0
C1D8
CED8
9BCC
B9CC
B9CC
B9CC
DBD8
CEE8
6030
38E0
0F80
ENDCHAR
STARTCHAR 24D4
ENCODING 9428
SWIDTH 1008 0
DWIDTH 14 0
BBX 14 14 0 -2
BITMAP
0F80
38E0
6030
C018
CF98
98CC
B8EC
BFEC
B80C
DC68
C7D8
6030
38E0
0F80
ENDCHAR
STARTCHAR 24D5
ENCODING 9429
SWIDTH 1008 0
DWIDTH 14 0
BBX 14 14 0 -2
BITMAP
0F80
38E0
67B0
CED8
CE18
9F8C
8E0C
8E0C
8E0C
CE18
DF98
6030
38E0
0F80
ENDCHAR
STARTCHAR 24D6
ENCODING 9430
SWIDTH 1008 0
DWIDTH 14 0
BBX 14 14 0 -2
BITMAP
0F80
38E0
6030
C0D8
CF98
9B8C
9B0C
8E0C
9F8C
DBD8
D9D8
6FB0
38E0
0F80
ENDCHAR
STARTCHAR 24D7
ENCODING 9431
SWIDTH 1008 0
DWIDTH 14 0
BBX 14 14 0 -2
BITMAP
0F80
38E0
7C30
DC18
DD98
9ECC
9DCC
9DCC
9DCC
DDD8
DDE8
6030
38E0
0F80
ENDCHAR
STARTCHAR 24D8
ENCODING 9432
SWIDTH 1008 0
DWIDTH 14 0
BBX 14 14 0 -2
BITMAP
0F80
38E0
6730
C718
C018
9F0C
870C
870C
870C
C718
DFD8
6030
38E0
0F80
ENDCHAR
STARTCHAR 24D9
ENCODING 9433
SWIDTH 1008 0
DWIDTH 14 0
BBX 14 14 0 -2
BITMAP
0F80
38E0
63B0
C398
C018
8F8C
838C
838C
838C
DB98
DB18
6E30
38E0
0F80
ENDCHAR
STARTCHAR 24DA
ENCODING 9434
SWIDTH 1008 0
DWIDTH 14 0
BBX 14 14 0 -2
BITMAP
0F80
38E0
7C30
DC18
DDD8
9D8C
9D0C
9F0C
9D8C
DDD8
DEE8
6030
38E0
0F80
ENDCHAR
STARTCHAR 24DB
ENCODING 9435
SWIDTH 1008 0
DWIDTH 14 0
BBX 14 14 0 -2
BITMAP
0F80
38E0
6F30
C718
C718
870C
870C
870C
870C
C718
DFD8
6030
38E0
0F80
ENDCHAR
STARTCHAR 24DC
ENCODING 9436
SWIDTH 1008 0
DWIDTH 14 0
BBX 14 14 0 -2
BITMAP
0F80
38E0
6030
C018
DB58
BFEC
BB6C
BB6C
BB6C
DB68
DB68
6030
38E0
0F80
ENDCHAR
STARTCHAR 24DD
ENCODING 9437
SWIDTH 1008 0
DWIDTH 14 0
BBX 14 14 0 -2
BITMAP
0F80
38E0
6030
C018
DD18
9E8C
9DCC
9DCC
9DCC
DDD8
DDE8
6030
38E0
0F80
ENDCHAR
STARTCHAR 24DE
ENCODING 9438
SWIDTH 1008 0
DWIDTH 14 0
BBX 14 14 0 -2
BITMAP
0F80
38E0
6030
C018
CF98
98CC
B8EC
B8EC
B8EC
D8D8
CF98
6030
38E0
0F80
ENDCHAR
STARTCHAR 24DF
ENCODING 9439
SWIDTH 1008 0
DWIDTH 14 0
BBX 14 14 0 -2
BITMAP
0F80
38E0
6030
C018
DD98
9ECC
9CEC
9CEC
9ECC
DD98
DC18
7E30
38E0
0F80
ENDCHAR
STARTCHAR 24E0
ENCODING 9440
SWIDTH 1008 0
DWIDTH 14 0
BBX 14 14 0 -2
BITMAP
0F80
38E0
6030
C018
CEE8
9BCC
B9CC
B9CC
9BCC
CED8
C1D8
63F0
38E0
0F80
ENDCHAR
STARTCHAR 24E1
ENCODING 9441
SWIDTH 1008 0
DWIDTH 14 0
BBX 14 14 0 -2
BITMAP
0F80
38E0
6030
C018
DDD8
9EEC
9CEC
9C0C
9C0C
DC18
DE18
6030
38E0
0F80
ENDCHAR
STARTCHAR 24E2
ENCODING 9442
SWIDTH 1008 0
DWIDTH 14 0
BBX 14 14 0 -2
BITMAP
0F80
38E0
6030
C018
DFD8
B8CC
BE0C
9F8C
B3EC
D8E8
D7D8
6030
38E0
0F80
ENDCHAR
STARTCHAR 24E3
ENCODING 9443
SWIDTH 1008 0
DWIDTH 14 0
BBX 14 14 0 -2
BITMAP
0F80
38E0
6630
CE18
DFD8
8E0C
8E0C
8E0C
8E0C
CED8
C798
6030
38E0
0F80
ENDCHAR
STARTCHAR 24E4
ENCODING 9444
SWIDTH 1008 0
DWIDTH 14 0
BBX 14 14 0 -2
BITMAP
0F80
38E0
6030
C018
DDE8
9CEC
9CEC
9CEC
9CEC
DDE8
CF68
6030
38E0
0F80
ENDCHAR
STARTCHAR 24E5
ENCODING 9445
SWIDTH 1008 0
DWIDTH 14 0
BBX 14 14 0 -2
BITMAP
0F80
38E0
6030
C018
FDE8
B8CC
9CCC
9D8C
8E8C
CF18
C718
6030
38E0
0F80
ENDCHAR
STARTCHAR 24E6
ENCODING 9446
SWIDTH 1008 0
DWIDTH 14 0
BBX 14 14 0 -2
BITMAP
0F80
38E0
6030
C018
FB78
B76C
B7AC
BBAC
BDCC
DDD8
DDD8
6030
38E0
0F80
ENDCHAR
STARTCHAR 24E7
ENCODING 9447
SWIDTH 1008 0
DWIDTH 14 0
BBX 14 14 0 -2
BITMAP
0F80
38E0
6030
C018
DDE8
9ECC
8E8C
870C
8D8C
DBD8
DDE8
6030
38E0
0F80
ENDCHAR
STARTCHAR 24E8
ENCODING 9448
SWIDTH 1008 0
DWIDTH 14 0
BBX 14 14 0 -2
BITMAP
0F80
38E0
6030
C018
DEE8
9CCC
8ECC
8E8C
878C
C318
DD18
6E30
38E0
0F80
ENDCHAR
STARTCHAR 24E9
ENCODING 9449
SWIDTH 1008 0
DWIDTH 14 0
BBX 14 14 0 -2
BITMAP
0F80
38E0
6030
C018
DFE8
B1CC
878C
8F0C
9E0C
D868
DFE8
6030
38E0
0F80
ENDCHAR
STARTCHAR 24EB
ENCODING 9451
SWIDTH 1008 0
DWIDTH 14 0
BBX 14 14 0 -2
BITMAP
0F80
3FE0
77B0
EF78
CE78
EF7C
EF7C
EF7C
EF7C
EF78
EF78
6630
3FE0
0F80
ENDCHAR
STARTCHAR 24EC
ENCODING 9452
SWIDTH 1008 0
DWIDTH 14 0
BBX 14 14 0 -2
BITMAP
0F80
3FE0
7630
EDD8
CDD8
EFDC
EFBC
EF7C
EF7C
EEF8
EE18
6030
3FE0
0F80
ENDCHAR
STARTCHAR 24ED
ENCODING 9453
SWIDTH 1008 0
DWIDTH 14 0
BBX 14 14 0 -2
BITMAP
0F80
3FE0
7630
EDD8
CDD8
EFDC
EF3C
EFDC
EDDC
EDD8
EDD8
6630
3FE0
0F80
ENDCHAR
STARTCHAR 24EE
ENCODING 9454
SWIDTH 1008 0
DWIDTH 14 0
BBX 14 14 0 -2
BITMAP
0F80
3FE0
77B0
EF38
CE38
EEBC
EDBC
EDBC
EC1C
EFB8
EFB8
6730
3FE0
0F80
ENDCHAR
STARTCHAR 24EF
ENCODING 9455
SWIDTH 1008 0
DWIDTH 14 0
BBX 14 14 0 -2
BITMAP
0F80
3FE0
7630
EE38
CEF8
EEFC
EE3C
EFDC
EFDC
EDD8
EDD8
6630
3FE0
0F80
ENDCHAR
STARTCHAR 24F0
ENCODING 9456
SWIDTH 1008 0
DWIDTH 14 0
BBX 14 14 0 -2
BITMAP
0F80
3FE0
7630
EDD8
CDD8
EDFC
EC3C
EDDC
EDDC
EDD8
EDD8
6630
3FE0
0F80
ENDCHAR
STARTCHAR 24F1
ENCODING 9457
SWIDTH 1008 0
DWIDTH 14 0
BBX 14 14 0 -2
BITMAP
0F80
3FE0
7630
EE18
CDD8
EFDC
EFBC
EFBC
EF7C
EF78
EF78
6770
3FE0
0F80
ENDCHAR
STARTCHAR 24F2
ENCODING 9458
SWIDTH 1008 0
DWIDTH 14 0
BBX 14 14 0 -2
BITMAP
0F80
3FE0
7630
EDD8
CDE8
ECEC
EE3C
ED9C
EDDC
EDD8
EDD8
6630
3FE0
0F80
ENDCHAR
STARTCHAR 24F3
ENCODING 9459
SWIDTH 1008 0
DWIDTH 14 0
BBX 14 14 0 -2
BITMAP
0F80
3FE0
7630
EDD8
CDD8
EDDC
EDDC
EE1C
EFDC
EDD8
EDD8
6630
3FE0
0F80
ENDCHAR
STARTCHAR 24F4
ENCODING 9460
SWIDTH 1008 0
DWIDTH 14 0
BBX 14 14 0 -2
BITMAP
0F80
3FE0
6730
DAD8
D8D8
F8DC
F6DC
F6DC
EEDC
DED8
C0D8
6330
3FE0
0F80
ENDCHAR
STARTCHAR 24F5
ENCODING 9461
SWIDTH 1008 0
DWIDTH 14 0
BBX 14 14 0 -2
BITMAP
0F80
38E0
6FB0
D8E8
D368
AF34
A334
A334
A334
D368
D8E8
6FB0
38E0
0F80
ENDCHAR
STARTCHAR 24F6
ENCODING 9462
SWIDTH 1008 0
DWIDTH 14 0
BBX 14 14 0 -2
BITMAP
0F80
38E0
6FB0
D8E8
D768
ADB4
A1B4
A734
AC34
D7A8
D8E8
6FB0
38E0
0F80
ENDCHAR
STARTCHAR 24F7
ENCODING 9463
SWIDTH 1008 0
DWIDTH 14 0
BBX 14 14 0 -2
BITMAP
0F80
38E0
6FB0
D8E8
D768
ADB4
A734
A1B4
ADB4
D768
D8E8
6FB0
38E0
0F80
ENDCHAR
STARTCHAR 24F8
ENCODING 9464
SWIDTH 1008 0
DWIDTH 14 0
BBX 14 14 0 -2
BITMAP
0F80
38E0
6FB0
D8E8
D368
A734
AD34
AD34
AFB4
D368
D8E8
6FB0
38E0
0F80
ENDCHAR
STARTCHAR 24F9
ENCODING 9465
SWIDTH 1008 0
DWIDTH 14 0
BBX 14 14 0 -2
BITMAP
0F80
38E0
6FB0
D8E8
D7A8
AC34
AF34
A1B4
ADB4
D768
D8E8
6FB0
38E0
0F80
ENDCHAR
STARTCHAR 24FA
ENCODING 9466
SWIDTH 1008 0
DWIDTH 14 0
BBX 14 14 0 -2
BITMAP
0F80
38E0
6FB0
D8E8
D768
ADB4
AF34
ADB4
ADB4
D768
D8E8
6FB0
38E0
0F80
ENDCHAR
STARTCHAR 24FB
ENCODING 9467
SWIDTH 1008 0
DWIDTH 14 0
BBX 14 14 0 -2
BITMAP
0F80
38E0
6FB0
D8E8
D7A8
A1B4
A334
A634
A634
D668
D8E8
6FB0
38E0
0F80
ENDCHAR
STARTCHAR 24FC
ENCODING 9468
SWIDTH 1008 0
DWIDTH 14 0
BBX 14 14 0 -2
BITMAP
0F80
38E0
6FB0
D8E8
D768
ADB4
A734
ADB4
ADB4
D768
D8E8
6FB0
38E0
0F80
ENDCHAR
STARTCHAR 24FD
ENCODING 9469
SWIDTH 1008 0
DWIDTH 14 0
BBX 14 14 0 -2
BITMAP
0F80
38E0
6FB0
D8E8
D768
ADB4
ADB4
A7B4
ADB4
D768
D8E8
6FB0
38E0
0F80
ENDCHAR
STARTCHAR 24FE
ENCODING 9470
SWIDTH 1008 0
DWIDTH 14 0
BBX 14 14 0 -2
BITMAP
0F80
38E0
6FB0
D8E8
D5A8
AD54
AD54
AD54
AD54
D5A8
D8E8
6FB0
38E0
0F80
ENDCHAR
STARTCHAR 2500
ENCODING 9472
SWIDTH 1008 0
DWIDTH 14 0
BBX 14 1 0 5
BITMAP
FFFC
ENDCHAR
STARTCHAR 2501
ENCODING 9473
SWIDTH 1008 0
DWIDTH 14 0
BBX 14 2 0 4
BITMAP
FFFC
FFFC
ENDCHAR
STARTCHAR 2502
ENCODING 9474
SWIDTH 1008 0
DWIDTH 14 0
BBX 2 14 6 -2
BITMAP
C0
C0
C0
C0
C0
C0
C0
C0
C0
C0
C0
C0
C0
C0
ENDCHAR
STARTCHAR 2503
ENCODING 9475
SWIDTH 1008 0
DWIDTH 14 0
BBX 3 14 5 -2
BITMAP
E0
E0
E0
E0
E0
E0
E0
E0
E0
E0
E0
E0
E0
E0
ENDCHAR
STARTCHAR 250C
ENCODING 9484
SWIDTH 1008 0
DWIDTH 14 0
BBX 8 7 6 5
BITMAP
FF
C0
C0
C0
C0
C0
C0
ENDCHAR
STARTCHAR 250F
ENCODING 9487
SWIDTH 1008 0
DWIDTH 14 0
BBX 9 8 5 4
BITMAP
FF80
FF80
E000
E000
E000
E000
E000
E000
ENDCHAR
STARTCHAR 2510
ENCODING 9488
SWIDTH 1008 0
DWIDTH 14 0
BBX 8 7 0 5
BITMAP
FF
03
03
03
03
03
03
ENDCHAR
STARTCHAR 2513
ENCODING 9491
SWIDTH 1008 0
DWIDTH 14 0
BBX 8 8 0 4
BITMAP
FF
FF
07
07
07
07
07
07
ENDCHAR
STARTCHAR 2514
ENCODING 9492
SWIDTH 1008 0
DWIDTH 14 0
BBX 8 8 6 -2
BITMAP
C0
C0
C0
C0
C0
C0
C0
FF
ENDCHAR
STARTCHAR 2517
ENCODING 9495
SWIDTH 1008 0
DWIDTH 14 0
BBX 9 8 5 -2
BITMAP
E000
E000
E000
E000
E000
E000
FF80
FF80
ENDCHAR
STARTCHAR 2518
ENCODING 9496
SWIDTH 1008 0
DWIDTH 14 0
BBX 8 8 0 -2
BITMAP
03
03
03
03
03
03
03
FF
ENDCHAR
STARTCHAR 251B
ENCODING 9499
SWIDTH 1008 0
DWIDTH 14 0
BBX 8 8 0 -2
BITMAP
07
07
07
07
07
07
FF
FF
ENDCHAR
STARTCHAR 251C
ENCODING 9500
SWIDTH 1008 0
DWIDTH 14 0
BBX 8 14 6 -2
BITMAP
C0
C0
C0
C0
C0
C0
C0
FF
C0
C0
C0
C0
C0
C0
ENDCHAR
STARTCHAR 251D
ENCODING 9501
SWIDTH 1008 0
DWIDTH 14 0
BBX 8 14 6 -2
BITMAP
C0
C0
C0
C0
C0
C0
FF
FF
C0
C0
C0
C0
C0
C0
ENDCHAR
STARTCHAR 2520
ENCODING 9504
SWIDTH 1008 0
DWIDTH 14 0
BBX 9 14 5 -2
BITMAP
E000
E000
E000
E000
E000
E000
E000
FF80
E000
E000
E000
E000
E000
E000
ENDCHAR
STARTCHAR 2523
ENCODING 9507
SWIDTH 1008 0
DWIDTH 14 0
BBX 9 14 5 -2
BITMAP
E000
E000
E000
E000
E000
E000
FF80
FF80
E000
E000
E000
E000
E000
E000
ENDCHAR
STARTCHAR 2524
ENCODING 9508
SWIDTH 1008 0
DWIDTH 14 0
BBX 8 14 0 -2
BITMAP
03
03
03
03
03
03
03
FF
03
03
03
03
03
03
ENDCHAR
STARTCHAR 2525
ENCODING 9509
SWIDTH 1008 0
DWIDTH 14 0
BBX 8 14 0 -2
BITMAP
03
03
03
03
03
03
FF
FF
03
03
03
03
03
03
ENDCHAR
STARTCHAR 2528
ENCODING 9512
SWIDTH 1008 0
DWIDTH 14 0
BBX 8 14 0 -2
BITMAP
07
07
07
07
07
07
07
FF
07
07
07
07
07
07
ENDCHAR
STARTCHAR 252B
ENCODING 9515
SWIDTH 1008 0
DWIDTH 14 0
BBX 8 14 0 -2
BITMAP
07
07
07
07
07
07
FF
FF
07
07
07
07
07
07
ENDCHAR
STARTCHAR 252C
ENCODING 9516
SWIDTH 1008 0
DWIDTH 14 0
BBX 14 7 0 5
BITMAP
FFFC
0300
0300
0300
0300
0300
0300
ENDCHAR
STARTCHAR 252F
ENCODING 9519
SWIDTH 1008 0
DWIDTH 14 0
BBX 14 8 0 4
BITMAP
FFFC
FFFC
0300
0300
0300
0300
0300
0300
ENDCHAR
STARTCHAR 2530
ENCODING 9520
SWIDTH 1008 0
DWIDTH 14 0
BBX 14 7 0 5
BITMAP
FFFC
0700
0700
0700
0700
0700
0700
ENDCHAR
STARTCHAR 2533
ENCODING 9523
SWIDTH 1008 0
DWIDTH 14 0
BBX 14 8 0 4
BITMAP
FFFC
FFFC
0700
0700
0700
0700
0700
0700
ENDCHAR
STARTCHAR 2534
ENCODING 9524
SWIDTH 1008 0
DWIDTH 14 0
BBX 14 8 0 -2
BITMAP
0300
0300
0300
0300
0300
0300
0300
FFFC
ENDCHAR
STARTCHAR 2537
ENCODING 9527
SWIDTH 1008 0
DWIDTH 14 0
BBX 14 8 0 -2
BITMAP
0300
0300
0300
0300
0300
0300
FFFC
FFFC
ENDCHAR
STARTCHAR 2538
ENCODING 9528
SWIDTH 1008 0
DWIDTH 14 0
BBX 14 8 0 -2
BITMAP
0700
0700
0700
0700
0700
0700
0700
FFFC
ENDCHAR
STARTCHAR 253B
ENCODING 9531
SWIDTH 1008 0
DWIDTH 14 0
BBX 14 8 0 -2
BITMAP
0700
0700
0700
0700
0700
0700
FFFC
FFFC
ENDCHAR
STARTCHAR 253C
ENCODING 9532
SWIDTH 1008 0
DWIDTH 14 0
BBX 14 14 0 -2
BITMAP
0300
0300
0300
0300
0300
0300
0300
FFFC
0300
0300
0300
0300
0300
0300
ENDCHAR
STARTCHAR 253F
ENCODING 9535
SWIDTH 1008 0
DWIDTH 14 0
BBX 14 14 0 -2
BITMAP
0300
0300
0300
0300
0300
0300
FFFC
FFFC
0300
0300
0300
0300
0300
0300
ENDCHAR
STARTCHAR 2542
ENCODING 9538
SWIDTH 1008 0
DWIDTH 14 0
BBX 14 14 0 -2
BITMAP
0700
0700
0700
0700
0700
0700
0700
FFFC
0700
0700
0700
0700
0700
0700
ENDCHAR
STARTCHAR 254B
ENCODING 9547
SWIDTH 1008 0
DWIDTH 14 0
BBX 14 14 0 -2
BITMAP
0700
0700
0700
0700
0700
0700
FFFC
FFFC
0700
0700
0700
0700
0700
0700
ENDCHAR
STARTCHAR 25A0
ENCODING 9632
SWIDTH 1008 0
DWIDTH 14 0
BBX 13 12 0 -1
BITMAP
FFF8
FFF8
FFF8
FFF8
FFF8
FFF8
FFF8
FFF8
FFF8
FFF8
FFF8
FFF8
ENDCHAR
STARTCHAR 25A1
ENCODING 9633
SWIDTH 1008 0
DWIDTH 14 0
BBX 13 12 0 -1
BITMAP
FFF8
C018
C018
C018
C018
C018
C018
C018
C018
C018
C018
FFF8
ENDCHAR
STARTCHAR 25B1
ENCODING 9649
SWIDTH 1008 0
DWIDTH 14 0
BBX 14 8 0 1
BITMAP
1FFC
3018
3018
6030
6030
C060
C060
FFC0
ENDCHAR
STARTCHAR 25B2
ENCODING 9650
SWIDTH 1008 0
DWIDTH 14 0
BBX 12 11 1 -1
BITMAP
0600
0600
0F00
0F00
1F80
1F80
3FC0
3FC0
7FE0
7FE0
FFF0
ENDCHAR
STARTCHAR 25B3
ENCODING 9651
SWIDTH 1008 0
DWIDTH 14 0
BBX 12 11 1 -1
BITMAP
0600
0600
0D00
0D00
1980
1980
30C0
30C0
6060
6060
FFF0
ENDCHAR
STARTCHAR 25B6
ENCODING 9654
SWIDTH 1008 0
DWIDTH 14 0
BBX 12 11 1 -1
BITMAP
C000
F000
FC00
FF00
FFC0
FFF0
FFC0
FF00
FC00
F000
C000
ENDCHAR
STARTCHAR 25B7
ENCODING 9655
SWIDTH 1008 0
DWIDTH 14 0
BBX 12 11 1 -1
BITMAP
C000
F000
DC00
C700
C1C0
C070
C1C0
C700
DC00
F000
C000
ENDCHAR
STARTCHAR 25BC
ENCODING 9660
SWIDTH 1008 0
DWIDTH 14 0
BBX 12 11 1 -1
BITMAP
FFF0
7FE0
7FE0
3FC0
3FC0
1F80
1F80
0F00
0F00
0600
0600
ENDCHAR
STARTCHAR 25BD
ENCODING 9661
SWIDTH 1008 0
DWIDTH 14 0
BBX 12 11 1 -1
BITMAP
FFF0
6060
6060
30C0
30C0
1980
1980
0D00
0D00
0600
0600
ENDCHAR
STARTCHAR 25C0
ENCODING 9664
SWIDTH 1008 0
DWIDTH 14 0
BBX 12 11 1 -1
BITMAP
0030
00F0
03F0
0FF0
3FF0
FFF0
3FF0
0FF0
03F0
00F0
0030
ENDCHAR
STARTCHAR 25C1
ENCODING 9665
SWIDTH 1008 0
DWIDTH 14 0
BBX 12 11 1 -1
BITMAP
0030
00F0
03B0
0E30
3830
E030
3830
0E30
03B0
00F0
0030
ENDCHAR
STARTCHAR 25C6
ENCODING 9670
SWIDTH 1008 0
DWIDTH 14 0
BBX 14 13 0 -1
BITMAP
0300
0780
0FC0
1FE0
3FF0
7FF8
FFFC
7FF8
3FF0
1FE0
0FC0
0780
0300
ENDCHAR
STARTCHAR 25C7
ENCODING 9671
SWIDTH 1008 0
DWIDTH 14 0
BBX 14 13 0 -1
BITMAP
0300
0680
0CC0
1860
3030
6018
C00C
6018
3030
1860
0CC0
0680
0300
ENDCHAR
STARTCHAR 25C9
ENCODING 9673
SWIDTH 1008 0
DWIDTH 14 0
BBX 14 13 0 -1
BITMAP
0FC0
3870
6798
6FE8
DFEC
DFF4
DFF4
DFF4
DFEC
6FE8
6798
3870
0FC0
ENDCHAR
STARTCHAR 25CB
ENCODING 9675
SWIDTH 1008 0
DWIDTH 14 0
BBX 12 11 1 0
BITMAP
0F00
39C0
6060
6060
C030
C030
C030
6060
6060
39C0
0F00
ENDCHAR
STARTCHAR 25CE
ENCODING 9678
SWIDTH 1008 0
DWIDTH 14 0
BBX 12 11 1 0
BITMAP
0F00
39C0
6F60
69A0
D0D0
D0D0
D0D0
69A0
6F60
39C0
0F00
ENDCHAR
STARTCHAR 25CF
ENCODING 9679
SWIDTH 1008 0
DWIDTH 14 0
BBX 12 11 1 0
BITMAP
0F00
3FC0
7FE0
7FE0
FFF0
FFF0
FFF0
7FE0
7FE0
3FC0
0F00
ENDCHAR
STARTCHAR 25D0
ENCODING 9680
SWIDTH 1008 0
DWIDTH 14 0
BBX 13 12 0 -1
BITMAP
0F80
3EE0
7E30
7E30
FE18
FE18
FE18
FE18
7E30
7E30
3EE0
0F80
ENDCHAR
STARTCHAR 25D1
ENCODING 9681
SWIDTH 1008 0
DWIDTH 14 0
BBX 13 12 0 -1
BITMAP
0F80
3BE0
63F0
63F0
C3F8
C3F8
C3F8
C3F8
63F0
63F0
3DE0
0F80
ENDCHAR
STARTCHAR 25D2
ENCODING 9682
SWIDTH 1008 0
DWIDTH 14 0
BBX 13 12 0 -1
BITMAP
0F80
38E0
6030
6030
C018
C018
FFF8
FFF8
7FF0
7FF0
3FE0
0F80
ENDCHAR
STARTCHAR 25D3
ENCODING 9683
SWIDTH 1008 0
DWIDTH 14 0
BBX 13 12 0 -1
BITMAP
0F80
3FE0
7FF0
7FF0
FFF8
FFF8
C018
C018
6030
6030
38E0
0F80
ENDCHAR
STARTCHAR 25E6
ENCODING 9702
SWIDTH 1008 0
DWIDTH 14 0
BBX 6 5 4 3
BITMAP
78
CC
CC
CC
78
ENDCHAR
STARTCHAR 25EF
ENCODING 9711
SWIDTH 1008 0
DWIDTH 14 0
BBX 14 13 0 -1
BITMAP
0FC0
3870
6018
6018
C00C
C00C
C00C
C00C
C00C
6018
6018
3870
0FC0
ENDCHAR
STARTCHAR 2600
ENCODING 9728
SWIDTH 1008 0
DWIDTH 14 0
BBX 13 13 0 -2
BITMAP
0600
C630
6060
0000
0F00
1F80
DFB8
1F80
0F00
0000
6060
C630
0600
ENDCHAR
STARTCHAR 2601
ENCODING 9729
SWIDTH 1008 0
DWIDTH 14 0
BBX 13 9 0 0
BITMAP
0E00
1F60
1FF0
77E0
FFD0
FFF8
FFF8
7BF0
03E0
ENDCHAR
STARTCHAR 2602
ENCODING 9730
SWIDTH 1008 0
DWIDTH 14 0
BBX 13 14 0 -2
BITMAP
0600
0600
1F80
7FE0
FFF0
FFF0
DAD8
B698
0600
0600
0600
3600
1A00
0E00
ENDCHAR
STARTCHAR 2603
ENCODING 9731
SWIDTH 1008 0
DWIDTH 14 0
BBX 14 14 0 -2
BITMAP
06E0
61F4
9FF0
3060
6ED0
AED4
D018
66B0
C318
C00C
C30C
6018
B330
1FE0
ENDCHAR
STARTCHAR 2605
ENCODING 9733
SWIDTH 1008 0
DWIDTH 14 0
BBX 14 12 0 -1
BITMAP
0300
0300
0780
0780
FFFC
7FF8
1FE0
0FC0
1FE0
1EE0
3CF0
3030
ENDCHAR
STARTCHAR 2606
ENCODING 9734
SWIDTH 1008 0
DWIDTH 14 0
BBX 14 12 0 -1
BITMAP
0300
0300
0680
0680
FCFC
7038
1CE0
0CC0
1B60
1AA0
3CF0
3030
ENDCHAR
STARTCHAR 260E
ENCODING 9742
SWIDTH 1008 0
DWIDTH 14 0
BBX 13 10 0 0
BITMAP
7FF0
EDB8
EDB8
1FC0
7DF0
78F0
78F0
FDF8
FFF8
FFF8
ENDCHAR
STARTCHAR 2616
ENCODING 9750
SWIDTH 1008 0
DWIDTH 14 0
BBX 14 12 0 -1
BITMAP
0300
0EC0
3870
3030
3030
6018
6018
6018
6018
C00C
C00C
FFFC
ENDCHAR
STARTCHAR 2617
ENCODING 9751
SWIDTH 1008 0
DWIDTH 14 0
BBX 14 12 0 -1
BITMAP
0300
0FC0
3FF0
3FF0
3FF0
7FF8
7FF8
7FF8
7FF8
FFFC
FFFC
FFFC
ENDCHAR
STARTCHAR 261E
ENCODING 9758
SWIDTH 1008 0
DWIDTH 14 0
BBX 14 10 0 0
BITMAP
0FF8
DB0C
F3F8
C6C0
CD80
F8C0
C380
F0C0
DB80
0F00
ENDCHAR
STARTCHAR 2640
ENCODING 9792
SWIDTH 1008 0
DWIDTH 14 0
BBX 10 13 2 -1
BITMAP
1E00
3300
6180
6180
6180
3300
1E00
0C00
0C00
FFC0
0C00
0C00
0C00
ENDCHAR
STARTCHAR 2642
ENCODING 9794
SWIDTH 1008 0
DWIDTH 14 0
BBX 13 12 0 -1
BITMAP
07F8
0038
0068
00D8
0198
3D18
6618
C300
C300
C300
6600
3C00
ENDCHAR
STARTCHAR 2660
ENCODING 9824
SWIDTH 1008 0
DWIDTH 14 0
BBX 12 11 0 -1
BITMAP
0600
0F00
1F80
3FC0
7FE0
FFF0
FFF0
FFF0
7AE0
0600
0F00
ENDCHAR
STARTCHAR 2661
ENCODING 9825
SWIDTH 1008 0
DWIDTH 14 0
BBX 12 11 0 -1
BITMAP
79E0
ED70
C630
C630
C030
E070
6060
39C0
1980
0F00
0600
ENDCHAR
STARTCHAR 2662
ENCODING 9826
SWIDTH 1008 0
DWIDTH 14 0
BBX 12 11 0 -1
BITMAP
0600
0D00
1D80
30C0
70E0
E070
70E0
30C0
1D80
0D00
0600
ENDCHAR
STARTCHAR 2663
ENCODING 9827
SWIDTH 1008 0
DWIDTH 14 0
BBX 12 11 0 -1
BITMAP
0F00
1F80
1F80
3740
7FE0
FFF0
FFF0
FFF0
7AE0
0600
0F00
ENDCHAR
STARTCHAR 2664
ENCODING 9828
SWIDTH 1008 0
DWIDTH 14 0
BBX 12 11 0 -1
BITMAP
0600
0F00
1D80
39C0
70E0
E070
C030
EF70
7AE0
0600
0F00
ENDCHAR
STARTCHAR 2665
ENCODING 9829
SWIDTH 1008 0
DWIDTH 14 0
BBX 12 11 0 -1
BITMAP
79E0
FDF0
FDF0
FFF0
FFF0
FFF0
7FE0
3FC0
1F80
0F00
0600
ENDCHAR
STARTCHAR 2666
ENCODING 9830
SWIDTH 1008 0
DWIDTH 14 0
BBX 12 11 0 -1
BITMAP
0600
0F00
1F80
3FC0
7FE0
FFF0
7FE0
3FC0
1F80
0F00
0600
ENDCHAR
STARTCHAR 2667
ENCODING 9831
SWIDTH 1008 0
DWIDTH 14 0
BBX 12 11 0 -1
BITMAP
0F00
1980
1980
3540
79E0
C030
C030
EF70
7AE0
0600
0F00
ENDCHAR
STARTCHAR 2668
ENCODING 9832
SWIDTH 1008 0
DWIDTH 14 0
BBX 13 12 0 -1
BITMAP
0300
1B60
1A60
36C0
36C0
1B60
6B70
DB68
D6D8
C618
7070
1FC0
ENDCHAR
STARTCHAR 2669
ENCODING 9833
SWIDTH 1008 0
DWIDTH 14 0
BBX 5 13 3 -2
BITMAP
18
18
18
18
18
18
18
18
18
78
F8
F8
70
ENDCHAR
STARTCHAR 266A
ENCODING 9834
SWIDTH 1008 0
DWIDTH 14 0
BBX 9 13 3 -2
BITMAP
1800
1C00
1E00
1B00
1B00
1B80
1980
1980
1980
7B00
F800
F800
7000
ENDCHAR
STARTCHAR 266B
ENCODING 9835
SWIDTH 1008 0
DWIDTH 14 0
BBX 12 14 0 -2
BITMAP
1F00
1FF0
19F0
1830
1830
1830
1830
1830
1830
7830
F8F0
F1F0
E1E0
01C0
ENDCHAR
STARTCHAR 266C
ENCODING 9836
SWIDTH 1008 0
DWIDTH 14 0
BBX 12 14 0 -2
BITMAP
1F00
1FF0
19F0
1F30
1FF0
19F0
1830
1830
1830
7830
F8F0
F1F0
E1E0
01C0
ENDCHAR
STARTCHAR 266D
ENCODING 9837
SWIDTH 1008 0
DWIDTH 14 0
BBX 7 12 4 -1
BITMAP
C0
C0
C0
C0
C0
DC
EE
CE
CC
D8
D0
E0
ENDCHAR
STARTCHAR 266E
ENCODING 9838
SWIDTH 1008 0
DWIDTH 14 0
BBX 7 12 3 -1
BITMAP
C0
C6
DE
FE
F6
C6
C6
DE
FE
F6
C6
06
ENDCHAR
STARTCHAR 266F
ENCODING 9839
SWIDTH 1008 0
DWIDTH 14 0
BBX 9 13 2 -2
BITMAP
0600
3600
3780
3F80
FE00
F600
3600
3780
3F80
FE00
F600
3600
3000
ENDCHAR
STARTCHAR 2713
ENCODING 10003
SWIDTH 1008 0
DWIDTH 14 0
BBX 11 10 1 0
BITMAP
0060
00C0
0180
0300
0700
0600
EC00
7400
3800
3000
ENDCHAR
STARTCHAR 2756
ENCODING 10070
SWIDTH 1008 0
DWIDTH 14 0
BBX 14 14 0 -2
BITMAP
0300
0780
0FC0
0FC0
37B0
7B78
FCFC
FCFC
7B78
37B0
0FC0
0FC0
0780
0300
ENDCHAR
STARTCHAR 2776
ENCODING 10102
SWIDTH 1008 0
DWIDTH 14 0
BBX 14 14 0 -2
BITMAP
0F80
3FE0
7EF0
FDF8
F1F8
FDFC
FDFC
FDFC
FDFC
FDF8
FDF8
7070
3FE0
0F80
ENDCHAR
STARTCHAR 2777
ENCODING 10103
SWIDTH 1008 0
DWIDTH 14 0
BBX 14 14 0 -2
BITMAP
0F80
3FE0
70F0
EF78
EF78
FF7C
FEFC
FDFC
FBFC
F7D8
F078
6070
3FE0
0F80
ENDCHAR
STARTCHAR 2778
ENCODING 10104
SWIDTH 1008 0
DWIDTH 14 0
BBX 14 14 0 -2
BITMAP
0F80
3FE0
70F0
EF78
EF78
FF7C
FCFC
F77C
E77C
EF78
F778
78F0
3FE0
0F80
ENDCHAR
STARTCHAR 2779
ENCODING 10105
SWIDTH 1008 0
DWIDTH 14 0
BBX 14 14 0 -2
BITMAP
0F80
3FE0
7DF0
F9F8
F1F8
F5FC
EDFC
EDFC
E07C
FDF8
FDF8
78F0
3FE0
0F80
ENDCHAR
STARTCHAR 277A
ENCODING 10106
SWIDTH 1008 0
DWIDTH 14 0
BBX 14 14 0 -2
BITMAP
0F80
3FE0
7070
F0F8
F7F8
F7FC
F0FC
FF7C
FF7C
EF78
EF78
70F0
3FE0
0F80
ENDCHAR
STARTCHAR 277B
ENCODING 10107
SWIDTH 1008 0
DWIDTH 14 0
BBX 14 14 0 -2
BITMAP
0F80
3FE0
78F0
F778
EF78
EFFC
E0FC
EF7C
EF7C
EF78
EF78
70F0
3FE0
0F80
ENDCHAR
STARTCHAR 277C
ENCODING 10108
SWIDTH 1008 0
DWIDTH 14 0
BBX 14 14 0 -2
BITMAP
0F80
3FE0
7070
F0F8
EF78
FF7C
FEFC
FEFC
FDFC
FDFC
FDF8
7DF0
3FE0
0F80
ENDCHAR
STARTCHAR 277D
ENCODING 10109
SWIDTH 1008 0
DWIDTH 14 0
BBX 14 14 0 -2
BITMAP
0F80
3FE0
70F0
EF78
EF78
E77C
F0FC
EE7C
EF7C
EF78
EF78
70F0
3FE0
0F80
ENDCHAR
STARTCHAR 277E
ENCODING 10110
SWIDTH 1008 0
DWIDTH 14 0
BBX 14 14 0 -2
BITMAP
0F80
3FE0
70F0
EF78
EF78
EF7C
EF7C
F07C
FF7C
EF78
EF78
71F0
3FE0
0F80
ENDCHAR
STARTCHAR 277F
ENCODING 10111
SWIDTH 1008 0
DWIDTH 14 0
BBX 14 14 0 -2
BITMAP
0F80
3FE0
7670
EDB8
CDB8
EDBC
EDBC
EDBC
EDBC
EDB8
EDB8
6670
3FE0
0F80
ENDCHAR
STARTCHAR 2934
ENCODING 10548
SWIDTH 1008 0
DWIDTH 14 0
BBX 14 11 0 -1
BITMAP
0060
0060
00F0
00F0
01A8
036C
0060
00C0
00C0
0380
FE00
ENDCHAR
STARTCHAR 2935
ENCODING 10549
SWIDTH 1008 0
DWIDTH 14 0
BBX 14 11 0 -1
BITMAP
FE00
0380
00C0
00C0
0060
036C
01A8
00F0
00F0
0060
0060
ENDCHAR
STARTCHAR 29BF
ENCODING 10687
SWIDTH 1008 0
DWIDTH 14 0
BBX 14 13 0 -1
BITMAP
0FC0
3870
6018
6018
C00C
C78C
C78C
C78C
C00C
6018
6018
3870
0FC0
ENDCHAR
STARTCHAR 29FA
ENCODING 10746
SWIDTH 1008 0
DWIDTH 14 0
BBX 13 11 0 -1
BITMAP
18C0
18C0
18C0
18C0
18C0
FFF8
18C0
18C0
18C0
18C0
18C0
ENDCHAR
STARTCHAR 29FB
ENCODING 10747
SWIDTH 1008 0
DWIDTH 14 0
BBX 13 11 0 -1
BITMAP
36C0
36C0
36C0
36C0
36C0
FFF8
36C0
36C0
36C0
36C0
36C0
ENDCHAR
STARTCHAR 3000
ENCODING 12288
SWIDTH 1008 0
DWIDTH 14 0
BBX 0 0 0 -2
BITMAP
ENDCHAR
STARTCHAR 3001
ENCODING 12289
SWIDTH 1008 0
DWIDTH 14 0
BBX 5 4 0 8
BITMAP
C0
70
38
18
ENDCHAR
STARTCHAR 3002
ENCODING 12290
SWIDTH 1008 0
DWIDTH 14 0
BBX 5 4 0 8
BITMAP
70
D8
D8
70
ENDCHAR
STARTCHAR 3003
ENCODING 12291
SWIDTH 1008 0
DWIDTH 14 0
BBX 8 6 2 2
BITMAP
33
33
33
66
66
CC
ENDCHAR
STARTCHAR 3005
ENCODING 12293
SWIDTH 1008 0
DWIDTH 14 0
BBX 10 10 2 2
BITMAP
1800
1800
1FC0
3180
3180
6300
DA00
0E00
0300
0180
ENDCHAR
STARTCHAR 3006
ENCODING 12294
SWIDTH 1008 0
DWIDTH 14 0
BBX 11 11 1 0
BITMAP
0060
0060
00C0
1D80
3700
3600
6D00
6800
7000
6000
C000
ENDCHAR
STARTCHAR 3007
ENCODING 12295
SWIDTH 1008 0
DWIDTH 14 0
BBX 14 13 0 -1
BITMAP
0FC0
3870
6018
6018
C00C
C00C
C00C
C00C
C00C
6018
6018
3870
0FC0
ENDCHAR
STARTCHAR 3008
ENCODING 12296
SWIDTH 1008 0
DWIDTH 14 0
BBX 8 14 5 -2
BITMAP
03
06
0C
18
30
60
C0
C0
60
30
18
0C
06
03
ENDCHAR
STARTCHAR 3009
ENCODING 12297
SWIDTH 1008 0
DWIDTH 14 0
BBX 8 14 0 -2
BITMAP
C0
60
30
18
0C
06
03
03
06
0C
18
30
60
C0
ENDCHAR
STARTCHAR 300A
ENCODING 12298
SWIDTH 1008 0
DWIDTH 14 0
BBX 8 14 5 -2
BITMAP
1B
1B
36
36
6C
6C
D8
D8
6C
6C
36
36
1B
1B
ENDCHAR
STARTCHAR 300B
ENCODING 12299
SWIDTH 1008 0
DWIDTH 14 0
BBX 8 14 0 -2
BITMAP
D8
D8
6C
6C
36
36
1B
1B
36
36
6C
6C
D8
D8
ENDCHAR
STARTCHAR 300C
ENCODING 12300
SWIDTH 1008 0
DWIDTH 14 0
BBX 7 14 6 -2
BITMAP
FE
C0
C0
C0
C0
C0
C0
C0
C0
C0
C0
C0
C0
C0
ENDCHAR
STARTCHAR 300D
ENCODING 12301
SWIDTH 1008 0
DWIDTH 14 0
BBX 7 14 0 -2
BITMAP
06
06
06
06
06
06
06
06
06
06
06
06
06
FE
ENDCHAR
STARTCHAR 300E
ENCODING 12302
SWIDTH 1008 0
DWIDTH 14 0
BBX 8 14 5 -2
BITMAP
FF
C3
DF
D0
D0
D0
D0
D0
D0
D0
D0
D0
D0
F0
ENDCHAR
STARTCHAR 300F
ENCODING 12303
SWIDTH 1008 0
DWIDTH 14 0
BBX 8 14 0 -2
BITMAP
0F
0D
0D
0D
0D
0D
0D
0D
0D
0D
0D
FD
C3
FF
ENDCHAR
STARTCHAR 3010
ENCODING 12304
SWIDTH 1008 0
DWIDTH 14 0
BBX 6 14 7 -2
BITMAP
FC
F8
F0
F0
E0
E0
E0
E0
E0
E0
F0
F0
F8
FC
ENDCHAR
STARTCHAR 3011
ENCODING 12305
SWIDTH 1008 0
DWIDTH 14 0
BBX 6 14 0 -2
BITMAP
FC
7C
3C
3C
1C
1C
1C
1C
1C
1C
3C
3C
7C
FC
ENDCHAR
STARTCHAR 3012
ENCODING 12306
SWIDTH 1008 0
DWIDTH 14 0
BBX 13 12 0 -1
BITMAP
7FF0
7FF0
0000
0000
FFF8
FFF8
0700
0700
0700
0700
0700
0700
ENDCHAR
STARTCHAR 3013
ENCODING 12307
SWIDTH 1008 0
DWIDTH 14 0
BBX 11 6 1 2
BITMAP
FFE0
FFE0
0000
0000
FFE0
FFE0
ENDCHAR
STARTCHAR 3014
ENCODING 12308
SWIDTH 1008 0
DWIDTH 14 0
BBX 5 14 8 -2
BITMAP
18
30
60
C0
C0
C0
C0
C0
C0
C0
C0
60
30
18
ENDCHAR
STARTCHAR 3015
ENCODING 12309
SWIDTH 1008 0
DWIDTH 14 0
BBX 5 14 0 -2
BITMAP
C0
60
30
18
18
18
18
18
18
18
18
30
60
C0
ENDCHAR
STARTCHAR 3016
ENCODING 12310
SWIDTH 1008 0
DWIDTH 14 0
BBX 8 14 5 -2
BITMAP
FF
C6
CC
CC
D8
D8
D8
D8
D8
D8
CC
CC
C6
FF
ENDCHAR
STARTCHAR 3017
ENCODING 12311
SWIDTH 1008 0
DWIDTH 14 0
BBX 8 14 0 -2
BITMAP
FF
63
33
33
1B
1B
1B
1B
1B
1B
33
33
63
FF
ENDCHAR
STARTCHAR 3018
ENCODING 12312
SWIDTH 1008 0
DWIDTH 14 0
BBX 8 14 5 -2
BITMAP
0F
38
E7
DC
D0
D0
D0
D0
D0
D0
DC
E7
38
0F
ENDCHAR
STARTCHAR 3019
ENCODING 12313
SWIDTH 1008 0
DWIDTH 14 0
BBX 8 14 0 -2
BITMAP
F0
1C
E7
3B
0D
0D
0D
0D
0D
0D
3B
E7
1C
F0
ENDCHAR
STARTCHAR 301C
ENCODING 12316
SWIDTH 1008 0
DWIDTH 14 0
BBX 13 4 0 3
BITMAP
3C00
6618
C330
01E0
ENDCHAR
STARTCHAR 301D
ENCODING 12317
SWIDTH 1008 0
DWIDTH 14 0
BBX 7 4 5 -1
BITMAP
EC
76
76
36
ENDCHAR
STARTCHAR 301F
ENCODING 12319
SWIDTH 1008 0
DWIDTH 14 0
BBX 7 4 0 6
BITMAP
EC
76
76
36
ENDCHAR
STARTCHAR 3020
ENCODING 12320
SWIDTH 1008 0
DWIDTH 14 0
BBX 14 14 0 -2
BITMAP
7FF0
7FF0
0000
7FF0
7FF0
C718
BB74
AB54
BB74
C018
D8D8
CF98
7070
1FC0
ENDCHAR
STARTCHAR 3033
ENCODING 12339
SWIDTH 1008 0
DWIDTH 14 0
BBX 12 6 2 2
BITMAP
7800
CE00
0300
01C0
0060
0030
ENDCHAR
STARTCHAR 3034
ENCODING 12340
SWIDTH 1008 0
DWIDTH 14 0
BBX 12 10 2 -2
BITMAP
3000
6000
1800
3000
7800
CE00
0300
01C0
0060
0030
ENDCHAR
STARTCHAR 3035
ENCODING 12341
SWIDTH 1008 0
DWIDTH 14 0
BBX 11 6 0 2
BITMAP
01E0
0700
1C00
3000
E000
8000
ENDCHAR
STARTCHAR 303B
ENCODING 12347
SWIDTH 1008 0
DWIDTH 14 0
BBX 7 11 3 0
BITMAP
60
38
1C
3C
60
C0
C0
70
38
1C
0E
ENDCHAR
STARTCHAR 303C
ENCODING 12348
SWIDTH 1008 0
DWIDTH 14 0
BBX 14 14 0 -2
BITMAP
FFFC
801C
8034
806C
80CC
818C
830C
860C
8C0C
980C
B00C
A00C
C00C
FFFC
ENDCHAR
STARTCHAR 303D
ENCODING 12349
SWIDTH 1008 0
DWIDTH 14 0
BBX 11 11 2 0
BITMAP
7600
DB00
DB80
0180
0180
01C0
00E0
00E0
00E0
00E0
0060
ENDCHAR
STARTCHAR 3041
ENCODING 12353
SWIDTH 1008 0
DWIDTH 14 0
BBX 11 11 1 1
BITMAP
1800
0C00
6F00
3C00
1B00
1FC0
3A60
6C60
DC60
D4C0
6380
ENDCHAR
STARTCHAR 3042
ENCODING 12354
SWIDTH 1008 0
DWIDTH 14 0
BBX 12 13 1 -2
BITMAP
1800
0C00
0D80
7E00
1B00
1B00
1FC0
3A60
6A30
CC30
DC30
D460
61C0
ENDCHAR
STARTCHAR 3043
ENCODING 12355
SWIDTH 1008 0
DWIDTH 14 0
BBX 10 7 2 4
BITMAP
C300
C180
C0C0
C1C0
6800
7000
3000
ENDCHAR
STARTCHAR 3044
ENCODING 12356
SWIDTH 1008 0
DWIDTH 14 0
BBX 13 9 0 1
BITMAP
C000
60E0
6030
6018
6618
6C38
3418
3800
1800
ENDCHAR
STARTCHAR 3045
ENCODING 12357
SWIDTH 1008 0
DWIDTH 14 0
BBX 8 10 2 2
BITMAP
18
0E
00
DE
73
03
03
03
06
1C
ENDCHAR
STARTCHAR 3046
ENCODING 12358
SWIDTH 1008 0
DWIDTH 14 0
BBX 9 14 2 -2
BITMAP
1800
0F00
0000
0000
1F00
F180
0180
0180
0180
0180
0300
0300
0600
0C00
ENDCHAR
STARTCHAR 3047
ENCODING 12359
SWIDTH 1008 0
DWIDTH 14 0
BBX 10 10 2 2
BITMAP
1800
0E00
0000
0F00
7A00
0C00
1800
3C00
6C00
C7C0
ENDCHAR
STARTCHAR 3048
ENCODING 12360
SWIDTH 1008 0
DWIDTH 14 0
BBX 12 13 1 -2
BITMAP
1800
0F00
0000
0000
6780
3D00
0600
0C00
1800
3C00
6600
C600
C3F0
ENDCHAR
STARTCHAR 3049
ENCODING 12361
SWIDTH 1008 0
DWIDTH 14 0
BBX 11 10 1 2
BITMAP
6180
30E0
38C0
F000
3780
38C0
70C0
D0C0
7380
3000
ENDCHAR
STARTCHAR 304A
ENCODING 12362
SWIDTH 1008 0
DWIDTH 14 0
BBX 13 12 1 -1
BITMAP
3000
18E0
1A30
1C38
7800
19C0
1B60
1C30
3830
EB30
39E0
1800
ENDCHAR
STARTCHAR 304B
ENCODING 12363
SWIDTH 1008 0
DWIDTH 14 0
BBX 13 12 0 -1
BITMAP
1800
0C00
0CE0
CF30
7D98
19B8
1980
1980
3180
3300
6D00
6600
ENDCHAR
STARTCHAR 304C
ENCODING 12364
SWIDTH 1008 0
DWIDTH 14 0
BBX 14 13 0 -2
BITMAP
0018
186C
0C30
0CC0
CF60
7DB0
1998
19B8
1980
3180
3300
6D00
6600
ENDCHAR
STARTCHAR 304D
ENCODING 12365
SWIDTH 1008 0
DWIDTH 14 0
BBX 10 14 2 -2
BITMAP
1800
0C00
0D80
7E00
0600
07C0
FD00
0180
0180
3FC0
60C0
6000
3800
0F00
ENDCHAR
STARTCHAR 304E
ENCODING 12366
SWIDTH 1008 0
DWIDTH 14 0
BBX 13 14 1 -2
BITMAP
1830
0CD8
0DA0
7E00
0600
07C0
FD00
0180
0180
3FC0
60C0
6000
3800
0F00
ENDCHAR
STARTCHAR 304F
ENCODING 12367
SWIDTH 1008 0
DWIDTH 14 0
BBX 7 14 3 -2
BITMAP
0C
06
06
0C
18
70
C0
C0
60
30
18
0C
06
06
ENDCHAR
STARTCHAR 3050
ENCODING 12368
SWIDTH 1008 0
DWIDTH 14 0
BBX 11 14 3 -2
BITMAP
0C00
0600
0600
0CC0
1B60
7180
C000
C000
6000
3000
1800
0C00
0600
0600
ENDCHAR
STARTCHAR 3051
ENCODING 12369
SWIDTH 1008 0
DWIDTH 14 0
BBX 13 14 1 -2
BITMAP
0300
C180
60C0
60C0
60F8
CFC0
C0C0
C0C0
C0C0
C0C0
70C0
6180
6180
0300
ENDCHAR
STARTCHAR 3052
ENCODING 12370
SWIDTH 1008 0
DWIDTH 14 0
BBX 14 14 0 -2
BITMAP
0318
C1AC
60D0
60C0
60F8
CFC0
C0C0
C0C0
C0C0
C0C0
70C0
6180
6180
0300
ENDCHAR
STARTCHAR 3053
ENCODING 12371
SWIDTH 1008 0
DWIDTH 14 0
BBX 11 12 1 -1
BITMAP
3000
1FC0
0300
0600
0000
0000
0000
0000
C000
C000
6060
3FC0
ENDCHAR
STARTCHAR 3054
ENCODING 12372
SWIDTH 1008 0
DWIDTH 14 0
BBX 13 13 1 -2
BITMAP
0030
3018
1FE0
0330
0600
0000
0000
0000
0000
C000
C000
6060
3FC0
ENDCHAR
STARTCHAR 3055
ENCODING 12373
SWIDTH 1008 0
DWIDTH 14 0
BBX 11 13 1 -2
BITMAP
1800
0C00
06E0
C780
7D00
0180
0180
1FC0
30C0
6000
6000
3800
0F80
ENDCHAR
STARTCHAR 3056
ENCODING 12374
SWIDTH 1008 0
DWIDTH 14 0
BBX 13 13 1 -2
BITMAP
1830
0C18
06E0
C7B0
7D00
0180
0180
1FC0
30C0
6000
6000
3800
0F80
ENDCHAR
STARTCHAR 3057
ENCODING 12375
SWIDTH 1008 0
DWIDTH 14 0
BBX 11 12 2 -1
BITMAP
C000
6000
6000
6000
6000
6000
6000
6000
6060
60C0
3380
1E00
ENDCHAR
STARTCHAR 3058
ENCODING 12376
SWIDTH 1008 0
DWIDTH 14 0
BBX 11 12 2 -1
BITMAP
C180
66C0
6300
6000
6000
6000
6000
6000
6060
60C0
3380
1E00
ENDCHAR
STARTCHAR 3059
ENCODING 12377
SWIDTH 1008 0
DWIDTH 14 0
BBX 13 14 0 -2
BITMAP
0300
0180
C1F8
7F80
0180
0780
0DC0
0CC0
07C0
00C0
0180
0180
0300
0600
ENDCHAR
STARTCHAR 305A
ENCODING 12378
SWIDTH 1008 0
DWIDTH 14 0
BBX 14 14 0 -2
BITMAP
0368
01B4
C1F8
7F80
0180
0780
0DC0
0CC0
07C0
00C0
0180
0180
0300
0600
ENDCHAR
STARTCHAR 305B
ENCODING 12379
SWIDTH 1008 0
DWIDTH 14 0
BBX 13 12 0 -1
BITMAP
0180
30C0
18C0
18F8
DBC0
7CC0
18C0
18C0
19C0
18C0
0C00
07E0
ENDCHAR
STARTCHAR 305C
ENCODING 12380
SWIDTH 1008 0
DWIDTH 14 0
BBX 14 13 0 -2
BITMAP
0018
018C
30D0
18D8
18F8
DBC0
7CC0
18C0
18C0
19C0
18C0
0C00
07E0
ENDCHAR
STARTCHAR 305D
ENCODING 12381
SWIDTH 1008 0
DWIDTH 14 0
BBX 12 13 1 -1
BITMAP
3780
1D80
0300
0600
0CF0
1F80
F300
0600
0C00
0C00
0C00
0600
03C0
ENDCHAR
STARTCHAR 305E
ENCODING 12382
SWIDTH 1008 0
DWIDTH 14 0
BBX 13 13 1 -1
BITMAP
37B0
1DD8
0360
0600
0CF0
1F80
F300
0600
0C00
0C00
0C00
0600
03C0
ENDCHAR
STARTCHAR 305F
ENCODING 12383
SWIDTH 1008 0
DWIDTH 14 0
BBX 12 12 1 -1
BITMAP
3000
1B00
1E00
F800
33E0
3070
30C0
6000
6000
6600
C600
C3F0
ENDCHAR
STARTCHAR 3060
ENCODING 12384
SWIDTH 1008 0
DWIDTH 14 0
BBX 13 13 1 -2
BITMAP
0030
30D8
1B60
1E00
F800
33E0
3070
30C0
6000
6000
6600
C600
C3F0
ENDCHAR
STARTCHAR 3061
ENCODING 12385
SWIDTH 1008 0
DWIDTH 14 0
BBX 12 14 0 -2
BITMAP
1800
0C00
0DC0
CF00
7C00
1800
19C0
1B60
3C30
3030
0030
0060
01C0
0F00
ENDCHAR
STARTCHAR 3062
ENCODING 12386
SWIDTH 1008 0
DWIDTH 14 0
BBX 14 14 0 -2
BITMAP
1800
0C18
0DCC
CF30
7C18
1800
19C0
1B60
3C30
3030
0030
0060
01C0
0F00
ENDCHAR
STARTCHAR 3063
ENCODING 12387
SWIDTH 1008 0
DWIDTH 14 0
BBX 11 8 1 4
BITMAP
0780
1CC0
F060
0060
0060
00C0
0380
1E00
ENDCHAR
STARTCHAR 3064
ENCODING 12388
SWIDTH 1008 0
DWIDTH 14 0
BBX 13 9 0 1
BITMAP
07E0
DC30
7018
0018
0018
0018
0030
00E0
0780
ENDCHAR
STARTCHAR 3065
ENCODING 12389
SWIDTH 1008 0
DWIDTH 14 0
BBX 14 12 0 -2
BITMAP
0018
006C
0030
07E0
DC30
7018
0018
0018
0018
0030
00E0
0780
ENDCHAR
STARTCHAR 3066
ENCODING 12390
SWIDTH 1008 0
DWIDTH 14 0
BBX 13 12 0 -1
BITMAP
0078
C7C0
7D80
0300
0300
0600
0600
0600
0600
0600
0300
01E0
ENDCHAR
STARTCHAR 3067
ENCODING 12391
SWIDTH 1008 0
DWIDTH 14 0
BBX 14 12 0 -1
BITMAP
0078
C7C0
7D98
036C
0330
0600
0600
0600
0600
0600
0300
01E0
ENDCHAR
STARTCHAR 3068
ENCODING 12392
SWIDTH 1008 0
DWIDTH 14 0
BBX 10 12 2 -1
BITMAP
3000
1800
1800
1800
1BC0
1E00
3800
6000
C000
C000
6000
3FC0
ENDCHAR
STARTCHAR 3069
ENCODING 12393
SWIDTH 1008 0
DWIDTH 14 0
BBX 12 12 2 -1
BITMAP
3060
19B0
18C0
1800
1BC0
1E00
3800
6000
C000
C000
6000
3FC0
ENDCHAR
STARTCHAR 306A
ENCODING 12394
SWIDTH 1008 0
DWIDTH 14 0
BBX 12 14 1 -2
BITMAP
1800
0C00
0D00
FE00
19E0
3070
30C0
6180
6180
C180
0F80
19C0
19A0
0F00
ENDCHAR
STARTCHAR 306B
ENCODING 12395
SWIDTH 1008 0
DWIDTH 14 0
BBX 12 13 1 -1
BITMAP
C000
6000
63E0
6E70
C0C0
C000
C000
C000
CC00
D400
67F0
6000
6000
ENDCHAR
STARTCHAR 306C
ENCODING 12396
SWIDTH 1008 0
DWIDTH 14 0
BBX 13 12 0 -1
BITMAP
0300
0180
0180
37E0
3530
3B18
3618
6A18
DC18
DCE8
D5B0
60E8
ENDCHAR
STARTCHAR 306D
ENCODING 12397
SWIDTH 1008 0
DWIDTH 14 0
BBX 13 13 0 -2
BITMAP
3000
1800
1800
1800
DDE0
7F30
1C30
1830
3830
3830
69F0
DB38
19E0
ENDCHAR
STARTCHAR 306E
ENCODING 12398
SWIDTH 1008 0
DWIDTH 14 0
BBX 12 11 1 0
BITMAP
0F80
3AC0
6660
6630
CC30
CC30
D830
D860
D060
61C0
0700
ENDCHAR
STARTCHAR 306F
ENCODING 12399
SWIDTH 1008 0
DWIDTH 14 0
BBX 12 13 1 -2
BITMAP
0180
C0C0
60C0
68F0
6FC0
C0C0
C0C0
C0C0
C0C0
D7C0
6CE0
6CD0
6780
ENDCHAR
STARTCHAR 3070
ENCODING 12400
SWIDTH 1008 0
DWIDTH 14 0
BBX 14 13 0 -2
BITMAP
0198
C0CC
60D0
68F8
6FC0
C0C0
C0C0
C0C0
C0C0
D7C0
6CE0
6CD0
6780
ENDCHAR
STARTCHAR 3071
ENCODING 12401
SWIDTH 1008 0
DWIDTH 14 0
BBX 14 13 0 -2
BITMAP
01B8
C0EC
60EC
68F8
6FC0
C0C0
C0C0
C0C0
C0C0
D7C0
6CE0
6CD0
6780
ENDCHAR
STARTCHAR 3072
ENCODING 12402
SWIDTH 1008 0
DWIDTH 14 0
BBX 12 12 1 -1
BITMAP
0180
1980
F8C0
30C0
30E0
60D0
60C0
60C0
6180
6180
3300
1E00
ENDCHAR
STARTCHAR 3073
ENCODING 12403
SWIDTH 1008 0
DWIDTH 14 0
BBX 13 13 1 -2
BITMAP
0030
0198
19A0
F8D0
30C0
30E0
60D0
60C0
60C0
6180
6180
3300
1E00
ENDCHAR
STARTCHAR 3074
ENCODING 12404
SWIDTH 1008 0
DWIDTH 14 0
BBX 12 13 1 -2
BITMAP
00E0
01B0
19B0
F8E0
30C0
30E0
60D0
60C0
60C0
6180
6180
3300
1E00
ENDCHAR
STARTCHAR 3075
ENCODING 12405
SWIDTH 1008 0
DWIDTH 14 0
BBX 14 12 0 -1
BITMAP
0C00
0780
0180
0300
0600
0600
0300
06B0
DD98
79BC
6D80
0700
ENDCHAR
STARTCHAR 3076
ENCODING 12406
SWIDTH 1008 0
DWIDTH 14 0
BBX 14 12 0 -1
BITMAP
0C00
0798
01AC
0330
0600
0600
0300
06B0
DD98
79BC
6D80
0700
ENDCHAR
STARTCHAR 3077
ENCODING 12407
SWIDTH 1008 0
DWIDTH 14 0
BBX 14 12 0 -1
BITMAP
0C00
07B8
01AC
036C
0638
0600
0300
06B0
DD98
79BC
6D80
0700
ENDCHAR
STARTCHAR 3078
ENCODING 12408
SWIDTH 1008 0
DWIDTH 14 0
BBX 14 6 0 2
BITMAP
0E00
1B00
D180
60C0
0070
001C
ENDCHAR
STARTCHAR 3079
ENCODING 12409
SWIDTH 1008 0
DWIDTH 14 0
BBX 14 8 0 0
BITMAP
0030
00D8
0E60
1B00
D180
60C0
0070
001C
ENDCHAR
STARTCHAR 307A
ENCODING 12410
SWIDTH 1008 0
DWIDTH 14 0
BBX 14 9 0 -1
BITMAP
0070
00D8
00D8
0E70
1B00
D180
60C0
0070
001C
ENDCHAR
STARTCHAR 307B
ENCODING 12411
SWIDTH 1008 0
DWIDTH 14 0
BBX 12 12 1 -1
BITMAP
CCE0
6780
6180
60F0
CFC0
C0C0
C0C0
C0C0
D7C0
6CE0
6CD0
6780
ENDCHAR
STARTCHAR 307C
ENCODING 12412
SWIDTH 1008 0
DWIDTH 14 0
BBX 14 12 0 -1
BITMAP
CCE8
678C
61B0
60F8
CFC0
C0C0
C0C0
C0C0
D7C0
6CE0
6CD0
6780
ENDCHAR
STARTCHAR 307D
ENCODING 12413
SWIDTH 1008 0
DWIDTH 14 0
BBX 14 13 0 -2
BITMAP
0038
CCEC
67AC
61B8
60F0
CFC0
C0C0
C0C0
C0C0
D7C0
6CE0
6CD0
6780
ENDCHAR
STARTCHAR 307E
ENCODING 12414
SWIDTH 1008 0
DWIDTH 14 0
BBX 10 13 2 -2
BITMAP
0C00
0600
C7C0
7E00
0600
C780
7E00
0600
0600
7E00
C780
C6C0
7C00
ENDCHAR
STARTCHAR 307F
ENCODING 12415
SWIDTH 1008 0
DWIDTH 14 0
BBX 14 12 0 -1
BITMAP
1980
0F80
0300
0300
0660
0630
1FF0
7438
CC6C
D860
70C0
0180
ENDCHAR
STARTCHAR 3080
ENCODING 12416
SWIDTH 1008 0
DWIDTH 14 0
BBX 13 13 1 -2
BITMAP
3000
1800
DE00
78E0
1830
7838
D800
D800
D8C0
7060
3060
3060
1FC0
ENDCHAR
STARTCHAR 3081
ENCODING 12417
SWIDTH 1008 0
DWIDTH 14 0
BBX 13 12 0 -1
BITMAP
0300
0180
3180
37C0
3DA0
3330
6B18
6A18
CE18
CC18
DA30
70E0
ENDCHAR
STARTCHAR 3082
ENCODING 12418
SWIDTH 1008 0
DWIDTH 14 0
BBX 11 14 1 -2
BITMAP
0C00
0600
6600
3C00
0F00
6C00
D8C0
78C0
1E60
1860
1860
1860
0CC0
0780
ENDCHAR
STARTCHAR 3083
ENCODING 12419
SWIDTH 1008 0
DWIDTH 14 0
BBX 11 10 1 2
BITMAP
0600
3300
37C0
3C60
F860
19C0
0C00
0C00
0600
0600
ENDCHAR
STARTCHAR 3084
ENCODING 12420
SWIDTH 1008 0
DWIDTH 14 0
BBX 13 14 0 -2
BITMAP
0300
0180
03C0
3800
31F0
1B18
DC18
7418
06F0
0600
0300
0300
0180
0180
ENDCHAR
STARTCHAR 3085
ENCODING 12421
SWIDTH 1008 0
DWIDTH 14 0
BBX 11 10 1 2
BITMAP
0C00
0600
C7C0
DE60
D660
E660
CEC0
C780
0600
0C00
ENDCHAR
STARTCHAR 3086
ENCODING 12422
SWIDTH 1008 0
DWIDTH 14 0
BBX 13 13 0 -1
BITMAP
0700
C180
63E0
66B0
6D98
6998
7198
7598
66B0
63E0
0180
0300
0600
ENDCHAR
STARTCHAR 3087
ENCODING 12423
SWIDTH 1008 0
DWIDTH 14 0
BBX 9 11 2 1
BITMAP
1800
0C00
0D80
0F00
0C00
0C00
0C00
7C00
CF00
CD80
7800
ENDCHAR
STARTCHAR 3088
ENCODING 12424
SWIDTH 1008 0
DWIDTH 14 0
BBX 11 13 1 -2
BITMAP
0C00
0600
0600
06E0
0780
0600
0600
0600
0600
7F00
C6C0
C660
7C00
ENDCHAR
STARTCHAR 3089
ENCODING 12425
SWIDTH 1008 0
DWIDTH 14 0
BBX 9 14 3 -2
BITMAP
3000
1800
1E00
7000
C000
C000
C000
DF00
F180
C180
C180
0300
0E00
3800
ENDCHAR
STARTCHAR 308A
ENCODING 12426
SWIDTH 1008 0
DWIDTH 14 0
BBX 9 14 2 -2
BITMAP
C000
6E00
6B00
7180
7180
6180
6180
6180
6180
0300
0300
0600
0C00
1800
ENDCHAR
STARTCHAR 308B
ENCODING 12427
SWIDTH 1008 0
DWIDTH 14 0
BBX 11 13 1 -1
BITMAP
3380
1E80
0300
0600
0C00
1F80
38C0
6060
C060
0F60
19C0
1980
0F00
ENDCHAR
STARTCHAR 308C
ENCODING 12428
SWIDTH 1008 0
DWIDTH 14 0
BBX 14 13 0 -1
BITMAP
3000
1800
1BC0
1A60
3C60
EC60
1860
3860
3860
6860
D86C
3838
1800
ENDCHAR
STARTCHAR 308D
ENCODING 12429
SWIDTH 1008 0
DWIDTH 14 0
BBX 11 13 1 -1
BITMAP
6700
3D00
0600
0C00
1800
3F80
30C0
6060
C060
0060
00C0
0380
1E00
ENDCHAR
STARTCHAR 308E
ENCODING 12430
SWIDTH 1008 0
DWIDTH 14 0
BBX 10 10 2 2
BITMAP
6000
3000
3000
3B80
F4C0
38C0
70C0
70C0
D180
3300
ENDCHAR
STARTCHAR 308F
ENCODING 12431
SWIDTH 1008 0
DWIDTH 14 0
BBX 13 14 0 -2
BITMAP
3000
1800
1800
1800
DDE0
7F30
1C18
1818
3818
3818
6830
D860
39C0
1800
ENDCHAR
STARTCHAR 3090
ENCODING 12432
SWIDTH 1008 0
DWIDTH 14 0
BBX 12 12 1 -1
BITMAP
3700
1D00
0600
0600
0FC0
3C60
6C30
D830
D830
D3B0
76E0
63C0
ENDCHAR
STARTCHAR 3091
ENCODING 12433
SWIDTH 1008 0
DWIDTH 14 0
BBX 13 13 0 -1
BITMAP
1B80
0F00
0600
0FC0
1860
3060
0E60
1BC0
0F00
1800
3DE0
6730
C078
ENDCHAR
STARTCHAR 3092
ENCODING 12434
SWIDTH 1008 0
DWIDTH 14 0
BBX 12 14 1 -2
BITMAP
1800
0C00
6D80
3E00
1800
18C0
3EF0
7380
C700
0D00
1B00
3000
3000
1FC0
ENDCHAR
STARTCHAR 3093
ENCODING 12435
SWIDTH 1008 0
DWIDTH 14 0
BBX 12 13 1 -2
BITMAP
0C00
0600
0600
0C00
0C00
1800
1800
3E00
3300
6300
6330
C360
C1C0
ENDCHAR
STARTCHAR 3094
ENCODING 12436
SWIDTH 1008 0
DWIDTH 14 0
BBX 13 14 1 -2
BITMAP
1830
0F58
0060
0000
1F00
F180
0180
0180
0180
0180
0300
0300
0600
0C00
ENDCHAR
STARTCHAR 3095
ENCODING 12437
SWIDTH 1008 0
DWIDTH 14 0
BBX 11 11 1 1
BITMAP
3000
1B80
DEC0
7B60
3360
3300
3300
6300
6600
DA00
0C00
ENDCHAR
STARTCHAR 3096
ENCODING 12438
SWIDTH 1008 0
DWIDTH 14 0
BBX 11 11 1 1
BITMAP
0600
C300
6180
61E0
CF80
C180
C180
C180
C180
7300
6600
ENDCHAR
STARTCHAR 309B
ENCODING 12443
SWIDTH 1008 0
DWIDTH 14 0
BBX 5 3 0 -2
BITMAP
30
D8
60
ENDCHAR
STARTCHAR 309C
ENCODING 12444
SWIDTH 1008 0
DWIDTH 14 0
BBX 5 4 0 -2
BITMAP
70
D8
D8
70
ENDCHAR
STARTCHAR 309D
ENCODING 12445
SWIDTH 1008 0
DWIDTH 14 0
BBX 7 5 3 2
BITMAP
E0
38
0C
0E
18
ENDCHAR
STARTCHAR 309E
ENCODING 12446
SWIDTH 1008 0
DWIDTH 14 0
BBX 9 7 3 0
BITMAP
0300
0D80
E600
3800
0C00
0E00
1800
ENDCHAR
STARTCHAR 309F
ENCODING 12447
SWIDTH 1008 0
DWIDTH 14 0
BBX 10 13 1 -2
BITMAP
1800
1800
1FC0
1800
3800
3700
3580
38C0
70C0
60C0
E180
CD80
C700
ENDCHAR
STARTCHAR 30A0
ENCODING 12448
SWIDTH 1008 0
DWIDTH 14 0
BBX 7 5 3 2
BITMAP
FE
00
00
00
FE
ENDCHAR
STARTCHAR 30A1
ENCODING 12449
SWIDTH 1008 0
DWIDTH 14 0
BBX 10 8 1 4
BITMAP
C7C0
7CC0
0D80
0700
0600
0600
0C00
1800
ENDCHAR
STARTCHAR 30A2
ENCODING 12450
SWIDTH 1008 0
DWIDTH 14 0
BBX 11 12 1 0
BITMAP
C7E0
7C60
00C0
0D80
0700
0600
0600
0600
0C00
0C00
1800
3000
ENDCHAR
STARTCHAR 30A3
ENCODING 12451
SWIDTH 1008 0
DWIDTH 14 0
BBX 9 10 2 2
BITMAP
0180
0300
0600
1E00
F600
0600
0600
0600
0600
0600
ENDCHAR
STARTCHAR 30A4
ENCODING 12452
SWIDTH 1008 0
DWIDTH 14 0
BBX 10 13 1 -1
BITMAP
00C0
00C0
0180
0300
0E00
3A00
E300
0300
0300
0300
0300
0300
0300
ENDCHAR
STARTCHAR 30A5
ENCODING 12453
SWIDTH 1008 0
DWIDTH 14 0
BBX 9 10 2 2
BITMAP
1800
0C00
0F80
F980
6180
6300
0300
0600
0C00
1800
ENDCHAR
STARTCHAR 30A6
ENCODING 12454
SWIDTH 1008 0
DWIDTH 14 0
BBX 11 13 1 -1
BITMAP
0C00
0600
0600
07E0
FC60
6060
60C0
30C0
3180
0180
0300
0600
0C00
ENDCHAR
STARTCHAR 30A7
ENCODING 12455
SWIDTH 1008 0
DWIDTH 14 0
BBX 10 7 2 4
BITMAP
0780
7C00
0C00
0C00
0C00
0F80
F8C0
ENDCHAR
STARTCHAR 30A8
ENCODING 12456
SWIDTH 1008 0
DWIDTH 14 0
BBX 12 9 1 1
BITMAP
01E0
7F00
0C00
0600
0600
0600
0600
0FE0
F830
ENDCHAR
STARTCHAR 30A9
ENCODING 12457
SWIDTH 1008 0
DWIDTH 14 0
BBX 9 10 2 2
BITMAP
0C00
0600
C780
7E00
0E00
1A00
3600
6600
CE00
0600
ENDCHAR
STARTCHAR 30AA
ENCODING 12458
SWIDTH 1008 0
DWIDTH 14 0
BBX 12 13 1 -1
BITMAP
0300
0180
0180
C1F0
7F80
0380
0680
0D80
1980
3180
6180
0380
0180
ENDCHAR
STARTCHAR 30AB
ENCODING 12459
SWIDTH 1008 0
DWIDTH 14 0
BBX 11 13 1 -1
BITMAP
0C00
0600
0600
C7E0
7E60
0C60
0C60
18C0
18C0
30C0
6680
C380
0300
ENDCHAR
STARTCHAR 30AC
ENCODING 12460
SWIDTH 1008 0
DWIDTH 14 0
BBX 13 14 1 -2
BITMAP
0030
0CD8
0668
0660
C7E0
7E60
0C60
0C60
18C0
18C0
30C0
6680
C380
0300
ENDCHAR
STARTCHAR 30AD
ENCODING 12461
SWIDTH 1008 0
DWIDTH 14 0
BBX 12 13 1 -1
BITMAP
1800
0C00
0DE0
0F00
7A00
0600
06F0
0F00
FB00
0300
0180
0180
0180
ENDCHAR
STARTCHAR 30AE
ENCODING 12462
SWIDTH 1008 0
DWIDTH 14 0
BBX 13 14 1 -2
BITMAP
0030
18D8
0C68
0DE0
0F00
7A00
0600
06F0
0F00
FB00
0300
0180
0180
0180
ENDCHAR
STARTCHAR 30AF
ENCODING 12463
SWIDTH 1008 0
DWIDTH 14 0
BBX 10 13 2 -1
BITMAP
3000
1BC0
1EC0
1980
3180
3300
6300
C600
0600
0C00
1800
3000
6000
ENDCHAR
STARTCHAR 30B0
ENCODING 12464
SWIDTH 1008 0
DWIDTH 14 0
BBX 13 14 1 -2
BITMAP
0030
30D8
1BA8
1EA0
1980
3180
3300
6300
C600
0600
0C00
1800
3000
6000
ENDCHAR
STARTCHAR 30B1
ENCODING 12465
SWIDTH 1008 0
DWIDTH 14 0
BBX 12 13 1 -1
BITMAP
3000
1800
1800
18F0
3F80
3600
6300
C300
0300
0600
0600
0C00
1800
ENDCHAR
STARTCHAR 30B2
ENCODING 12466
SWIDTH 1008 0
DWIDTH 14 0
BBX 13 14 1 -2
BITMAP
0030
30D8
1868
1860
18F0
3F80
3600
6300
C300
0300
0600
0600
0C00
1800
ENDCHAR
STARTCHAR 30B3
ENCODING 12467
SWIDTH 1008 0
DWIDTH 14 0
BBX 11 9 1 1
BITMAP
C7E0
7C60
0060
0060
0060
00C0
00C0
0FC0
78C0
ENDCHAR
STARTCHAR 30B4
ENCODING 12468
SWIDTH 1008 0
DWIDTH 14 0
BBX 14 12 0 -2
BITMAP
0018
006C
0034
C7D0
7CC0
00C0
00C0
00C0
0180
0180
0F80
7980
ENDCHAR
STARTCHAR 30B5
ENCODING 12469
SWIDTH 1008 0
DWIDTH 14 0
BBX 12 13 1 -1
BITMAP
0300
3180
1980
1980
DBF0
7E80
1980
1980
1980
0300
0300
0600
0C00
ENDCHAR
STARTCHAR 30B6
ENCODING 12470
SWIDTH 1008 0
DWIDTH 14 0
BBX 13 14 1 -2
BITMAP
0030
0358
31A8
19A0
1980
DBF0
7E80
1980
1980
1980
0300
0300
0600
0C00
ENDCHAR
STARTCHAR 30B7
ENCODING 12471
SWIDTH 1008 0
DWIDTH 14 0
BBX 11 11 2 0
BITMAP
7000
1800
0000
E000
3060
00C0
0180
0300
0600
DC00
7000
ENDCHAR
STARTCHAR 30B8
ENCODING 12472
SWIDTH 1008 0
DWIDTH 14 0
BBX 12 12 2 -1
BITMAP
0060
71B0
18D0
00C0
E000
3060
00C0
0180
0300
0600
DC00
7000
ENDCHAR
STARTCHAR 30B9
ENCODING 12473
SWIDTH 1008 0
DWIDTH 14 0
BBX 11 10 1 0
BITMAP
63C0
3EC0
0180
0180
0300
0300
0680
0CC0
3860
E060
ENDCHAR
STARTCHAR 30BA
ENCODING 12474
SWIDTH 1008 0
DWIDTH 14 0
BBX 14 12 0 -2
BITMAP
0018
006C
63D4
3ED0
0180
0180
0300
0300
0680
0CC0
3860
E060
ENDCHAR
STARTCHAR 30BB
ENCODING 12475
SWIDTH 1008 0
DWIDTH 14 0
BBX 12 12 1 -1
BITMAP
3000
1800
1800
19F0
1B30
DC60
78C0
1980
1800
1800
0C00
07E0
ENDCHAR
STARTCHAR 30BC
ENCODING 12476
SWIDTH 1008 0
DWIDTH 14 0
BBX 13 13 1 -2
BITMAP
0030
30D8
1868
1860
19F0
1B30
DC60
78C0
1980
1800
1800
0C00
07F0
ENDCHAR
STARTCHAR 30BD
ENCODING 12477
SWIDTH 1008 0
DWIDTH 14 0
BBX 10 13 2 -1
BITMAP
0180
C0C0
60C0
30C0
3180
3180
0300
0300
0600
0600
0C00
1800
3000
ENDCHAR
STARTCHAR 30BE
ENCODING 12478
SWIDTH 1008 0
DWIDTH 14 0
BBX 13 14 1 -2
BITMAP
0030
0358
C1A8
61A0
3180
3180
3180
0300
0300
0600
0600
0C00
1800
3000
ENDCHAR
STARTCHAR 30BF
ENCODING 12479
SWIDTH 1008 0
DWIDTH 14 0
BBX 11 13 1 -1
BITMAP
0C00
0600
07E0
0C60
0CC0
1AC0
3380
6180
0300
0600
0C00
3800
E000
ENDCHAR
STARTCHAR 30C0
ENCODING 12480
SWIDTH 1008 0
DWIDTH 14 0
BBX 14 14 0 -2
BITMAP
0018
0C6C
0634
07F0
0C60
0C60
1AC0
3340
6180
0300
0600
0C00
3800
E000
ENDCHAR
STARTCHAR 30C1
ENCODING 12481
SWIDTH 1008 0
DWIDTH 14 0
BBX 12 13 1 -1
BITMAP
0180
0700
7C00
0600
03F0
CF00
7B00
0300
0300
0600
0600
0C00
1800
ENDCHAR
STARTCHAR 30C2
ENCODING 12482
SWIDTH 1008 0
DWIDTH 14 0
BBX 13 14 1 -2
BITMAP
0030
01D8
0768
7C60
0600
03F0
CF00
7B00
0300
0300
0600
0600
0C00
1800
ENDCHAR
STARTCHAR 30C3
ENCODING 12483
SWIDTH 1008 0
DWIDTH 14 0
BBX 9 8 2 4
BITMAP
3300
D980
6980
6300
0300
0600
0C00
1800
ENDCHAR
STARTCHAR 30C4
ENCODING 12484
SWIDTH 1008 0
DWIDTH 14 0
BBX 12 11 1 0
BITMAP
1860
CC30
6630
3660
3060
00C0
00C0
0180
0300
0600
0C00
ENDCHAR
STARTCHAR 30C5
ENCODING 12485
SWIDTH 1008 0
DWIDTH 14 0
BBX 14 13 0 -2
BITMAP
0018
006C
31B4
18D0
CCC0
6CC0
30C0
3180
0180
0300
0600
0C00
1800
ENDCHAR
STARTCHAR 30C6
ENCODING 12486
SWIDTH 1008 0
DWIDTH 14 0
BBX 12 12 1 0
BITMAP
67C0
3C00
0000
01F0
CF00
7B00
0300
0600
0600
0C00
1800
3000
ENDCHAR
STARTCHAR 30C7
ENCODING 12487
SWIDTH 1008 0
DWIDTH 14 0
BBX 13 14 1 -2
BITMAP
0030
00D8
67A8
3C60
0000
C3E0
7E00
0300
0300
0600
0600
0C00
1800
3000
ENDCHAR
STARTCHAR 30C8
ENCODING 12488
SWIDTH 1008 0
DWIDTH 14 0
BBX 8 13 3 -1
BITMAP
C0
60
60
60
60
78
6E
63
60
60
60
60
60
ENDCHAR
STARTCHAR 30C9
ENCODING 12489
SWIDTH 1008 0
DWIDTH 14 0
BBX 10 14 2 -2
BITMAP
0180
C6C0
6340
6300
6000
6000
7800
6E00
6300
6000
6000
6000
6000
6000
ENDCHAR
STARTCHAR 30CA
ENCODING 12490
SWIDTH 1008 0
DWIDTH 14 0
BBX 12 13 1 -1
BITMAP
0600
0300
0300
C3F0
7F00
0300
0300
0300
0600
0600
0C00
1800
3000
ENDCHAR
STARTCHAR 30CB
ENCODING 12491
SWIDTH 1008 0
DWIDTH 14 0
BBX 12 8 1 1
BITMAP
03C0
7E00
0000
0000
0000
0000
07E0
FC30
ENDCHAR
STARTCHAR 30CC
ENCODING 12492
SWIDTH 1008 0
DWIDTH 14 0
BBX 11 11 1 0
BITMAP
63E0
3E60
00C0
00C0
3D80
0780
0380
06C0
0C60
3860
E000
ENDCHAR
STARTCHAR 30CD
ENCODING 12493
SWIDTH 1008 0
DWIDTH 14 0
BBX 12 13 1 -1
BITMAP
0C00
0600
07C0
7CC0
0180
0300
0600
0E80
3AE0
E630
0600
0600
0600
ENDCHAR
STARTCHAR 30CE
ENCODING 12494
SWIDTH 1008 0
DWIDTH 14 0
BBX 9 13 2 -1
BITMAP
0300
0180
0180
0180
0300
0300
0600
0600
0C00
1800
3000
6000
C000
ENDCHAR
STARTCHAR 30CF
ENCODING 12495
SWIDTH 1008 0
DWIDTH 14 0
BBX 13 8 0 2
BITMAP
1980
0CC0
0C60
1830
1830
3018
6018
C018
ENDCHAR
STARTCHAR 30D0
ENCODING 12496
SWIDTH 1008 0
DWIDTH 14 0
BBX 14 11 0 -1
BITMAP
0018
006C
0034
19B0
0CC0
0C60
1830
1830
3018
6018
C018
ENDCHAR
STARTCHAR 30D1
ENCODING 12497
SWIDTH 1008 0
DWIDTH 14 0
BBX 14 12 0 -2
BITMAP
0038
006C
006C
0038
1980
0CC0
0C60
1830
1830
3018
6018
C018
ENDCHAR
STARTCHAR 30D2
ENCODING 12498
SWIDTH 1008 0
DWIDTH 14 0
BBX 10 11 2 0
BITMAP
C000
6000
6000
6780
7C00
6000
6000
6000
6000
3000
1FC0
ENDCHAR
STARTCHAR 30D3
ENCODING 12499
SWIDTH 1008 0
DWIDTH 14 0
BBX 11 12 2 -1
BITMAP
00C0
C360
61A0
6180
6000
6780
7C00
6000
6000
6000
3000
1FC0
ENDCHAR
STARTCHAR 30D4
ENCODING 12500
SWIDTH 1008 0
DWIDTH 14 0
BBX 11 12 2 -1
BITMAP
01C0
C360
6360
61C0
6000
6780
7C00
6000
6000
6000
3000
1FC0
ENDCHAR
STARTCHAR 30D5
ENCODING 12501
SWIDTH 1008 0
DWIDTH 14 0
BBX 10 11 2 0
BITMAP
C7C0
7CC0
00C0
0180
0180
0300
0300
0600
0C00
1800
3000
ENDCHAR
STARTCHAR 30D6
ENCODING 12502
SWIDTH 1008 0
DWIDTH 14 0
BBX 13 13 1 -2
BITMAP
0030
00D8
CFA8
79A0
0180
0300
0300
0600
0600
0C00
1800
3000
6000
ENDCHAR
STARTCHAR 30D7
ENCODING 12503
SWIDTH 1008 0
DWIDTH 14 0
BBX 13 13 1 -2
BITMAP
0070
00D8
CFD8
79B0
0180
0300
0300
0600
0600
0C00
1800
3000
6000
ENDCHAR
STARTCHAR 30D8
ENCODING 12504
SWIDTH 1008 0
DWIDTH 14 0
BBX 14 6 0 2
BITMAP
0600
0D00
D980
70C0
0070
001C
ENDCHAR
STARTCHAR 30D9
ENCODING 12505
SWIDTH 1008 0
DWIDTH 14 0
BBX 14 9 0 -1
BITMAP
0060
01B0
00D0
06C0
0D00
D980
70C0
0070
001C
ENDCHAR
STARTCHAR 30DA
ENCODING 12506
SWIDTH 1008 0
DWIDTH 14 0
BBX 14 9 0 -1
BITMAP
00E0
01B0
01B0
06E0
0D00
D980
70C0
0070
001C
ENDCHAR
STARTCHAR 30DB
ENCODING 12507
SWIDTH 1008 0
DWIDTH 14 0
BBX 11 13 1 -1
BITMAP
0C00
0600
0600
C7E0
7E00
0600
0680
36C0
3660
6660
C600
0E00
0600
ENDCHAR
STARTCHAR 30DC
ENCODING 12508
SWIDTH 1008 0
DWIDTH 14 0
BBX 13 14 1 -2
BITMAP
0030
0CD8
0668
0660
C7E0
7E00
0600
0680
36C0
3660
6660
C600
0E00
0600
ENDCHAR
STARTCHAR 30DD
ENCODING 12509
SWIDTH 1008 0
DWIDTH 14 0
BBX 13 14 1 -2
BITMAP
0070
0CD8
06D8
0670
C7E0
7E00
0600
0680
36C0
3660
6660
C600
0E00
0600
ENDCHAR
STARTCHAR 30DE
ENCODING 12510
SWIDTH 1008 0
DWIDTH 14 0
BBX 12 9 1 1
BITMAP
C3E0
7E30
0060
00C0
0180
3B00
0E00
0300
0180
ENDCHAR
STARTCHAR 30DF
ENCODING 12511
SWIDTH 1008 0
DWIDTH 14 0
BBX 9 13 2 -1
BITMAP
3000
1C00
0700
0180
6000
3800
0E00
0300
C000
7000
1C00
0700
0180
ENDCHAR
STARTCHAR 30E0
ENCODING 12512
SWIDTH 1008 0
DWIDTH 14 0
BBX 12 11 1 -1
BITMAP
0C00
0600
0600
0600
0C00
0C00
0D80
18C0
18E0
D7B0
7C30
ENDCHAR
STARTCHAR 30E1
ENCODING 12513
SWIDTH 1008 0
DWIDTH 14 0
BBX 11 13 1 -1
BITMAP
0180
00C0
00C0
00C0
1CC0
0780
0180
0340
0360
0600
0C00
3800
E000
ENDCHAR
STARTCHAR 30E2
ENCODING 12514
SWIDTH 1008 0
DWIDTH 14 0
BBX 12 10 1 0
BITMAP
63C0
3E00
0C00
0C00
CFF0
7C00
0C00
0C00
0C00
07E0
ENDCHAR
STARTCHAR 30E3
ENCODING 12515
SWIDTH 1008 0
DWIDTH 14 0
BBX 10 9 2 3
BITMAP
3000
1BC0
1EC0
F980
0D00
0C00
0600
0600
0600
ENDCHAR
STARTCHAR 30E4
ENCODING 12516
SWIDTH 1008 0
DWIDTH 14 0
BBX 12 12 1 -1
BITMAP
3000
1800
19F0
0F30
DC60
74C0
0680
0600
0600
0300
0300
0300
ENDCHAR
STARTCHAR 30E5
ENCODING 12517
SWIDTH 1008 0
DWIDTH 14 0
BBX 10 6 2 4
BITMAP
0F00
7B00
0300
0600
0F80
F8C0
ENDCHAR
STARTCHAR 30E6
ENCODING 12518
SWIDTH 1008 0
DWIDTH 14 0
BBX 12 7 1 2
BITMAP
6780
3D80
0180
0300
0300
07E0
FC30
ENDCHAR
STARTCHAR 30E7
ENCODING 12519
SWIDTH 1008 0
DWIDTH 14 0
BBX 8 8 3 3
BITMAP
1F
F3
03
1F
F6
06
1E
F3
ENDCHAR
STARTCHAR 30E8
ENCODING 12520
SWIDTH 1008 0
DWIDTH 14 0
BBX 10 11 2 0
BITMAP
0FC0
F8C0
00C0
00C0
0F80
7980
0180
0180
0180
0F80
78C0
ENDCHAR
STARTCHAR 30E9
ENCODING 12521
SWIDTH 1008 0
DWIDTH 14 0
BBX 11 12 1 0
BITMAP
6780
3C00
01E0
CF60
7860
0060
00C0
00C0
0180
0300
0E00
3800
ENDCHAR
STARTCHAR 30EA
ENCODING 12522
SWIDTH 1008 0
DWIDTH 14 0
BBX 8 13 3 -1
BITMAP
06
C3
63
63
63
63
63
63
06
06
0C
18
30
ENDCHAR
STARTCHAR 30EB
ENCODING 12523
SWIDTH 1008 0
DWIDTH 14 0
BBX 12 11 1 0
BITMAP
0600
3300
1B00
1B00
1B30
1B30
1B60
3360
3340
6380
C300
ENDCHAR
STARTCHAR 30EC
ENCODING 12524
SWIDTH 1008 0
DWIDTH 14 0
BBX 10 12 2 -1
BITMAP
C000
6000
6000
6000
6000
6000
60C0
6180
6300
6600
6C00
7000
ENDCHAR
STARTCHAR 30ED
ENCODING 12525
SWIDTH 1008 0
DWIDTH 14 0
BBX 11 9 1 1
BITMAP
C7E0
7C60
6060
6060
30C0
30C0
37C0
3C60
3000
ENDCHAR
STARTCHAR 30EE
ENCODING 12526
SWIDTH 1008 0
DWIDTH 14 0
BBX 10 8 2 4
BITMAP
C7C0
7CC0
6180
3180
3300
0300
0600
0C00
ENDCHAR
STARTCHAR 30EF
ENCODING 12527
SWIDTH 1008 0
DWIDTH 14 0
BBX 11 12 1 0
BITMAP
C7E0
7C60
6060
3060
30C0
30C0
0180
0180
0300
0600
0C00
1800
ENDCHAR
STARTCHAR 30F0
ENCODING 12528
SWIDTH 1008 0
DWIDTH 14 0
BBX 12 13 1 -1
BITMAP
0600
0300
0300
07E0
7D00
3300
1B00
1BE0
FD30
0300
0300
0300
0300
ENDCHAR
STARTCHAR 30F1
ENCODING 12529
SWIDTH 1008 0
DWIDTH 14 0
BBX 12 8 1 1
BITMAP
07C0
7CC0
0D80
0700
0600
0600
07E0
FC30
ENDCHAR
STARTCHAR 30F2
ENCODING 12530
SWIDTH 1008 0
DWIDTH 14 0
BBX 10 12 2 0
BITMAP
0FC0
F8C0
00C0
0180
0F80
7980
0300
0300
0600
0C00
3800
E000
ENDCHAR
STARTCHAR 30F3
ENCODING 12531
SWIDTH 1008 0
DWIDTH 14 0
BBX 11 10 2 1
BITMAP
E000
3060
1860
00C0
00C0
0180
0300
0600
DC00
7000
ENDCHAR
STARTCHAR 30F4
ENCODING 12532
SWIDTH 1008 0
DWIDTH 14 0
BBX 14 14 0 -2
BITMAP
0018
0C6C
0634
0630
C7E0
7C60
6060
30C0
30C0
0180
0180
0300
0600
0C00
ENDCHAR
STARTCHAR 30F5
ENCODING 12533
SWIDTH 1008 0
DWIDTH 14 0
BBX 9 9 2 3
BITMAP
1800
0C00
CF80
7980
1980
1980
3180
6700
C300
ENDCHAR
STARTCHAR 30F6
ENCODING 12534
SWIDTH 1008 0
DWIDTH 14 0
BBX 9 9 2 3
BITMAP
6000
3000
3380
3E00
6600
C600
0C00
1800
3000
ENDCHAR
STARTCHAR 30F7
ENCODING 12535
SWIDTH 1008 0
DWIDTH 14 0
BBX 14 14 0 -2
BITMAP
0018
006C
C7D4
7CD0
60C0
30C0
3180
3180
0180
0300
0300
0600
0C00
1800
ENDCHAR
STARTCHAR 30F8
ENCODING 12536
SWIDTH 1008 0
DWIDTH 14 0
BBX 14 14 0 -2
BITMAP
0018
066C
0334
0330
07E0
7D00
3300
1B00
1BE0
FD30
0300
0300
0300
0300
ENDCHAR
STARTCHAR 30F9
ENCODING 12537
SWIDTH 1008 0
DWIDTH 14 0
BBX 14 11 0 -2
BITMAP
0018
006C
0034
07D0
7CC0
0D80
0700
0600
0600
07E0
FC30
ENDCHAR
STARTCHAR 30FA
ENCODING 12538
SWIDTH 1008 0
DWIDTH 14 0
BBX 13 14 1 -2
BITMAP
0030
00D8
0FA8
F9A0
0180
0180
0F80
7B00
0300
0600
0600
0C00
3800
E000
ENDCHAR
STARTCHAR 30FB
ENCODING 12539
SWIDTH 1008 0
DWIDTH 14 0
BBX 5 4 4 3
BITMAP
70
F8
F8
70
ENDCHAR
STARTCHAR 30FC
ENCODING 12540
SWIDTH 1008 0
DWIDTH 14 0
BBX 13 2 0 4
BITMAP
C1F8
7F00
ENDCHAR
STARTCHAR 30FD
ENCODING 12541
SWIDTH 1008 0
DWIDTH 14 0
BBX 8 5 3 2
BITMAP
E0
38
0C
06
03
ENDCHAR
STARTCHAR 30FE
ENCODING 12542
SWIDTH 1008 0
DWIDTH 14 0
BBX 9 7 3 0
BITMAP
0300
0D80
E600
3800
0C00
0600
0300
ENDCHAR
STARTCHAR 30FF
ENCODING 12543
SWIDTH 1008 0
DWIDTH 14 0
BBX 9 11 4 -1
BITMAP
FF80
0180
0180
0180
0180
0180
0180
0180
0180
0180
0180
ENDCHAR
STARTCHAR 31F0
ENCODING 12784
SWIDTH 1008 0
DWIDTH 14 0
BBX 9 10 2 2
BITMAP
3000
1800
1F80
3180
6300
C300
0600
0C00
1800
7000
ENDCHAR
STARTCHAR 31F1
ENCODING 12785
SWIDTH 1008 0
DWIDTH 14 0
BBX 9 9 2 3
BITMAP
7000
1800
E000
3000
0180
0300
0600
DC00
7000
ENDCHAR
STARTCHAR 31F2
ENCODING 12786
SWIDTH 1008 0
DWIDTH 14 0
BBX 9 9 2 3
BITMAP
CF00
7B00
0600
0600
0C00
0E00
1B00
3180
E180
ENDCHAR
STARTCHAR 31F3
ENCODING 12787
SWIDTH 1008 0
DWIDTH 14 0
BBX 7 10 3 2
BITMAP
C0
60
60
60
70
6C
66
60
60
60
ENDCHAR
STARTCHAR 31F4
ENCODING 12788
SWIDTH 1008 0
DWIDTH 14 0
BBX 9 9 2 3
BITMAP
6F80
3980
0300
0600
7A00
0E00
1B00
3180
E000
ENDCHAR
STARTCHAR 31F5
ENCODING 12789
SWIDTH 1008 0
DWIDTH 14 0
BBX 11 7 1 4
BITMAP
3300
1980
1980
30C0
30C0
6060
C060
ENDCHAR
STARTCHAR 31F6
ENCODING 12790
SWIDTH 1008 0
DWIDTH 14 0
BBX 9 9 2 3
BITMAP
C000
6000
6700
7C00
6000
6000
6000
3000
1F80
ENDCHAR
STARTCHAR 31F7
ENCODING 12791
SWIDTH 1008 0
DWIDTH 14 0
BBX 9 8 2 4
BITMAP
CF80
7980
0300
0300
0600
0C00
1800
3000
ENDCHAR
STARTCHAR 31F8
ENCODING 12792
SWIDTH 1008 0
DWIDTH 14 0
BBX 9 6 2 4
BITMAP
3000
3800
6800
6C00
C700
C380
ENDCHAR
STARTCHAR 31F9
ENCODING 12793
SWIDTH 1008 0
DWIDTH 14 0
BBX 9 10 2 2
BITMAP
1800
0C00
CF80
7C00
0C00
0D00
6D80
6D80
DD80
0C00
ENDCHAR
STARTCHAR 31FA
ENCODING 12794
SWIDTH 1008 0
DWIDTH 14 0
BBX 9 9 2 2
BITMAP
3000
1800
1800
3000
3600
3300
6300
6E80
D980
ENDCHAR
STARTCHAR 31FB
ENCODING 12795
SWIDTH 1008 0
DWIDTH 14 0
BBX 9 9 2 3
BITMAP
6F00
3800
0780
DD80
7180
0300
0600
0C00
3800
ENDCHAR
STARTCHAR 31FC
ENCODING 12796
SWIDTH 1008 0
DWIDTH 14 0
BBX 8 10 2 2
BITMAP
06
C3
63
63
63
63
06
06
0C
18
ENDCHAR
STARTCHAR 31FD
ENCODING 12797
SWIDTH 1008 0
DWIDTH 14 0
BBX 11 9 1 3
BITMAP
0C00
6600
3600
3660
3660
3660
66C0
6680
C700
ENDCHAR
STARTCHAR 31FE
ENCODING 12798
SWIDTH 1008 0
DWIDTH 14 0
BBX 9 9 2 3
BITMAP
C000
6000
6000
6000
6180
6300
6600
6C00
7000
ENDCHAR
STARTCHAR 31FF
ENCODING 12799
SWIDTH 1008 0
DWIDTH 14 0
BBX 10 8 1 4
BITMAP
C7C0
7CC0
60C0
6180
6180
3780
3CC0
3000
ENDCHAR
STARTCHAR 3231
ENCODING 12849
SWIDTH 1008 0
DWIDTH 14 0
BBX 14 12 0 -1
BITMAP
68D0
DB58
DB58
BDF4
9B4C
BACC
BFFC
AACC
99EC
DB58
DAD8
68D0
ENDCHAR
STARTCHAR 3232
ENCODING 12850
SWIDTH 1008 0
DWIDTH 14 0
BBX 14 12 0 -1
BITMAP
6C30
CC18
FFF8
980C
9FEC
B86C
AFEC
D86C
9FEC
D868
D868
68F0
ENDCHAR
STARTCHAR 3239
ENCODING 12857
SWIDTH 1008 0
DWIDTH 14 0
BBX 14 12 0 -1
BITMAP
6B50
DB68
DB68
B3F4
BF0C
B30C
D18C
B18C
B1AC
D1A8
D0E8
7070
ENDCHAR
STARTCHAR 3251
ENCODING 12881
SWIDTH 1008 0
DWIDTH 14 0
BBX 14 14 0 -2
BITMAP
0F80
38E0
6CF0
F6E8
F7E8
B4EC
8CEC
98EC
B0EC
DEE8
FDF8
6030
38E0
0F80
ENDCHAR
STARTCHAR 3252
ENCODING 12882
SWIDTH 1008 0
DWIDTH 14 0
BBX 14 14 0 -2
BITMAP
0F80
38E0
6DD0
F768
F7B8
B5B4
8C6C
98CC
B18C
DEF8
FDE8
6030
38E0
0F80
ENDCHAR
STARTCHAR 3253
ENCODING 12883
SWIDTH 1008 0
DWIDTH 14 0
BBX 14 14 0 -2
BITMAP
0F80
38E0
6DD0
F7A8
F7B8
B474
8DEC
9874
B3B4
DFB8
FDE8
6030
38E0
0F80
ENDCHAR
STARTCHAR 3254
ENCODING 12884
SWIDTH 1008 0
DWIDTH 14 0
BBX 14 14 0 -2
BITMAP
0F80
38E0
6C70
F6E8
F6E8
B56C
8EEC
9BF4
B0EC
DEE8
FDE8
6030
38E0
0F80
ENDCHAR
STARTCHAR 3255
ENCODING 12885
SWIDTH 1008 0
DWIDTH 14 0
BBX 14 14 0 -2
BITMAP
0F80
38E0
6DF0
F7E8
F718
B5EC
8C74
9BB4
B3B4
DF78
FDE8
6030
38E0
0F80
ENDCHAR
STARTCHAR 3256
ENCODING 12886
SWIDTH 1008 0
DWIDTH 14 0
BBX 14 14 0 -2
BITMAP
0F80
38E0
6DD0
F7B8
F7B8
B58C
8DEC
9BB4
B3B4
DFB8
FDE8
6030
38E0
0F80
ENDCHAR
STARTCHAR 3257
ENCODING 12887
SWIDTH 1008 0
DWIDTH 14 0
BBX 14 14 0 -2
BITMAP
0F80
38E0
6DF0
F7E8
F668
B4CC
8CCC
99CC
B1CC
DED8
FDD8
6030
38E0
0F80
ENDCHAR
STARTCHAR 3258
ENCODING 12888
SWIDTH 1008 0
DWIDTH 14 0
BBX 14 14 0 -2
BITMAP
0F80
38E0
6DD0
F7B8
F7B8
B5B4
8DEC
9BB4
B3B4
DFB8
FDD8
6030
38E0
0F80
ENDCHAR
STARTCHAR 3259
ENCODING 12889
SWIDTH 1008 0
DWIDTH 14 0
BBX 14 14 0 -2
BITMAP
0F80
38E0
6DD0
F7A8
F7B8
B5B4
8DF4
9874
B3B4
DFB8
FDE8
6030
38E0
0F80
ENDCHAR
STARTCHAR 325A
ENCODING 12890
SWIDTH 1008 0
DWIDTH 14 0
BBX 14 14 0 -2
BITMAP
0F80
38E0
6DD0
F768
F768
8D6C
BB6C
8D6C
B76C
F768
DDD8
6030
38E0
0F80
ENDCHAR
STARTCHAR 325B
ENCODING 12891
SWIDTH 1008 0
DWIDTH 14 0
BBX 14 14 0 -2
BITMAP
0F80
38E0
6CF0
F6E8
F7E8
8CEC
B8EC
8CEC
B6EC
F6E8
DDF8
6030
38E0
0F80
ENDCHAR
STARTCHAR 325C
ENCODING 12892
SWIDTH 1008 0
DWIDTH 14 0
BBX 14 14 0 -2
BITMAP
0F80
38E0
6DD0
F768
F7B8
8DB4
B86C
8CCC
B68C
F6F8
DDE8
6030
38E0
0F80
ENDCHAR
STARTCHAR 325D
ENCODING 12893
SWIDTH 1008 0
DWIDTH 14 0
BBX 14 14 0 -2
BITMAP
0F80
38E0
6DD0
F7A8
F7B8
8C74
B9EC
8C74
B7B4
F7B8
DDE8
6030
38E0
0F80
ENDCHAR
STARTCHAR 325E
ENCODING 12894
SWIDTH 1008 0
DWIDTH 14 0
BBX 14 14 0 -2
BITMAP
0F80
38E0
6C70
F6E8
F6E8
8D6C
BB6C
8DF4
B6EC
F6E8
DDE8
6030
38E0
0F80
ENDCHAR
STARTCHAR 325F
ENCODING 12895
SWIDTH 1008 0
DWIDTH 14 0
BBX 14 14 0 -2
BITMAP
0F80
38E0
6DF0
F7E8
F718
8DEC
B874
8DB4
B7B4
F778
DDE8
6030
38E0
0F80
ENDCHAR
STARTCHAR 32A4
ENCODING 12964
SWIDTH 1008 0
DWIDTH 14 0
BBX 14 14 0 -2
BITMAP
0F80
38E0
6630
C618
C618
87CC
860C
860C
860C
C618
DFE8
6030
38E0
0F80
ENDCHAR
STARTCHAR 32A5
ENCODING 12965
SWIDTH 1008 0
DWIDTH 14 0
BBX 14 14 0 -2
BITMAP
0F80
38E0
6630
C618
DFE8
B66C
B66C
BFEC
B66C
C618
C618
6030
38E0
0F80
ENDCHAR
STARTCHAR 32A6
ENCODING 12966
SWIDTH 1008 0
DWIDTH 14 0
BBX 14 14 0 -2
BITMAP
0F80
38E0
6030
DFE8
C618
870C
878C
86CC
86CC
C618
C618
6030
38E0
0F80
ENDCHAR
STARTCHAR 32A7
ENCODING 12967
SWIDTH 1008 0
DWIDTH 14 0
BBX 14 14 0 -2
BITMAP
0F80
38E0
6C30
CC18
DFE8
8C0C
8FCC
9B0C
9B0C
D318
D7E8
6030
38E0
0F80
ENDCHAR
STARTCHAR 32A8
ENCODING 12968
SWIDTH 1008 0
DWIDTH 14 0
BBX 14 14 0 -2
BITMAP
0F80
38E0
6630
C618
DFE8
8C0C
8FCC
9CCC
9CCC
D7D8
ECD8
6030
38E0
0F80
ENDCHAR
STARTCHAR 32B1
ENCODING 12977
SWIDTH 1008 0
DWIDTH 14 0
BBX 14 14 0 -2
BITMAP
0F80
38E0
6DD0
F7B8
F7B8
8D8C
BBEC
8DB4
B7B4
F7B8
DDE8
6030
38E0
0F80
ENDCHAR
STARTCHAR 32B2
ENCODING 12978
SWIDTH 1008 0
DWIDTH 14 0
BBX 14 14 0 -2
BITMAP
0F80
38E0
6DF0
F7E8
F668
8CCC
B8CC
8DCC
B6CC
F6D8
DDD8
6030
38E0
0F80
ENDCHAR
STARTCHAR 32B3
ENCODING 12979
SWIDTH 1008 0
DWIDTH 14 0
BBX 14 14 0 -2
BITMAP
0F80
38E0
6DD0
F7B8
F7B8
8DB4
B9EC
8DB4
B7B4
F7B8
DDD8
6030
38E0
0F80
ENDCHAR
STARTCHAR 32B4
ENCODING 12980
SWIDTH 1008 0
DWIDTH 14 0
BBX 14 14 0 -2
BITMAP
0F80
38E0
6DD0
F7A8
F7B8
8DB4
B9F4
8C74
B7B4
F7B8
DDE8
6030
38E0
0F80
ENDCHAR
STARTCHAR 32B5
ENCODING 12981
SWIDTH 1008 0
DWIDTH 14 0
BBX 14 14 0 -2
BITMAP
0F80
38E0
6DD0
DD68
DD68
BD6C
AD6C
DD6C
FF6C
DD68
DDD8
6030
38E0
0F80
ENDCHAR
STARTCHAR 32B6
ENCODING 12982
SWIDTH 1008 0
DWIDTH 14 0
BBX 14 14 0 -2
BITMAP
0F80
38E0
6CF0
DDE8
DDE8
BCEC
ACEC
DCEC
FEEC
DCE8
DDF8
6030
38E0
0F80
ENDCHAR
STARTCHAR 32B7
ENCODING 12983
SWIDTH 1008 0
DWIDTH 14 0
BBX 14 14 0 -2
BITMAP
0F80
38E0
6DD0
DD68
DDB8
BDB4
AC6C
DCCC
FE8C
DDF8
DFE8
6030
38E0
0F80
ENDCHAR
STARTCHAR 32B8
ENCODING 12984
SWIDTH 1008 0
DWIDTH 14 0
BBX 14 14 0 -2
BITMAP
0F80
38E0
6DD0
DDA8
DDB8
BC74
ADEC
DC74
FFB4
DDB8
DDE8
6030
38E0
0F80
ENDCHAR
STARTCHAR 32B9
ENCODING 12985
SWIDTH 1008 0
DWIDTH 14 0
BBX 14 14 0 -2
BITMAP
0F80
38E0
6C70
DCE8
DDE8
BD6C
AEEC
DFF4
FEEC
DCE8
DDE8
6030
38E0
0F80
ENDCHAR
STARTCHAR 32BA
ENCODING 12986
SWIDTH 1008 0
DWIDTH 14 0
BBX 14 14 0 -2
BITMAP
0F80
38E0
6DF0
DDE8
DD18
BDEC
AC74
DDB4
FFB4
DD78
DDE8
6030
38E0
0F80
ENDCHAR
STARTCHAR 32BB
ENCODING 12987
SWIDTH 1008 0
DWIDTH 14 0
BBX 14 14 0 -2
BITMAP
0F80
38E0
6DD0
DDF8
DDB8
BD8C
ADEC
DDB4
FFB4
DDB8
DDE8
6030
38E0
0F80
ENDCHAR
STARTCHAR 32BC
ENCODING 12988
SWIDTH 1008 0
DWIDTH 14 0
BBX 14 14 0 -2
BITMAP
0F80
38E0
6DF0
DDE8
DE68
BCCC
ACCC
DDCC
FECC
DDD8
DDD8
6030
38E0
0F80
ENDCHAR
STARTCHAR 32BD
ENCODING 12989
SWIDTH 1008 0
DWIDTH 14 0
BBX 14 14 0 -2
BITMAP
0F80
38E0
6DD0
DDB8
DDB8
BDB4
ADEC
DDB4
FFB4
DDB8
DDD8
6030
38E0
0F80
ENDCHAR
STARTCHAR 32BE
ENCODING 12990
SWIDTH 1008 0
DWIDTH 14 0
BBX 14 14 0 -2
BITMAP
0F80
38E0
6DD0
DDA8
DDB8
BDB4
ADF4
DC74
FFB4
DDB8
DDD8
6030
38E0
0F80
ENDCHAR
STARTCHAR 32BF
ENCODING 12991
SWIDTH 1008 0
DWIDTH 14 0
BBX 14 14 0 -2
BITMAP
0F80
38E0
7ED0
DD68
D368
BD6C
8F6C
B76C
B76C
EF68
DDD8
6030
38E0
0F80
ENDCHAR
STARTCHAR 32D0
ENCODING 13008
SWIDTH 1008 0
DWIDTH 14 0
BBX 14 14 0 -2
BITMAP
0F80
38E0
6030
C018
E3E8
BE6C
86CC
838C
830C
C318
C618
6C30
38E0
0F80
ENDCHAR
STARTCHAR 32D1
ENCODING 13009
SWIDTH 1008 0
DWIDTH 14 0
BBX 14 14 0 -2
BITMAP
0F80
38E0
6070
C198
C318
8F0C
BB0C
830C
830C
C318
C318
6330
3B60
0F80
ENDCHAR
STARTCHAR 32D2
ENCODING 13010
SWIDTH 1008 0
DWIDTH 14 0
BBX 14 14 0 -2
BITMAP
0F80
38E0
6630
C318
C3E8
BE6C
986C
98CC
80CC
C198
C318
6630
38E0
0F80
ENDCHAR
STARTCHAR 32D3
ENCODING 13011
SWIDTH 1008 0
DWIDTH 14 0
BBX 14 14 0 -2
BITMAP
0F80
38E0
6030
C018
C3D8
BE0C
860C
860C
860C
C7D8
DC68
6030
38E0
0F80
ENDCHAR
STARTCHAR 32D4
ENCODING 13012
SWIDTH 1008 0
DWIDTH 14 0
BBX 14 14 0 -2
BITMAP
0F80
38E0
6330
C198
D1E8
9F8C
838C
868C
8D8C
D998
D398
61B0
38E0
0F80
ENDCHAR
STARTCHAR 32D5
ENCODING 13013
SWIDTH 1008 0
DWIDTH 14 0
BBX 14 14 0 -2
BITMAP
0F80
38E0
6630
C318
D3E8
9F6C
866C
8C6C
8C6C
D8D8
D358
61B0
38E0
0F80
ENDCHAR
STARTCHAR 32D6
ENCODING 13014
SWIDTH 1008 0
DWIDTH 14 0
BBX 14 14 0 -2
BITMAP
0F80
38E0
6030
CC18
C6D8
8F0C
BA0C
836C
8F8C
DB18
C318
61B0
39E0
0F80
ENDCHAR
STARTCHAR 32D7
ENCODING 13015
SWIDTH 1008 0
DWIDTH 14 0
BBX 14 14 0 -2
BITMAP
0F80
38E0
6C30
C618
C7E8
866C
8C6C
98CC
80CC
C198
C318
6E30
3CE0
0F80
ENDCHAR
STARTCHAR 32D8
ENCODING 13016
SWIDTH 1008 0
DWIDTH 14 0
BBX 14 14 0 -2
BITMAP
0F80
38E0
6830
CC18
CCE8
9F8C
9B0C
B18C
818C
C198
C318
6330
3AE0
0F80
ENDCHAR
STARTCHAR 32D9
ENCODING 13017
SWIDTH 1008 0
DWIDTH 14 0
BBX 14 14 0 -2
BITMAP
0F80
38E0
6030
C018
D3E8
9E6C
806C
806C
80CC
C0D8
C7D8
6CD0
38E0
0F80
ENDCHAR
STARTCHAR 32DA
ENCODING 13018
SWIDTH 1008 0
DWIDTH 14 0
BBX 14 14 0 -2
BITMAP
0F80
38E0
6330
D998
CD98
B5EC
9F8C
8D8C
8D8C
C198
C318
6330
3AE0
0F80
ENDCHAR
STARTCHAR 32DB
ENCODING 13019
SWIDTH 1008 0
DWIDTH 14 0
BBX 14 14 0 -2
BITMAP
0F80
38E0
6030
CE18
C318
9C0C
860C
806C
806C
C0D8
DB98
6E30
38E0
0F80
ENDCHAR
STARTCHAR 32DC
ENCODING 13020
SWIDTH 1008 0
DWIDTH 14 0
BBX 14 14 0 -2
BITMAP
0F80
38E0
6030
D3D8
DED8
818C
818C
830C
838C
C6D8
CC68
7870
38E0
0F80
ENDCHAR
STARTCHAR 32DD
ENCODING 13021
SWIDTH 1008 0
DWIDTH 14 0
BBX 14 14 0 -2
BITMAP
0F80
38E0
6030
D018
D9E8
9B6C
9CCC
B98C
980C
D818
CCE8
67B0
38E0
0F80
ENDCHAR
STARTCHAR 32DE
ENCODING 13022
SWIDTH 1008 0
DWIDTH 14 0
BBX 14 14 0 -2
BITMAP
0F80
38E0
6030
C0D8
D068
986C
986C
80CC
80CC
C198
C318
6630
3CE0
0F80
ENDCHAR
STARTCHAR 32DF
ENCODING 13023
SWIDTH 1008 0
DWIDTH 14 0
BBX 14 14 0 -2
BITMAP
0F80
38E0
6630
C318
C3E8
866C
8E6C
9B4C
81CC
C198
C318
6E30
3CE0
0F80
ENDCHAR
STARTCHAR 32E0
ENCODING 13024
SWIDTH 1008 0
DWIDTH 14 0
BBX 14 14 0 -2
BITMAP
0F80
38E0
6030
C398
DE18
830C
A7F4
BD8C
818C
C198
C318
6330
3AE0
0F80
ENDCHAR
STARTCHAR 32E1
ENCODING 13025
SWIDTH 1008 0
DWIDTH 14 0
BBX 14 14 0 -2
BITMAP
0F80
38E0
6030
C018
CCD8
B66C
9A6C
98CC
80CC
C0D8
C198
6330
3AE0
0F80
ENDCHAR
STARTCHAR 32E2
ENCODING 13026
SWIDTH 1008 0
DWIDTH 14 0
BBX 14 14 0 -2
BITMAP
0F80
38E0
6030
DBD8
CE18
80EC
B78C
9D8C
818C
C318
C318
6630
3CE0
0F80
ENDCHAR
STARTCHAR 32E3
ENCODING 13027
SWIDTH 1008 0
DWIDTH 14 0
BBX 14 14 0 -2
BITMAP
0F80
38E0
6030
D818
CC18
8C0C
8E0C
8D8C
8CCC
CC18
CC18
6C30
3CE0
0F80
ENDCHAR
STARTCHAR 32E5
ENCODING 13029
SWIDTH 1008 0
DWIDTH 14 0
BBX 14 14 0 -2
BITMAP
0F80
38E0
6030
C018
C798
9C0C
800C
800C
800C
C7D8
FC68
6030
38E0
0F80
ENDCHAR
STARTCHAR 32E9
ENCODING 13033
SWIDTH 1008 0
DWIDTH 14 0
BBX 14 14 0 -2
BITMAP
0F80
38E0
6030
C018
D998
8CCC
8CCC
8C6C
986C
D868
D068
6030
38E0
0F80
ENDCHAR
STARTCHAR 32EC
ENCODING 13036
SWIDTH 1008 0
DWIDTH 14 0
BBX 14 14 0 -2
BITMAP
0F80
38E0
6030
C018
CC18
8C0C
9A0C
9B0C
B18C
C0E8
C018
6030
38E0
0F80
ENDCHAR
STARTCHAR 32ED
ENCODING 13037
SWIDTH 1008 0
DWIDTH 14 0
BBX 14 14 0 -2
BITMAP
0F80
38E0
6630
C318
D3E8
9F0C
830C
834C
9B6C
DB68
D368
6730
3B60
0F80
ENDCHAR
STARTCHAR 32FA
ENCODING 13050
SWIDTH 1008 0
DWIDTH 14 0
BBX 14 14 0 -2
BITMAP
0F80
38E0
6030
C018
E3E8
BE6C
B06C
B0CC
B0CC
DBD8
DE68
6830
38E0
0F80
ENDCHAR
STARTCHAR 3303
ENCODING 13059
SWIDTH 1008 0
DWIDTH 14 0
BBX 14 13 0 -1
BITMAP
DE00
7680
1CFC
1800
3000
6000
3000
D800
6800
6A00
6A00
6C00
D800
ENDCHAR
STARTCHAR 330D
ENCODING 13069
SWIDTH 1008 0
DWIDTH 14 0
BBX 14 14 0 -2
BITMAP
3000
DEBC
76EC
36CC
66DC
CCF4
1C00
1800
6C00
6D80
6CFC
0C00
1800
3000
ENDCHAR
STARTCHAR 3314
ENCODING 13076
SWIDTH 1008 0
DWIDTH 14 0
BBX 13 12 0 -1
BITMAP
6C00
3800
F000
1A00
3C00
E878
0DD8
0D98
0198
0198
01B8
01D8
ENDCHAR
STARTCHAR 3318
ENCODING 13080
SWIDTH 1008 0
DWIDTH 14 0
BBX 14 14 0 -2
BITMAP
6D58
7D70
699C
D8F4
180C
3018
6070
6000
3000
3000
6C00
6600
DE00
7600
ENDCHAR
STARTCHAR 3322
ENCODING 13090
SWIDTH 1008 0
DWIDTH 14 0
BBX 14 14 0 -2
BITMAP
C000
6ECC
766C
EC18
6018
60D0
3E60
0E00
7800
1F00
F800
1800
3000
6000
ENDCHAR
STARTCHAR 3323
ENCODING 13091
SWIDTH 1008 0
DWIDTH 14 0
BBX 14 14 0 -2
BITMAP
C000
6ECC
766C
EC18
6018
60D0
3E60
6000
3000
3000
3800
3600
3000
3000
ENDCHAR
STARTCHAR 3326
ENCODING 13094
SWIDTH 1008 0
DWIDTH 14 0
BBX 14 14 0 -2
BITMAP
1A00
CD00
6D00
6000
7000
6C00
60C0
6360
61A0
01AC
01AC
0368
0370
0660
ENDCHAR
STARTCHAR 3327
ENCODING 13095
SWIDTH 1008 0
DWIDTH 14 0
BBX 13 13 0 -1
BITMAP
C000
6000
6000
7000
6C00
6000
6380
60D8
0018
0030
0030
01A0
00C0
ENDCHAR
STARTCHAR 332B
ENCODING 13099
SWIDTH 1008 0
DWIDTH 14 0
BBX 14 14 0 -2
BITMAP
0600
6D00
B580
D6FC
D800
9800
0000
8060
DCD0
EB50
D8D8
D0D4
CDB0
7B30
ENDCHAR
STARTCHAR 3336
ENCODING 13110
SWIDTH 1008 0
DWIDTH 14 0
BBX 14 14 0 -2
BITMAP
0060
3078
30D8
6998
CC30
0660
00C0
6060
79B0
DCD0
ABD4
30D4
60D8
C1B0
ENDCHAR
STARTCHAR 333B
ENCODING 13115
SWIDTH 1008 0
DWIDTH 14 0
BBX 14 14 0 -2
BITMAP
0600
3500
3580
6AFC
CC00
0600
0000
7680
1A80
E000
3600
0C00
6800
3000
ENDCHAR
STARTCHAR 3349
ENCODING 13129
SWIDTH 1008 0
DWIDTH 14 0
BBX 13 13 0 -1
BITMAP
7800
0C00
7800
0C00
F030
1D98
0198
0198
0198
00D8
0018
0030
0060
ENDCHAR
STARTCHAR 334A
ENCODING 13130
SWIDTH 1008 0
DWIDTH 14 0
BBX 14 14 0 -2
BITMAP
7830
0CD8
78D8
0CD8
F018
1C30
0060
3460
35B0
6CD0
B7D4
D0D4
D8D8
99B0
ENDCHAR
STARTCHAR 334D
ENCODING 13133
SWIDTH 1008 0
DWIDTH 14 0
BBX 14 14 0 -2
BITMAP
1800
0C00
7580
18FC
1C00
7600
C000
6060
31B0
30D0
38D4
36D4
30D8
31B0
ENDCHAR
STARTCHAR 3351
ENCODING 13137
SWIDTH 1008 0
DWIDTH 14 0
BBX 13 14 1 -2
BITMAP
3000
D800
D9B0
D8D8
1B18
31B0
6060
C0C0
6360
61A0
71A8
6DA8
61B0
6360
ENDCHAR
STARTCHAR 3357
ENCODING 13143
SWIDTH 1008 0
DWIDTH 14 0
BBX 14 14 0 -2
BITMAP
DE00
7600
66D8
6C6C
0D8C
18D8
3030
6000
3000
3000
3800
3600
3000
3000
ENDCHAR
STARTCHAR 337B
ENCODING 13179
SWIDTH 1008 0
DWIDTH 14 0
BBX 14 12 0 -1
BITMAP
00D0
FED8
18D8
DBFC
6D60
6B6C
FFD4
1B58
1B50
1B74
1ADC
1A98
ENDCHAR
STARTCHAR 337C
ENCODING 13180
SWIDTH 1008 0
DWIDTH 14 0
BBX 14 11 0 0
BITMAP
1F7C
F5D4
D554
DBF4
F6D4
D5D4
DF74
F6D4
D6D4
3EDC
36D4
ENDCHAR
STARTCHAR 337D
ENCODING 13181
SWIDTH 1008 0
DWIDTH 14 0
BBX 14 11 0 0
BITMAP
1BFC
1860
1860
FE60
1860
19B8
35A0
35A0
66A0
66A0
C3FC
ENDCHAR
STARTCHAR 337E
ENCODING 13182
SWIDTH 1008 0
DWIDTH 14 0
BBX 14 11 0 0
BITMAP
1E98
FAD0
DAD4
DE6C
FAAC
DAF4
DE00
FAFC
DAAC
36BC
6EAC
ENDCHAR
STARTCHAR 338E
ENCODING 13198
SWIDTH 1008 0
DWIDTH 14 0
BBX 14 10 0 2
BITMAP
F4EC
6AD4
6AB0
6AD0
6AE0
6AC0
6AB8
EB9C
019C
00F8
ENDCHAR
STARTCHAR 338F
ENCODING 13199
SWIDTH 1008 0
DWIDTH 14 0
BBX 14 13 0 -1
BITMAP
E000
6000
6000
6EEC
6DD4
69B0
79D0
7CE0
6EC0
6EB8
F79C
019C
00F8
ENDCHAR
STARTCHAR 339C
ENCODING 13212
SWIDTH 1008 0
DWIDTH 14 0
BBX 14 8 0 2
BITMAP
F5D0
6AA8
6AA8
6AA8
6AA8
6AA8
6AA8
EAAC
ENDCHAR
STARTCHAR 339D
ENCODING 13213
SWIDTH 1008 0
DWIDTH 14 0
BBX 14 8 0 2
BITMAP
3DD0
6EA8
E6A8
E1A8
E1A8
E6A8
6DA8
3BAC
ENDCHAR
STARTCHAR 339E
ENCODING 13214
SWIDTH 1008 0
DWIDTH 14 0
BBX 14 11 0 -1
BITMAP
E000
6000
6000
6FD0
6DA8
69A8
79A8
7DA8
6EA8
6EA8
F7AC
ENDCHAR
STARTCHAR 33A1
ENCODING 13217
SWIDTH 1008 0
DWIDTH 14 0
BBX 13 12 1 -2
BITMAP
0070
00D8
0030
0060
EDB8
76C0
76C0
76C0
76C0
76C0
76C0
FFE0
ENDCHAR
STARTCHAR 33C4
ENCODING 13252
SWIDTH 1008 0
DWIDTH 14 0
BBX 12 8 1 2
BITMAP
39E0
6D70
EF30
E700
E700
E730
6D60
39C0
ENDCHAR
STARTCHAR 33CB
ENCODING 13259
SWIDTH 1008 0
DWIDTH 14 0
BBX 14 11 0 -1
BITMAP
F7E0
E738
E71C
E71C
E738
FFE0
E700
E700
E700
E700
F7C0
ENDCHAR
STARTCHAR 33CD
ENCODING 13261
SWIDTH 1008 0
DWIDTH 14 0
BBX 14 12 0 -1
BITMAP
EEDC
EDD8
E9D0
E9D0
F1E0
F1E0
F9F0
E9D0
EDD8
EEDC
EEDC
060C
ENDCHAR
STARTCHAR 3402
ENCODING 13314
SWIDTH 1008 0
DWIDTH 14 0
BBX 14 14 0 -2
BITMAP
0C00
0C00
0C7C
0FC0
7C18
0C18
07F8
0000
6698
6DB0
F3C0
618C
668C
3EFC
ENDCHAR
STARTCHAR 3406
ENCODING 13318
SWIDTH 1008 0
DWIDTH 14 0
BBX 5 3 4 -2
BITMAP
38
70
C0
ENDCHAR
STARTCHAR 342C
ENCODING 13356
SWIDTH 1008 0
DWIDTH 14 0
BBX 14 1 0 11
BITMAP
FFFC
ENDCHAR
STARTCHAR 342E
ENCODING 13358
SWIDTH 1008 0
DWIDTH 14 0
BBX 8 5 3 2
BITMAP
E0
38
0C
06
03
ENDCHAR
STARTCHAR 3468
ENCODING 13416
SWIDTH 1008 0
DWIDTH 14 0
BBX 12 11 1 -1
BITMAP
0600
0600
0600
0600
FFF0
0600
0600
0600
0600
0000
FFF0
ENDCHAR
STARTCHAR 346A
ENCODING 13418
SWIDTH 1008 0
DWIDTH 14 0
BBX 7 14 6 -2
BITMAP
FE
C0
C0
C0
C0
C0
C0
C0
C0
C0
C0
C0
C0
C0
ENDCHAR
STARTCHAR 3492
ENCODING 13458
SWIDTH 1008 0
DWIDTH 14 0
BBX 14 13 0 -1
BITMAP
0300
0680
0CC0
1860
3030
6018
C00C
6018
3030
1860
0CC0
0680
0300
ENDCHAR
STARTCHAR 34B5
ENCODING 13493
SWIDTH 1008 0
DWIDTH 14 0
BBX 12 14 1 -2
BITMAP
0600
0C00
7FE0
6060
6060
7FE0
6060
6060
7FE0
6060
30C0
3060
6030
C030
ENDCHAR
STARTCHAR 34BC
ENCODING 13500
SWIDTH 1008 0
DWIDTH 14 0
BBX 13 9 0 0
BITMAP
0C00
1C00
3C00
77F8
C018
77F8
3C00
1C00
0C00
ENDCHAR
STARTCHAR 34C1
ENCODING 13505
SWIDTH 1008 0
DWIDTH 14 0
BBX 13 14 0 -2
BITMAP
3300
3300
3300
FFF8
3698
3598
3198
3B58
3368
F378
37B8
3018
3018
7070
ENDCHAR
STARTCHAR 34C7
ENCODING 13511
SWIDTH 1008 0
DWIDTH 14 0
BBX 14 11 0 -1
BITMAP
FE00
0380
00C0
00C0
0060
036C
01A8
00F0
00F0
0060
0060
ENDCHAR
STARTCHAR 34DB
ENCODING 13531
SWIDTH 1008 0
DWIDTH 14 0
BBX 13 13 0 -1
BITMAP
07F8
0198
FD98
3198
3198
3198
3198
3198
3D18
E318
0330
0630
0CE0
ENDCHAR
STARTCHAR 351F
ENCODING 13599
SWIDTH 1008 0
DWIDTH 14 0
BBX 12 11 1 -1
BITMAP
F9F0
70E0
70E0
70E0
70E0
7FE0
70E0
70E0
70E0
70E0
F9F0
ENDCHAR
STARTCHAR 355D
ENCODING 13661
SWIDTH 1008 0
DWIDTH 14 0
BBX 12 11 1 -1
BITMAP
7B00
3C00
7800
DB80
3DC0
38E0
38E0
38E0
38E0
38E0
7DF0
ENDCHAR
STARTCHAR 355E
ENCODING 13662
SWIDTH 1008 0
DWIDTH 14 0
BBX 14 11 0 -1
BITMAP
F7E0
E738
E71C
E71C
E738
FFE0
E700
E700
E700
E700
F7C0
ENDCHAR
STARTCHAR 3563
ENCODING 13667
SWIDTH 1008 0
DWIDTH 14 0
BBX 10 8 2 2
BITMAP
3E00
7300
7380
1F80
7380
E380
E780
7DC0
ENDCHAR
STARTCHAR 356E
ENCODING 13678
SWIDTH 1008 0
DWIDTH 14 0
BBX 9 10 2 2
BITMAP
3F80
7700
6700
6600
3C00
7000
7F00
E780
6180
3F00
ENDCHAR
STARTCHAR 35A6
ENCODING 13734
SWIDTH 1008 0
DWIDTH 14 0
BBX 10 7 2 4
BITMAP
C300
C180
C0C0
C1C0
6800
7000
3000
ENDCHAR
STARTCHAR 35A8
ENCODING 13736
SWIDTH 1008 0
DWIDTH 14 0
BBX 9 14 2 -2
BITMAP
1800
0F00
0000
0000
1F00
F180
0180
0180
0180
0180
0300
0300
0600
0C00
ENDCHAR
STARTCHAR 35C5
ENCODING 13765
SWIDTH 1008 0
DWIDTH 14 0
BBX 7 14 3 -2
BITMAP
0C
06
06
0C
18
70
C0
C0
60
30
18
0C
06
06
ENDCHAR
STARTCHAR 35DA
ENCODING 13786
SWIDTH 1008 0
DWIDTH 14 0
BBX 11 12 2 -1
BITMAP
C180
66C0
6300
6000
6000
6000
6000
6000
6060
60C0
3380
1E00
ENDCHAR
STARTCHAR 35F4
ENCODING 13812
SWIDTH 1008 0
DWIDTH 14 0
BBX 14 14 0 -2
BITMAP
1800
0C18
0DCC
CF30
7C18
1800
19C0
1B60
3C30
3030
0030
0060
01C0
0F00
ENDCHAR
STARTCHAR 3605
ENCODING 13829
SWIDTH 1008 0
DWIDTH 14 0
BBX 12 14 1 -2
BITMAP
1800
0C00
0D00
FE00
19E0
3070
30C0
6180
6180
C180
0F80
19C0
19A0
0F00
ENDCHAR
STARTCHAR 364A
ENCODING 13898
SWIDTH 1008 0
DWIDTH 14 0
BBX 11 14 3 -2
BITMAP
0C00
0600
06C0
0D60
1B60
71C0
C000
C000
6000
3000
1800
0C00
0600
0600
ENDCHAR
STARTCHAR 3691
ENCODING 13969
SWIDTH 1008 0
DWIDTH 14 0
BBX 11 13 1 -1
BITMAP
0C00
0600
07E0
0C60
0CC0
1AC0
3380
6180
0300
0600
0C00
3800
E000
ENDCHAR
STARTCHAR 3696
ENCODING 13974
SWIDTH 1008 0
DWIDTH 14 0
BBX 9 8 2 4
BITMAP
3300
D980
6980
6300
0300
0600
0C00
1800
ENDCHAR
STARTCHAR 3699
ENCODING 13977
SWIDTH 1008 0
DWIDTH 14 0
BBX 12 13 1 -1
BITMAP
0180
0700
7C00
0600
03F0
CF00
7B00
0300
0300
0600
0600
0C00
1800
ENDCHAR
STARTCHAR 36CF
ENCODING 14031
SWIDTH 1008 0
DWIDTH 14 0
BBX 13 13 1 -2
BITMAP
0070
00D8
CFD8
79B0
0180
0300
0300
0600
0600
0C00
1800
3000
6000
ENDCHAR
STARTCHAR 3761
ENCODING 14177
SWIDTH 1008 0
DWIDTH 14 0
BBX 8 7 6 5
BITMAP
FF
C0
C0
C0
C0
C0
C0
ENDCHAR
STARTCHAR 3762
ENCODING 14178
SWIDTH 1008 0
DWIDTH 14 0
BBX 8 8 0 -2
BITMAP
03
03
03
03
03
03
03
FF
ENDCHAR
STARTCHAR 376B
ENCODING 14187
SWIDTH 1008 0
DWIDTH 14 0
BBX 8 14 0 -2
BITMAP
03
03
03
03
03
03
03
FF
03
03
03
03
03
03
ENDCHAR
STARTCHAR 376C
ENCODING 14188
SWIDTH 1008 0
DWIDTH 14 0
BBX 14 7 0 5
BITMAP
FFFC
0300
0300
0300
0300
0300
0300
ENDCHAR
STARTCHAR 3775
ENCODING 14197
SWIDTH 1008 0
DWIDTH 14 0
BBX 14 2 0 4
BITMAP
FFFC
FFFC
ENDCHAR
STARTCHAR 378D
ENCODING 14221
SWIDTH 1008 0
DWIDTH 14 0
BBX 14 13 0 -1
BITMAP
3FF8
3018
3FF8
3000
3300
3FE0
3360
3560
3760
6760
66AC
CDAC
383C
ENDCHAR
STARTCHAR 37C1
ENCODING 14273
SWIDTH 1008 0
DWIDTH 14 0
BBX 8 14 0 -2
BITMAP
03
03
03
03
03
03
FF
FF
03
03
03
03
03
03
ENDCHAR
STARTCHAR 37E2
ENCODING 14306
SWIDTH 1008 0
DWIDTH 14 0
BBX 14 14 0 -2
BITMAP
3330
3330
3FF0
0300
7FF8
0CC0
3860
FFFC
0030
3F30
3330
3F30
3330
0070
ENDCHAR
STARTCHAR 37E8
ENCODING 14312
SWIDTH 1008 0
DWIDTH 14 0
BBX 14 14 0 -2
BITMAP
0F80
38E0
6DD0
DD68
DDB8
BDB4
AC6C
DCCC
FE8C
DDF8
DFE8
6030
38E0
0F80
ENDCHAR
STARTCHAR 37F4
ENCODING 14324
SWIDTH 1008 0
DWIDTH 14 0
BBX 14 14 0 -2
BITMAP
0F80
38E0
6DF0
DDE8
DD18
BDEC
AC74
DDB4
FFB4
DD78
DDE8
6030
38E0
0F80
ENDCHAR
STARTCHAR 37FD
ENCODING 14333
SWIDTH 1008 0
DWIDTH 14 0
BBX 14 14 0 -2
BITMAP
0F80
38E0
6DD0
DDB8
DDB8
BDB4
ADEC
DDB4
FFB4
DDB8
DDD8
6030
38E0
0F80
ENDCHAR
STARTCHAR 3800
ENCODING 14336
SWIDTH 1008 0
DWIDTH 14 0
BBX 14 14 0 -2
BITMAP
0F80
38E0
7ED0
DD68
D368
BD6C
8F6C
B76C
B76C
EF68
DDD8
6030
38E0
0F80
ENDCHAR
STARTCHAR 382F
ENCODING 14383
SWIDTH 1008 0
DWIDTH 14 0
BBX 13 12 0 -2
BITMAP
0CC0
0680
0300
0780
0780
0DC0
0DC0
18E0
1FE0
3070
3070
F8F8
ENDCHAR
STARTCHAR 3836
ENCODING 14390
SWIDTH 1008 0
DWIDTH 14 0
BBX 7 11 3 -1
BITMAP
66
34
18
00
F8
38
38
38
38
38
FE
ENDCHAR
STARTCHAR 3840
ENCODING 14400
SWIDTH 1008 0
DWIDTH 14 0
BBX 11 12 1 -2
BITMAP
1C00
F5E0
76C0
78C0
6CC0
6CC0
6EC0
6740
6740
63C0
61C0
F1C0
ENDCHAR
STARTCHAR 385C
ENCODING 14428
SWIDTH 1008 0
DWIDTH 14 0
BBX 11 12 2 -2
BITMAP
7F80
0000
7380
7380
0000
F7C0
71C0
71C0
71C0
71C0
73C0
3EE0
ENDCHAR
STARTCHAR 3861
ENCODING 14433
SWIDTH 1008 0
DWIDTH 14 0
BBX 11 12 2 -2
BITMAP
3300
1A00
7580
7380
0000
F7C0
71C0
71C0
71C0
71C0
73C0
3EE0
ENDCHAR
STARTCHAR 38FA
ENCODING 14586
SWIDTH 1008 0
DWIDTH 14 0
BBX 13 11 0 -1
BITMAP
01B0
03F8
01B0
F700
66F8
76D8
75D8
75D8
39D8
39D8
3BF8
ENDCHAR
STARTCHAR 3917
ENCODING 14615
SWIDTH 1008 0
DWIDTH 14 0
BBX 14 14 0 -2
BITMAP
0F80
38E0
67B0
CED8
CE18
9F8C
8E0C
8E0C
8E0C
CE18
DF98
6030
38E0
0F80
ENDCHAR
STARTCHAR 391A
ENCODING 14618
SWIDTH 1008 0
DWIDTH 14 0
BBX 14 14 0 -2
BITMAP
0F80
38E0
63B0
C398
C018
8F8C
838C
838C
838C
DB98
DB18
6E30
38E0
0F80
ENDCHAR
STARTCHAR 396F
ENCODING 14703
SWIDTH 1008 0
DWIDTH 14 0
BBX 14 14 0 -2
BITMAP
0F80
38E0
6630
C318
D3E8
9F6C
866C
8C6C
8C6C
D8D8
D358
61B0
38E0
0F80
ENDCHAR
STARTCHAR 3A73
ENCODING 14963
SWIDTH 1008 0
DWIDTH 14 0
BBX 14 12 0 -1
BITMAP
00D0
FED8
18D8
DBFC
6D60
6B6C
FFD4
1B58
1B50
1B74
1ADC
1A98
ENDCHAR
STARTCHAR 3AD7
ENCODING 15063
SWIDTH 1008 0
DWIDTH 14 0
BBX 14 14 0 -2
BITMAP
18C0
18E0
19B0
37E8
3358
7340
D7F8
34C0
30C0
37FC
30C0
30C0
30C0
30C0
ENDCHAR
STARTCHAR 3B0E
ENCODING 15118
SWIDTH 1008 0
DWIDTH 14 0
BBX 14 14 0 -2
BITMAP
18C0
18C0
18C0
37FC
31A0
7360
D3FC
376C
356C
3B6C
336C
3378
3060
3060
ENDCHAR
STARTCHAR 3B1A
ENCODING 15130
SWIDTH 1008 0
DWIDTH 14 0
BBX 13 14 0 -2
BITMAP
1800
1BF8
1A18
3618
36E8
76A8
D6A8
36A8
36A8
36E8
3618
3618
37F8
3618
ENDCHAR
STARTCHAR 3B1C
ENCODING 15132
SWIDTH 1008 0
DWIDTH 14 0
BBX 14 14 0 -2
BITMAP
19F0
1830
1B30
3318
3618
75F4
D330
33F0
3330
33F0
3330
3330
3330
3370
ENDCHAR
STARTCHAR 3B22
ENCODING 15138
SWIDTH 1008 0
DWIDTH 14 0
BBX 14 14 0 -2
BITMAP
0330
01A0
FFFC
D8C0
DBF8
D8C0
FFFC
DBA8
DB6C
DFFC
FBA8
DF30
C36C
070C
ENDCHAR
STARTCHAR 3B6D
ENCODING 15213
SWIDTH 1008 0
DWIDTH 14 0
BBX 13 13 1 -1
BITMAP
FFF0
C300
DB60
DBE0
DF60
FB60
DBC0
DB30
D830
CFF0
C000
FFF8
C000
ENDCHAR
STARTCHAR 3B77
ENCODING 15223
SWIDTH 1008 0
DWIDTH 14 0
BBX 13 14 0 -2
BITMAP
00C0
7EC0
0CC0
1F40
FBF8
18D8
38D8
7F58
7558
7558
7558
7F98
F198
0370
ENDCHAR
STARTCHAR 3B87
ENCODING 15239
SWIDTH 1008 0
DWIDTH 14 0
BBX 14 12 0 -1
BITMAP
0FFC
F9A0
D9A0
DBB8
DA18
DA18
DA18
DBB8
FAA8
D9A0
C1A0
1FFC
ENDCHAR
STARTCHAR 3B88
ENCODING 15240
SWIDTH 1008 0
DWIDTH 14 0
BBX 14 13 0 -1
BITMAP
03F8
FB58
DB58
DBF8
DB58
DBF8
D8C0
DBFC
FAD4
DAFC
C79C
060C
061C
ENDCHAR
STARTCHAR 3B8D
ENCODING 15245
SWIDTH 1008 0
DWIDTH 14 0
BBX 13 13 0 -1
BITMAP
07F0
F630
D7F0
D630
D7F0
D600
D7F8
F598
D5D8
DD68
0E18
0FE8
0C70
ENDCHAR
STARTCHAR 3BA4
ENCODING 15268
SWIDTH 1008 0
DWIDTH 14 0
BBX 14 14 0 -2
BITMAP
0360
1FFC
F360
D7F0
D7F0
D630
D7F0
D300
D7F8
F598
DDD8
CE68
0FE8
0C70
ENDCHAR
STARTCHAR 3BB6
ENCODING 15286
SWIDTH 1008 0
DWIDTH 14 0
BBX 14 14 0 -2
BITMAP
3580
36BC
376C
FFEC
337C
356C
756C
7D6C
DFFC
D56C
356C
336C
36CC
359C
ENDCHAR
STARTCHAR 3BC3
ENCODING 15299
SWIDTH 1008 0
DWIDTH 14 0
BBX 14 14 0 -2
BITMAP
30C0
30C0
37FC
FDE0
3350
3ADC
75A0
7738
76DC
D350
D1E0
3758
34CC
31C0
ENDCHAR
STARTCHAR 3BCD
ENCODING 15309
SWIDTH 1008 0
DWIDTH 14 0
BBX 14 14 0 -2
BITMAP
3000
37FC
3018
3018
FDE8
3368
3368
3368
33E8
3568
3818
E018
0018
0038
ENDCHAR
STARTCHAR 3BF0
ENCODING 15344
SWIDTH 1008 0
DWIDTH 14 0
BBX 14 14 0 -2
BITMAP
31E0
3060
3330
37FC
FED8
3758
36D8
37F8
33F0
3D30
F3F0
0330
03F0
0330
ENDCHAR
STARTCHAR 3C0F
ENCODING 15375
SWIDTH 1008 0
DWIDTH 14 0
BBX 14 14 0 -2
BITMAP
3330
33DC
3770
FD98
3060
3BFC
75F0
75B0
71F0
D180
D7FC
36F4
36B4
36FC
ENDCHAR
STARTCHAR 3C26
ENCODING 15398
SWIDTH 1008 0
DWIDTH 14 0
BBX 14 14 0 -2
BITMAP
3318
3198
31B0
37FC
FCC0
6DF8
6CC0
6FFC
F8C0
DBFC
1DA0
35B0
6318
C60C
ENDCHAR
STARTCHAR 3CC3
ENCODING 15555
SWIDTH 1008 0
DWIDTH 14 0
BBX 13 13 0 -1
BITMAP
7EF8
6698
66B0
7EB0
01A0
FEB0
1998
1998
7E98
19D8
19B0
1E80
F180
ENDCHAR
STARTCHAR 3CD2
ENCODING 15570
SWIDTH 1008 0
DWIDTH 14 0
BBX 13 13 0 -1
BITMAP
F778
D558
F750
00D0
7EE0
6AD0
7ED8
6AD8
7ED8
18D8
FF70
18C0
18C0
ENDCHAR
STARTCHAR 3D11
ENCODING 15633
SWIDTH 1008 0
DWIDTH 14 0
BBX 14 14 0 -2
BITMAP
1800
1BFC
34C0
36C0
66C0
DD80
19F8
FF98
1998
6A98
3D98
3998
1EF8
F198
ENDCHAR
STARTCHAR 3D1E
ENCODING 15646
SWIDTH 1008 0
DWIDTH 14 0
BBX 13 14 0 -2
BITMAP
1800
1BF8
3558
3758
67F8
DD58
1B58
FFE8
1BA8
6BA8
3DE8
3B18
1FF8
F318
ENDCHAR
STARTCHAR 3D64
ENCODING 15716
SWIDTH 1008 0
DWIDTH 14 0
BBX 14 14 0 -2
BITMAP
1838
1BE8
35A8
36F0
67FC
DCF0
19A8
FF6C
19F8
6AA8
3DF8
39A8
1EF8
F198
ENDCHAR
STARTCHAR 3D9A
ENCODING 15770
SWIDTH 1008 0
DWIDTH 14 0
BBX 14 14 0 -2
BITMAP
19B0
1BF8
35B0
37FC
66D0
DD68
19FC
FE98
19F8
6AF8
3D98
39F8
1ED8
F70C
ENDCHAR
STARTCHAR 3DC0
ENCODING 15808
SWIDTH 1008 0
DWIDTH 14 0
BBX 12 13 1 -1
BITMAP
FDF0
CD30
FDF0
CD30
FDF0
D9B0
F750
DDD0
FFF0
D550
DDD0
DB30
D370
ENDCHAR
STARTCHAR 3DD4
ENCODING 15828
SWIDTH 1008 0
DWIDTH 14 0
BBX 13 14 1 -2
BITMAP
0180
F980
D980
D680
E680
D6F0
DA80
DA80
DA80
DA80
F680
C680
DFF8
C000
ENDCHAR
STARTCHAR 3E05
ENCODING 15877
SWIDTH 1008 0
DWIDTH 14 0
BBX 13 13 1 -1
BITMAP
FBF0
DA30
D7F0
E000
D7F0
DA30
DBF0
DA30
DBF0
F630
C7F0
C770
DC18
ENDCHAR
STARTCHAR 3E3F
ENCODING 15935
SWIDTH 1008 0
DWIDTH 14 0
BBX 14 14 0 -2
BITMAP
18C0
18C0
6BFC
68C0
7DF8
6800
6BFC
DB18
1EA0
F9A0
19A0
19AC
1B6C
1A3C
ENDCHAR
STARTCHAR 3E60
ENCODING 15968
SWIDTH 1008 0
DWIDTH 14 0
BBX 14 13 0 -1
BITMAP
3FF0
0300
7FFC
7D78
DD70
0700
3DF0
3EF0
3030
3FF0
068C
1D8C
F0FC
ENDCHAR
STARTCHAR 3E66
ENCODING 15974
SWIDTH 1008 0
DWIDTH 14 0
BBX 14 13 0 -1
BITMAP
3FF0
0300
7FFC
6318
DD70
3D70
30C0
D8FC
60C0
1BF8
3618
67F8
6618
ENDCHAR
STARTCHAR 3E68
ENCODING 15976
SWIDTH 1008 0
DWIDTH 14 0
BBX 14 13 0 -1
BITMAP
3FF0
0300
7FFC
6318
DD70
3D70
0680
7EF8
0680
7EF8
0680
FDFC
1980
ENDCHAR
STARTCHAR 3E83
ENCODING 16003
SWIDTH 1008 0
DWIDTH 14 0
BBX 14 13 0 -1
BITMAP
3FF0
0300
7FFC
7D78
DD70
0300
FFFC
7EF8
3550
ED7C
0FE0
1FE0
7060
ENDCHAR
STARTCHAR 3E94
ENCODING 16020
SWIDTH 1008 0
DWIDTH 14 0
BBX 14 14 0 -2
BITMAP
1838
19F0
FFA8
19AC
7F0C
19F8
FF68
7FFC
6A68
6AF8
7E68
6660
6660
6EE0
ENDCHAR
STARTCHAR 3F57
ENCODING 16215
SWIDTH 1008 0
DWIDTH 14 0
BBX 14 14 0 -2
BITMAP
18D0
18D8
34FC
3FD8
6670
FCF4
6D9C
7CD4
6CFC
7DD8
7E70
60F4
7F9C
600C
ENDCHAR
STARTCHAR 3F72
ENCODING 16242
SWIDTH 1008 0
DWIDTH 14 0
BBX 14 14 0 -2
BITMAP
0180
0180
1FFC
D800
6FFC
6980
1980
3BF8
6B18
DB18
3618
3018
6018
C070
ENDCHAR
STARTCHAR 3F75
ENCODING 16245
SWIDTH 1008 0
DWIDTH 14 0
BBX 14 14 0 -2
BITMAP
0E80
7980
19FC
FFF8
3D98
3AF8
6A98
D9F8
7EC0
66F8
7FB0
66E0
7EF0
671C
ENDCHAR
STARTCHAR 3F77
ENCODING 16247
SWIDTH 1008 0
DWIDTH 14 0
BBX 13 13 1 -1
BITMAP
0FF0
CD80
6FE0
6D80
0FE0
3580
37F8
60D8
6D68
DAA8
DA98
D030
00E0
ENDCHAR
STARTCHAR 3FAE
ENCODING 16302
SWIDTH 1008 0
DWIDTH 14 0
BBX 14 13 0 -1
BITMAP
7FFC
6B00
7D78
6B58
7D78
6B00
7FFC
1BB4
7FB4
7FFC
7700
CDFC
3B00
ENDCHAR
STARTCHAR 3FC9
ENCODING 16329
SWIDTH 1008 0
DWIDTH 14 0
BBX 14 14 0 -2
BITMAP
00D0
7FD4
68D8
7ED4
6B5C
7EF8
69A8
7EF8
1AF8
7ED0
7EF8
77FC
C6D8
1D8C
ENDCHAR
STARTCHAR 3FD7
ENCODING 16343
SWIDTH 1008 0
DWIDTH 14 0
BBX 14 13 0 -1
BITMAP
7EF8
6660
6E60
6A60
FFFC
C660
7E60
6660
7E60
6660
7E60
6660
6E60
ENDCHAR
STARTCHAR 4039
ENCODING 16441
SWIDTH 1008 0
DWIDTH 14 0
BBX 14 14 0 -2
BITMAP
0030
3F60
3E98
3E70
FFCC
3638
7FE0
18F8
FE98
39AC
3D70
6AD8
DBF4
180C
ENDCHAR
STARTCHAR 4058
ENCODING 16472
SWIDTH 1008 0
DWIDTH 14 0
BBX 12 13 1 -1
BITMAP
DDD0
D9B0
DDD0
DDD0
CF30
FFD0
DDD0
F5F0
FD70
F5F0
F5F0
FD70
F7F0
ENDCHAR
STARTCHAR 4093
ENCODING 16531
SWIDTH 1008 0
DWIDTH 14 0
BBX 14 14 0 -2
BITMAP
1800
1BFC
3E60
6DA8
FEAC
6B6C
7E60
6BFC
7E60
0C60
7A60
6E60
6860
C060
ENDCHAR
STARTCHAR 4105
ENCODING 16645
SWIDTH 1008 0
DWIDTH 14 0
BBX 14 14 0 -2
BITMAP
1800
1BFC
3ED0
6DFC
FF54
6BFC
7E00
6AF8
7E00
0DFC
7AA8
6EAC
6B6C
C0E0
ENDCHAR
STARTCHAR 4148
ENCODING 16712
SWIDTH 1008 0
DWIDTH 14 0
BBX 14 14 0 -2
BITMAP
35A8
1EF0
3BD8
7FFC
6318
DFE0
1860
1FE0
1FE0
1FFC
1FF8
6AD8
6D68
C070
ENDCHAR
STARTCHAR 414F
ENCODING 16719
SWIDTH 1008 0
DWIDTH 14 0
BBX 14 14 0 -2
BITMAP
00C0
FE80
33F0
3B30
6DF0
FB30
1BF0
1BFC
7F00
1BFC
1B54
1EAC
F68C
0C38
ENDCHAR
STARTCHAR 4163
ENCODING 16739
SWIDTH 1008 0
DWIDTH 14 0
BBX 14 14 0 -2
BITMAP
3300
367C
6F80
DD80
1F80
35BC
3798
77E8
D418
37D8
3758
3F58
3CD8
33B8
ENDCHAR
STARTCHAR 41B4
ENCODING 16820
SWIDTH 1008 0
DWIDTH 14 0
BBX 14 14 0 -2
BITMAP
0060
7EC0
66F8
6E98
6AF8
FF98
C3F8
7EFC
6680
7EFC
66D4
7FAC
674C
6E38
ENDCHAR
STARTCHAR 41BF
ENCODING 16831
SWIDTH 1008 0
DWIDTH 14 0
BBX 14 14 0 -2
BITMAP
1860
FF40
19F8
7E98
66F8
7E98
7EF8
66FC
7E80
01FC
FF54
1DAC
374C
E638
ENDCHAR
STARTCHAR 41E6
ENCODING 16870
SWIDTH 1008 0
DWIDTH 14 0
BBX 14 13 0 -2
BITMAP
0180
3FFC
36C0
3FF8
36D8
3FF8
3770
374C
3DBC
6FF8
6FF0
C180
3FFC
ENDCHAR
STARTCHAR 41EE
ENCODING 16878
SWIDTH 1008 0
DWIDTH 14 0
BBX 14 14 0 -2
BITMAP
0180
3FFC
3FF8
36D8
3FF8
67EC
DE7C
3FF0
37D0
3FF0
37B0
3D50
3FF0
3030
ENDCHAR
STARTCHAR 41F3
ENCODING 16883
SWIDTH 1008 0
DWIDTH 14 0
BBX 14 14 0 -2
BITMAP
0180
3FFC
36C0
3FF8
36D8
3FF8
6F70
CF4C
3B7C
1B60
FFFC
0FC0
FB7C
0300
ENDCHAR
STARTCHAR 4207
ENCODING 16903
SWIDTH 1008 0
DWIDTH 14 0
BBX 14 14 0 -2
BITMAP
0180
3FFC
3630
3FFC
3778
37BC
3AD4
3340
3F7C
3F78
63C0
7F7C
C6C0
1CC0
ENDCHAR
STARTCHAR 420E
ENCODING 16910
SWIDTH 1008 0
DWIDTH 14 0
BBX 14 14 0 -2
BITMAP
0E60
7860
1BFC
FFB8
3DE8
6AB8
DBD8
3DF8
6A60
EDFC
3D54
EBEC
1B0C
3B1C
ENDCHAR
STARTCHAR 4264
ENCODING 16996
SWIDTH 1008 0
DWIDTH 14 0
BBX 14 14 0 -2
BITMAP
30C0
3F7C
69A0
CD30
DB40
6AC0
FF7C
3D98
6B58
D8D0
FF60
3670
3CD8
E68C
ENDCHAR
STARTCHAR 42C6
ENCODING 17094
SWIDTH 1008 0
DWIDTH 14 0
BBX 14 14 0 -2
BITMAP
30C0
37FC
30C0
FDF8
D4C0
D7FC
D5F8
D518
D5F8
D5F8
DB18
33F8
33B8
360C
ENDCHAR
STARTCHAR 42D6
ENCODING 17110
SWIDTH 1008 0
DWIDTH 14 0
BBX 14 14 0 -2
BITMAP
00C0
FFFC
1800
1BF0
FB30
DBF0
C000
FBF8
D830
18E0
1FFC
18C0
18C0
71C0
ENDCHAR
STARTCHAR 42DD
ENCODING 17117
SWIDTH 1008 0
DWIDTH 14 0
BBX 14 14 0 -2
BITMAP
0600
07E0
0CC0
1F80
0180
FFFC
0300
6300
3330
33A0
1D40
3370
E31C
0F00
ENDCHAR
STARTCHAR 4302
ENCODING 17154
SWIDTH 1008 0
DWIDTH 14 0
BBX 14 14 0 -2
BITMAP
30D0
30D8
30D8
7BFC
74C0
74C0
D350
3350
3350
3354
36D4
36DC
34C0
30C0
ENDCHAR
STARTCHAR 432B
ENCODING 17195
SWIDTH 1008 0
DWIDTH 14 0
BBX 14 14 0 -2
BITMAP
3038
37E0
30C0
7BFC
75A0
75F0
D6A8
35EC
37F8
3618
36E8
36A8
36E8
3638
ENDCHAR
STARTCHAR 4343
ENCODING 17219
SWIDTH 1008 0
DWIDTH 14 0
BBX 14 14 0 -2
BITMAP
6660
6AA0
DFBC
3FD8
73A8
DE68
37B0
37B0
3ED8
030C
35B0
3598
6C6C
C7EC
ENDCHAR
STARTCHAR 43EE
ENCODING 17390
SWIDTH 1008 0
DWIDTH 14 0
BBX 14 14 0 -2
BITMAP
00C0
00C0
FBFC
DA18
DDF0
D800
F800
DFFC
D9A0
D9A0
FB60
DB6C
C66C
0C3C
ENDCHAR
STARTCHAR 43F0
ENCODING 17392
SWIDTH 1008 0
DWIDTH 14 0
BBX 13 13 0 -1
BITMAP
03F0
FB30
DBF0
DB30
DBF0
F980
DBF8
DAD8
DED8
FAA8
DB38
C7D8
0070
ENDCHAR
STARTCHAR 4408
ENCODING 17416
SWIDTH 1008 0
DWIDTH 14 0
BBX 14 13 0 -2
BITMAP
00C0
07F8
FB30
DFFC
DBF8
DAD8
FBF8
DAD8
DBF8
D8C0
FBF8
D8C0
CFFC
ENDCHAR
STARTCHAR 4417
ENCODING 17431
SWIDTH 1008 0
DWIDTH 14 0
BBX 14 14 0 -2
BITMAP
0038
07E0
F8C0
DFFC
DBF8
DB58
FAE8
DBF8
D8C0
DBF8
F8C0
DFFC
C6A8
0CD4
ENDCHAR
STARTCHAR 441C
ENCODING 17436
SWIDTH 1008 0
DWIDTH 14 0
BBX 14 14 0 -2
BITMAP
0300
FFFC
0300
3FF0
3330
3FF0
3330
3FF0
1FE0
1860
1FE0
1860
1FE0
1860
ENDCHAR
STARTCHAR 4422
ENCODING 17442
SWIDTH 1008 0
DWIDTH 14 0
BBX 14 14 0 -2
BITMAP
3000
33E0
3060
FC60
3360
3B60
7560
7560
7330
D330
D630
3618
3418
380C
ENDCHAR
STARTCHAR 4453
ENCODING 17491
SWIDTH 1008 0
DWIDTH 14 0
BBX 14 14 0 -2
BITMAP
0CC0
FFFC
0CC0
0FC0
0FC0
0CC0
7FFC
6018
DFF0
0C60
7FD8
3FF0
0300
FFFC
ENDCHAR
STARTCHAR 445B
ENCODING 17499
SWIDTH 1008 0
DWIDTH 14 0
BBX 14 14 0 -2
BITMAP
0618
0C30
79E0
19A0
19A0
FFFC
19A0
19A0
7EA0
66D0
6734
661C
7FFC
660C
ENDCHAR
STARTCHAR 4476
ENCODING 17526
SWIDTH 1008 0
DWIDTH 14 0
BBX 14 14 0 -2
BITMAP
30C0
30C0
37FC
FD40
3378
3AD8
76A8
76B8
7B50
D6D0
D660
36D0
3698
370C
ENDCHAR
STARTCHAR 447A
ENCODING 17530
SWIDTH 1008 0
DWIDTH 14 0
BBX 14 14 0 -2
BITMAP
30C0
30D0
3198
FFFC
31AC
39A0
756C
76BC
71F0
D330
D6A0
30C0
33B0
361C
ENDCHAR
STARTCHAR 4491
ENCODING 17553
SWIDTH 1008 0
DWIDTH 14 0
BBX 14 14 0 -2
BITMAP
3300
3300
33F8
FEA8
36A8
3B68
76D8
75B0
7180
D350
D558
3534
3B34
31F0
ENDCHAR
STARTCHAR 44B3
ENCODING 17587
SWIDTH 1008 0
DWIDTH 14 0
BBX 14 14 0 -2
BITMAP
3030
37B8
36B4
FBB4
303C
37F0
76B4
7BB4
DAB8
D7B8
36B0
37D4
36AC
318C
ENDCHAR
STARTCHAR 44BE
ENCODING 17598
SWIDTH 1008 0
DWIDTH 14 0
BBX 13 14 1 -2
BITMAP
0600
FFF0
1F80
F6F0
FFF0
DB30
FFF0
FC60
CFF8
FC60
FD60
C1A0
FC60
C0E0
ENDCHAR
STARTCHAR 44D4
ENCODING 17620
SWIDTH 1008 0
DWIDTH 14 0
BBX 14 14 0 -2
BITMAP
36D8
3350
37FC
FE18
35F8
3BF0
7530
75F0
77F8
D6D8
D7F8
36D8
37F8
3618
ENDCHAR
STARTCHAR 4508
ENCODING 17672
SWIDTH 1008 0
DWIDTH 14 0
BBX 14 14 0 -2
BITMAP
3660
1A60
1A60
C660
67FC
6600
0600
1BF0
1A30
3630
3630
6C30
6C30
6830
ENDCHAR
STARTCHAR 450D
ENCODING 17677
SWIDTH 1008 0
DWIDTH 14 0
BBX 14 14 0 -2
BITMAP
30C0
18C0
18C0
CFFC
60C0
60C0
00E0
18D0
18D8
30D8
30C0
60C0
60C0
60C0
ENDCHAR
STARTCHAR 4525
ENCODING 17701
SWIDTH 1008 0
DWIDTH 14 0
BBX 14 14 0 -2
BITMAP
30C0
1AD8
1AD8
C7F8
60C0
61A0
0330
1EEC
1800
37F8
3030
6060
60C0
60C0
ENDCHAR
STARTCHAR 4543
ENCODING 17731
SWIDTH 1008 0
DWIDTH 14 0
BBX 14 14 0 -2
BITMAP
30C0
18C0
1FFC
C630
6330
6360
0FFC
1800
1BF8
3618
3618
6618
67F8
6618
ENDCHAR
STARTCHAR 459D
ENCODING 17821
SWIDTH 1008 0
DWIDTH 14 0
BBX 14 14 0 -2
BITMAP
0070
03C0
3F00
0300
3FF0
3330
3330
3330
3FF0
3360
0330
03F8
FE0C
000C
ENDCHAR
STARTCHAR 45B8
ENCODING 17848
SWIDTH 1008 0
DWIDTH 14 0
BBX 14 14 0 -2
BITMAP
1860
1860
1BFC
1AB0
6AB0
6DD8
6B6C
DACC
1860
1DFC
3660
3660
6060
C060
ENDCHAR
STARTCHAR 45E5
ENCODING 17893
SWIDTH 1008 0
DWIDTH 14 0
BBX 14 14 0 -2
BITMAP
1B00
DB00
77FC
35F0
7330
DBF0
1B30
3BF0
6980
DBF0
1EA0
18C0
73B0
361C
ENDCHAR
STARTCHAR 45EA
ENCODING 17898
SWIDTH 1008 0
DWIDTH 14 0
BBX 14 14 0 -2
BITMAP
0180
3FFC
3360
3FFC
3360
63E0
6AD8
D36C
3FF0
3330
3FF0
3330
03F8
FE0C
ENDCHAR
STARTCHAR 460F
ENCODING 17935
SWIDTH 1008 0
DWIDTH 14 0
BBX 14 13 0 -1
BITMAP
07FC
FEA8
35A0
31AC
333C
FEC0
30C0
37FC
31E0
3D50
E6D8
0CCC
00C0
ENDCHAR
STARTCHAR 4641
ENCODING 17985
SWIDTH 1008 0
DWIDTH 14 0
BBX 14 14 0 -2
BITMAP
01A0
01A0
FFF8
31A0
31E0
37FC
FFF8
36D8
37F8
36D8
3FF8
E1A0
0330
0E18
ENDCHAR
STARTCHAR 4665
ENCODING 18021
SWIDTH 1008 0
DWIDTH 14 0
BBX 14 14 0 -2
BITMAP
01A0
0F60
FB7C
37B4
336C
37CC
FD58
33A0
3330
36DC
3B60
E3D0
0EDC
01C0
ENDCHAR
STARTCHAR 46A1
ENCODING 18081
SWIDTH 1008 0
DWIDTH 14 0
BBX 14 14 0 -2
BITMAP
0180
0180
1FFC
D800
6FFC
6980
1DB0
3B60
6B58
DBB0
3660
30D0
6398
DE0C
ENDCHAR
STARTCHAR 46AF
ENCODING 18095
SWIDTH 1008 0
DWIDTH 14 0
BBX 14 14 0 -2
BITMAP
0180
1FFC
D800
6BDC
6ACC
1ACC
3BDC
6A00
DAFC
1BAC
3638
37B0
6668
C6CC
ENDCHAR
STARTCHAR 470C
ENCODING 18188
SWIDTH 1008 0
DWIDTH 14 0
BBX 14 14 0 -2
BITMAP
0300
0EC0
3B70
EFEC
0180
FFFC
3FF0
36B0
35F0
3830
3FF0
7FF8
6D98
FFFC
ENDCHAR
STARTCHAR 4764
ENCODING 18276
SWIDTH 1008 0
DWIDTH 14 0
BBX 14 14 0 -2
BITMAP
00C0
FCC0
37F8
3330
31B0
7DA0
6FFC
EC18
6DE8
6D68
7DE8
6D18
6018
0038
ENDCHAR
STARTCHAR 47FD
ENCODING 18429
SWIDTH 1008 0
DWIDTH 14 0
BBX 14 13 0 -1
BITMAP
7DF8
0198
01B8
FEA8
19A8
6BFC
6B0C
6B74
6B54
6B74
6B54
DB0C
1B1C
ENDCHAR
STARTCHAR 4816
ENCODING 18454
SWIDTH 1008 0
DWIDTH 14 0
BBX 14 14 0 -2
BITMAP
0660
0C60
7860
1860
1BFC
FF6C
1B6C
3D6C
3BFC
6B6C
DB6C
1B6C
1BFC
1B0C
ENDCHAR
STARTCHAR 4844
ENCODING 18500
SWIDTH 1008 0
DWIDTH 14 0
BBX 14 14 0 -2
BITMAP
1800
19F0
FFB0
19B0
7EB0
6AB0
7EB0
6AB0
7EB0
19B0
FEB0
1B34
1B34
1A1C
ENDCHAR
STARTCHAR 484E
ENCODING 18510
SWIDTH 1008 0
DWIDTH 14 0
BBX 14 14 0 -2
BITMAP
30C0
30C0
3F7C
69A0
CD30
01F8
FE98
1998
1998
1998
1E98
F1B0
0180
0180
ENDCHAR
STARTCHAR 48B5
ENCODING 18613
SWIDTH 1008 0
DWIDTH 14 0
BBX 14 14 0 -2
BITMAP
18C0
18C0
1BFC
F6D8
34C0
1DFC
36C0
FDB0
19B0
6DA0
6B70
6B58
DBF4
1C0C
ENDCHAR
STARTCHAR 49B0
ENCODING 18864
SWIDTH 1008 0
DWIDTH 14 0
BBX 12 13 1 -1
BITMAP
FDF0
CD30
FDF0
FFF0
DB30
DFB0
DAB0
DFB0
DFD0
D6D0
DFD0
D6D0
C3F0
ENDCHAR
STARTCHAR 49E7
ENCODING 18919
SWIDTH 1008 0
DWIDTH 14 0
BBX 14 14 0 -2
BITMAP
0300
1FE0
1860
1FE0
1860
1FE0
1FFC
1FF8
0318
FFFC
07B0
FCE0
0F70
781C
ENDCHAR
STARTCHAR 49FA
ENCODING 18938
SWIDTH 1008 0
DWIDTH 14 0
BBX 14 14 0 -2
BITMAP
3060
33F8
30D8
FFFC
1800
1AF8
3698
7DF8
D430
36F8
31B0
37FC
3030
3030
ENDCHAR
STARTCHAR 4A04
ENCODING 18948
SWIDTH 1008 0
DWIDTH 14 0
BBX 14 14 0 -2
BITMAP
30C0
30C0
33FC
FD60
1BFC
1B60
37F8
7DA8
D5F8
37A8
33F8
33FC
3660
3060
ENDCHAR
STARTCHAR 4A29
ENCODING 18985
SWIDTH 1008 0
DWIDTH 14 0
BBX 14 13 0 -1
BITMAP
FFFC
0180
07C0
3D70
EFE8
186C
1FE0
1FE0
1860
1FE0
068C
1D8C
F0FC
ENDCHAR
STARTCHAR 4ABC
ENCODING 19132
SWIDTH 1008 0
DWIDTH 14 0
BBX 14 14 0 -2
BITMAP
0030
FED0
30F0
33D8
76C0
DBFC
3DA0
6DF8
DBA8
3AA8
6AA8
D9B8
1860
7060
ENDCHAR
STARTCHAR 4B3B
ENCODING 19259
SWIDTH 1008 0
DWIDTH 14 0
BBX 14 14 0 -2
BITMAP
3180
19A0
19B0
6368
37D8
3000
07F0
F630
3630
3630
37F0
3A30
6E00
C3FC
ENDCHAR
STARTCHAR 4BC2
ENCODING 19394
SWIDTH 1008 0
DWIDTH 14 0
BBX 14 14 0 -2
BITMAP
18C0
18D0
34D8
36D8
67FC
DCC0
18D8
FEE8
18E8
6AB0
3DB0
3B70
1ED8
F18C
ENDCHAR
STARTCHAR 4BCA
ENCODING 19402
SWIDTH 1008 0
DWIDTH 14 0
BBX 14 14 0 -2
BITMAP
1800
1BF8
34C0
36C0
66C0
DCC0
1BF8
FEC0
18D0
6AD8
3CD8
38C0
1FFC
F000
ENDCHAR
STARTCHAR 4BD2
ENCODING 19410
SWIDTH 1008 0
DWIDTH 14 0
BBX 13 14 0 -2
BITMAP
1800
1BF8
3568
3768
67F8
DD68
1B68
FFF8
1B68
6A60
3C60
3860
1E60
F060
ENDCHAR
STARTCHAR 4BE8
ENCODING 19432
SWIDTH 1008 0
DWIDTH 14 0
BBX 14 14 0 -2
BITMAP
180C
1BB8
35F0
36B0
6730
DD7C
1BB0
FEB0
19B0
6AB0
3DFC
3B00
1F80
F6FC
ENDCHAR
STARTCHAR 4C17
ENCODING 19479
SWIDTH 1008 0
DWIDTH 14 0
BBX 12 13 1 -1
BITMAP
DDD0
D9B0
DDD0
DDD0
CF30
DFB0
DAB0
DFD0
D6D0
DFD0
DFD0
C670
C7F0
ENDCHAR
STARTCHAR 4C20
ENCODING 19488
SWIDTH 1008 0
DWIDTH 14 0
BBX 14 14 0 -2
BITMAP
1838
1BF0
3568
376C
66F4
DCC0
1BFC
FEC0
18F8
6AD8
3DB0
3B70
1ED8
F70C
ENDCHAR
STARTCHAR 4CC4
ENCODING 19652
SWIDTH 1008 0
DWIDTH 14 0
BBX 14 14 0 -2
BITMAP
18C0
1BFC
37F8
3EE8
66A8
FEE8
6FF8
7DF0
6D30
7DF0
7D30
63F0
7C00
67FC
ENDCHAR
STARTCHAR 4CD1
ENCODING 19665
SWIDTH 1008 0
DWIDTH 14 0
BBX 14 14 0 -2
BITMAP
0060
7F68
6CD8
7EF4
6C6C
7E60
6CF8
7FB0
0D30
7BFC
6F70
6D68
C6D8
1D8C
ENDCHAR
STARTCHAR 4D07
ENCODING 19719
SWIDTH 1008 0
DWIDTH 14 0
BBX 14 14 0 -2
BITMAP
1860
1868
3E6C
6DFC
FF60
6B68
7FE8
6B68
7F50
0D50
7B54
6EEC
6ADC
CD8C
ENDCHAR
STARTCHAR 4D77
ENCODING 19831
SWIDTH 1008 0
DWIDTH 14 0
BBX 14 14 0 -2
BITMAP
1860
18C0
FEF8
D998
FEF8
DA98
FFF8
DAFC
FE80
D9FC
D4D4
D5AC
674C
C638
ENDCHAR
STARTCHAR 4E00
ENCODING 19968
SWIDTH 1008 0
DWIDTH 14 0
BBX 14 1 0 4
BITMAP
FFFC
ENDCHAR
STARTCHAR 4E01
ENCODING 19969
SWIDTH 1008 0
DWIDTH 14 0
BBX 14 13 0 -1
BITMAP
FFFC
0300
0300
0300
0300
0300
0300
0300
0300
0300
0300
0300
0700
ENDCHAR
STARTCHAR 4E02
ENCODING 19970
SWIDTH 1008 0
DWIDTH 14 0
BBX 5 4 0 8
BITMAP
C0
70
38
18
ENDCHAR
STARTCHAR 4E03
ENCODING 19971
SWIDTH 1008 0
DWIDTH 14 0
BBX 14 14 0 -2
BITMAP
0C00
0C00
0C00
0C00
0C7C
0FC0
FC00
0C00
0C00
0C00
0C00
0C18
0C18
07F8
ENDCHAR
STARTCHAR 4E07
ENCODING 19975
SWIDTH 1008 0
DWIDTH 14 0
BBX 14 13 0 -1
BITMAP
FFFC
0600
0600
0600
07F0
0630
0630
0C30
0C30
1830
3030
6030
C0E0
ENDCHAR
STARTCHAR 4E08
ENCODING 19976
SWIDTH 1008 0
DWIDTH 14 0
BBX 14 14 0 -2
BITMAP
0300
0300
0300
FFFC
0300
0300
3300
1B00
0D00
0700
0700
0DC0
3870
E01C
ENDCHAR
STARTCHAR 4E09
ENCODING 19977
SWIDTH 1008 0
DWIDTH 14 0
BBX 14 12 0 -1
BITMAP
7FF8
0000
0000
0000
0000
3FF0
0000
0000
0000
0000
0000
FFFC
ENDCHAR
STARTCHAR 4E0A
ENCODING 19978
SWIDTH 1008 0
DWIDTH 14 0
BBX 14 13 0 -2
BITMAP
0600
0600
0600
0600
0600
07F0
0600
0600
0600
0600
0600
0600
FFFC
ENDCHAR
STARTCHAR 4E0B
ENCODING 19979
SWIDTH 1008 0
DWIDTH 14 0
BBX 14 13 0 -1
BITMAP
FFFC
0300
0300
0380
0340
0360
0330
0330
0300
0300
0300
0300
0300
ENDCHAR
STARTCHAR 4E0D
ENCODING 19981
SWIDTH 1008 0
DWIDTH 14 0
BBX 14 13 0 -1
BITMAP
FFFC
0180
0180
0300
0780
0D60
3B30
E318
030C
0300
0300
0300
0300
ENDCHAR
STARTCHAR 4E0E
ENCODING 19982
SWIDTH 1008 0
DWIDTH 14 0
BBX 14 14 0 -2
BITMAP
0C00
0C00
0FF0
0C00
0C00
0FC0
0CC0
00C0
FFFC
00C0
00C0
00C0
00C0
0780
ENDCHAR
STARTCHAR 4E0F
ENCODING 19983
SWIDTH 1008 0
DWIDTH 14 0
BBX 5 4 0 8
BITMAP
70
D8
D8
70
ENDCHAR
STARTCHAR 4E10
ENCODING 19984
SWIDTH 1008 0
DWIDTH 14 0
BBX 14 13 0 -1
BITMAP
FFFC
0300
0300
63F8
6300
6300
7FF8
6018
0018
0018
0030
0030
00E0
ENDCHAR
STARTCHAR 4E11
ENCODING 19985
SWIDTH 1008 0
DWIDTH 14 0
BBX 14 12 0 -1
BITMAP
3FE0
0660
0660
0660
0660
7FF8
0C60
0C60
0C60
0C60
0C60
FFFC
ENDCHAR
STARTCHAR 4E12
ENCODING 19986
SWIDTH 1008 0
DWIDTH 14 0
BBX 3 4 0 8
BITMAP
E0
E0
60
C0
ENDCHAR
STARTCHAR 4E14
ENCODING 19988
SWIDTH 1008 0
DWIDTH 14 0
BBX 14 12 0 -1
BITMAP
1FE0
1860
1860
1860
1FE0
1860
1860
1FE0
1860
1860
1860
FFFC
ENDCHAR
STARTCHAR 4E15
ENCODING 19989
SWIDTH 1008 0
DWIDTH 14 0
BBX 14 12 0 -1
BITMAP
7FF8
0180
0300
0780
0D60
1B30
7318
C30C
0300
0300
0000
7FF8
ENDCHAR
STARTCHAR 4E16
ENCODING 19990
SWIDTH 1008 0
DWIDTH 14 0
BBX 14 14 0 -2
BITMAP
3660
3660
3660
3660
FFFC
3660
3660
3660
37E0
3660
3000
3000
3FF8
3000
ENDCHAR
STARTCHAR 4E17
ENCODING 19991
SWIDTH 1008 0
DWIDTH 14 0
BBX 14 14 0 -2
BITMAP
3330
3330
3330
3330
3330
FFFC
3330
3330
3330
3330
3330
3330
3FF0
3030
ENDCHAR
STARTCHAR 4E18
ENCODING 19992
SWIDTH 1008 0
DWIDTH 14 0
BBX 14 13 0 -2
BITMAP
0060
01C0
1F00
1800
1800
1FF8
18C0
18C0
18C0
18C0
18C0
18C0
FFFC
ENDCHAR
STARTCHAR 4E19
ENCODING 19993
SWIDTH 1008 0
DWIDTH 14 0
BBX 14 13 0 -1
BITMAP
FFFC
0300
0300
7FF8
6318
6318
6698
66D8
6C68
6868
6018
6018
6038
ENDCHAR
STARTCHAR 4E1E
ENCODING 19998
SWIDTH 1008 0
DWIDTH 14 0
BBX 14 12 0 -1
BITMAP
1FE0
00C0
0198
7D58
0D50
1B60
1B60
3330
6318
C70C
0000
7FF8
ENDCHAR
STARTCHAR 4E21
ENCODING 20001
SWIDTH 1008 0
DWIDTH 14 0
BBX 14 13 0 -1
BITMAP
FFFC
0300
0300
7FF8
6318
6B68
6B68
6B68
6B68
6FE8
6868
6018
6038
ENDCHAR
STARTCHAR 4E26
ENCODING 20006
SWIDTH 1008 0
DWIDTH 14 0
BBX 14 13 0 -2
BITMAP
1860
0C60
0CC0
FFFC
0CC0
0CC0
6CD8
34D8
34D0
34E0
0CC0
0CC0
FFFC
ENDCHAR
STARTCHAR 4E28
ENCODING 20008
SWIDTH 1008 0
DWIDTH 14 0
BBX 2 13 6 -1
BITMAP
C0
C0
C0
C0
C0
C0
C0
C0
C0
C0
C0
C0
C0
ENDCHAR
STARTCHAR 4E29
ENCODING 20009
SWIDTH 1008 0
DWIDTH 14 0
BBX 3 2 0 9
BITMAP
E0
E0
ENDCHAR
STARTCHAR 4E2A
ENCODING 20010
SWIDTH 1008 0
DWIDTH 14 0
BBX 14 14 0 -2
BITMAP
0300
0300
0680
0680
0CC0
1860
3330
6318
C30C
0300
0300
0300
0300
0300
ENDCHAR
STARTCHAR 4E2B
ENCODING 20011
SWIDTH 1008 0
DWIDTH 14 0
BBX 5 4 4 3
BITMAP
70
F8
F8
70
ENDCHAR
STARTCHAR 4E2C
ENCODING 20012
SWIDTH 1008 0
DWIDTH 14 0
BBX 13 13 1 -1
BITMAP
FBF0
DA30
D7F0
E630
D7F0
DB30
DEE8
DB30
DAA8
F7F8
C000
CD50
D9A8
ENDCHAR
STARTCHAR 4E2D
ENCODING 20013
SWIDTH 1008 0
DWIDTH 14 0
BBX 12 14 1 -2
BITMAP
0600
0600
0600
FFF0
C630
C630
C630
C630
FFF0
C630
0600
0600
0600
0600
ENDCHAR
STARTCHAR 4E2E
ENCODING 20014
SWIDTH 1008 0
DWIDTH 14 0
BBX 3 7 5 1
BITMAP
E0
E0
00
00
00
E0
E0
ENDCHAR
STARTCHAR 4E2F
ENCODING 20015
SWIDTH 1008 0
DWIDTH 14 0
BBX 12 13 1 -1
BITMAP
0660
06C0
0F00
7A30
06E0
0F80
7A30
06E0
0780
1E00
F600
0600
0600
ENDCHAR
STARTCHAR 4E30
ENCODING 20016
SWIDTH 1008 0
DWIDTH 14 0
BBX 14 13 0 -1
BITMAP
0300
0300
7FF0
0300
0300
3FE0
0300
0300
FFFC
0300
0300
0300
0300
ENDCHAR
STARTCHAR 4E31
ENCODING 20017
SWIDTH 1008 0
DWIDTH 14 0
BBX 13 14 0 -2
BITMAP
0D80
0D80
CD98
CD98
CD98
CD98
CD98
CD98
FDF8
CD98
1980
1980
3180
6180
ENDCHAR
STARTCHAR 4E32
ENCODING 20018
SWIDTH 1008 0
DWIDTH 14 0
BBX 12 14 1 -2
BITMAP
0600
0600
7FE0
6660
6660
7FE0
0600
FFF0
C630
C630
FFF0
C630
0600
0600
ENDCHAR
STARTCHAR 4E36
ENCODING 20022
SWIDTH 1008 0
DWIDTH 14 0
BBX 4 4 5 2
BITMAP
C0
60
30
30
ENDCHAR
STARTCHAR 4E38
ENCODING 20024
SWIDTH 1008 0
DWIDTH 14 0
BBX 14 14 0 -2
BITMAP
0600
0600
0600
0600
FFC0
06C0
06C0
3AC0
0EC0
0D40
19CC
30CC
60CC
C07C
ENDCHAR
STARTCHAR 4E39
ENCODING 20025
SWIDTH 1008 0
DWIDTH 14 0
BBX 14 13 0 -1
BITMAP
1FE0
1860
1A60
1B60
1B60
1860
FFFC
1860
1860
3060
3060
6060
C0E0
ENDCHAR
STARTCHAR 4E3B
ENCODING 20027
SWIDTH 1008 0
DWIDTH 14 0
BBX 14 13 0 -2
BITMAP
0600
0300
0300
7FF8
0300
0300
0300
3FF0
0300
0300
0300
0300
FFFC
ENDCHAR
STARTCHAR 4E3C
ENCODING 20028
SWIDTH 1008 0
DWIDTH 14 0
BBX 14 14 0 -2
BITMAP
0C60
0C60
0C60
7FFC
0C60
0D60
0DA0
0DA0
FFFC
0C60
1860
1860
3060
6060
ENDCHAR
STARTCHAR 4E3F
ENCODING 20031
SWIDTH 1008 0
DWIDTH 14 0
BBX 9 14 2 -2
BITMAP
0180
0180
0180
0180
0180
0180
0180
0180
0300
0300
0600
0C00
3800
E000
ENDCHAR
STARTCHAR 4E40
ENCODING 20032
SWIDTH 1008 0
DWIDTH 14 0
BBX 3 9 5 1
BITMAP
E0
E0
00
00
00
E0
E0
60
C0
ENDCHAR
STARTCHAR 4E42
ENCODING 20034
SWIDTH 1008 0
DWIDTH 14 0
BBX 14 14 0 -2
BITMAP
0060
3060
3060
1860
18C0
18C0
0CC0
0D80
0680
0300
0680
0CC0
3870
E01C
ENDCHAR
STARTCHAR 4E43
ENCODING 20035
SWIDTH 1008 0
DWIDTH 14 0
BBX 13 13 0 -1
BITMAP
7FC0
0CC0
0CC0
0CC0
0CC0
0CF8
0CD8
0C18
1818
1818
3018
6018
C0F0
ENDCHAR
STARTCHAR 4E45
ENCODING 20037
SWIDTH 1008 0
DWIDTH 14 0
BBX 14 14 0 -2
BITMAP
0600
0600
0600
07E0
0C60
0C60
18C0
30C0
61C0
0360
0660
0C30
3818
E00C
ENDCHAR
STARTCHAR 4E47
ENCODING 20039
SWIDTH 1008 0
DWIDTH 14 0
BBX 8 13 3 -1
BITMAP
3C
6E
C7
E7
E7
0E
0C
18
18
18
00
1C
1C
ENDCHAR
STARTCHAR 4E48
ENCODING 20040
SWIDTH 1008 0
DWIDTH 14 0
BBX 4 14 5 -2
BITMAP
60
F0
F0
F0
F0
F0
F0
60
60
60
00
60
F0
60
ENDCHAR
STARTCHAR 4E4B
ENCODING 20043
SWIDTH 1008 0
DWIDTH 14 0
BBX 14 14 0 -2
BITMAP
0300
0300
0300
7FF0
0030
0060
0060
00C0
0180
3300
3A00
3400
6700
C1FC
ENDCHAR
STARTCHAR 4E4D
ENCODING 20045
SWIDTH 1008 0
DWIDTH 14 0
BBX 14 14 0 -2
BITMAP
0C00
0C00
0C00
1FFC
1B00
3300
63F8
C300
0300
03F8
0300
0300
0300
0300
ENDCHAR
STARTCHAR 4E4E
ENCODING 20046
SWIDTH 1008 0
DWIDTH 14 0
BBX 14 14 0 -2
BITMAP
0070
7FC0
0330
3330
1B60
1B40
0300
FFFC
0300
0300
0300
0300
0300
0700
ENDCHAR
STARTCHAR 4E4F
ENCODING 20047
SWIDTH 1008 0
DWIDTH 14 0
BBX 14 14 0 -2
BITMAP
0038
01E0
7F00
0300
0300
3FF0
0030
0060
00C0
1B80
1E00
3400
6700
C1FC
ENDCHAR
STARTCHAR 4E51
ENCODING 20049
SWIDTH 1008 0
DWIDTH 14 0
BBX 5 4 0 -2
BITMAP
70
D8
D8
70
ENDCHAR
STARTCHAR 4E55
ENCODING 20053
SWIDTH 1008 0
DWIDTH 14 0
BBX 14 14 0 -2
BITMAP
00F8
3F80
3180
3FFC
3180
3FFC
3180
37F8
3598
3598
6D98
6DB0
C180
0180
ENDCHAR
STARTCHAR 4E56
ENCODING 20054
SWIDTH 1008 0
DWIDTH 14 0
BBX 14 14 0 -2
BITMAP
0070
3FC0
0300
0300
FFFC
0300
1B60
FB6C
1B70
1B60
3B6C
EB3C
0300
0300
ENDCHAR
STARTCHAR 4E57
ENCODING 20055
SWIDTH 1008 0
DWIDTH 14 0
BBX 14 14 0 -2
BITMAP
00E0
3F80
0300
7FF8
1B60
FFFC
1B60
7FF8
0780
0D40
3B70
E31C
0300
0300
ENDCHAR
STARTCHAR 4E58
ENCODING 20056
SWIDTH 1008 0
DWIDTH 14 0
BBX 14 14 0 -2
BITMAP
00E0
3F80
0300
FFFC
0D58
7D70
0D40
3D58
ED78
0780
0D40
3B70
E31C
0300
ENDCHAR
STARTCHAR 4E59
ENCODING 20057
SWIDTH 1008 0
DWIDTH 14 0
BBX 12 12 1 -1
BITMAP
FFC0
0180
0300
0600
0C00
1800
3000
6000
C030
C030
C030
7FF0
ENDCHAR
STARTCHAR 4E5A
ENCODING 20058
SWIDTH 1008 0
DWIDTH 14 0
BBX 8 2 3 -2
BITMAP
E7
E7
ENDCHAR
STARTCHAR 4E5D
ENCODING 20061
SWIDTH 1008 0
DWIDTH 14 0
BBX 14 14 0 -2
BITMAP
0600
0600
0600
0600
FFC0
06C0
06C0
06C0
0CC0
0CC0
18CC
30CC
60CC
C07C
ENDCHAR
STARTCHAR 4E5E
ENCODING 20062
SWIDTH 1008 0
DWIDTH 14 0
BBX 13 14 0 -2
BITMAP
1800
1800
1800
3FF8
3000
6000
DFC0
0300
0600
0C00
1800
3018
3018
1FF8
ENDCHAR
STARTCHAR 4E5F
ENCODING 20063
SWIDTH 1008 0
DWIDTH 14 0
BBX 14 14 0 -2
BITMAP
0300
3300
3300
3370
33D0
3730
3B30
F330
3330
3330
3360
300C
300C
1FFC
ENDCHAR
STARTCHAR 4E62
ENCODING 20066
SWIDTH 1008 0
DWIDTH 14 0
BBX 14 14 0 -2
BITMAP
3180
3180
3180
D580
D580
D580
D580
D580
D580
D580
FD8C
CD8C
C18C
00FC
ENDCHAR
STARTCHAR 4E69
ENCODING 20073
SWIDTH 1008 0
DWIDTH 14 0
BBX 8 4 3 -2
BITMAP
18
34
66
C3
ENDCHAR
STARTCHAR 4E71
ENCODING 20081
SWIDTH 1008 0
DWIDTH 14 0
BBX 14 14 0 -2
BITMAP
06C0
1CC0
78C0
18C0
18C0
FF40
18C0
18C0
7EC0
66C0
66C0
66CC
7ECC
667C
ENDCHAR
STARTCHAR 4E73
ENCODING 20083
SWIDTH 1008 0
DWIDTH 14 0
BBX 14 14 0 -2
BITMAP
0740
FCC0
3340
DB40
6AC0
6CC0
7F40
06C0
0CC0
0F40
FCC0
0CCC
0CCC
1C7C
ENDCHAR
STARTCHAR 4E7E
ENCODING 20094
SWIDTH 1008 0
DWIDTH 14 0
BBX 14 14 0 -2
BITMAP
1980
1980
FFFC
1980
7F00
66F8
7E30
6660
7EC0
18C0
FF80
198C
198C
18FC
ENDCHAR
STARTCHAR 4E80
ENCODING 20096
SWIDTH 1008 0
DWIDTH 14 0
BBX 14 14 0 -2
BITMAP
0600
07C0
1D80
FFE0
1B60
1FE0
1FE0
3FF0
3330
3FF0
3330
3FF4
330C
01FC
ENDCHAR
STARTCHAR 4E82
ENCODING 20098
SWIDTH 1008 0
DWIDTH 14 0
BBX 14 14 0 -2
BITMAP
0F40
FAC0
6B40
7F40
D6C0
18C0
FF40
D540
FD40
DD40
D540
DB4C
D54C
E77C
ENDCHAR
STARTCHAR 4E85
ENCODING 20101
SWIDTH 1008 0
DWIDTH 14 0
BBX 4 14 4 -2
BITMAP
30
30
30
30
30
30
30
30
30
30
30
30
30
E0
ENDCHAR
STARTCHAR 4E86
ENCODING 20102
SWIDTH 1008 0
DWIDTH 14 0
BBX 11 13 1 -1
BITMAP
FFE0
00C0
0180
0700
0600
0600
0600
0600
0600
0600
0600
0600
0E00
ENDCHAR
STARTCHAR 4E88
ENCODING 20104
SWIDTH 1008 0
DWIDTH 14 0
BBX 14 13 0 -1
BITMAP
3FF0
0660
0340
0380
FFFC
0318
0330
0360
0300
0300
0300
0300
0700
ENDCHAR
STARTCHAR 4E89
ENCODING 20105
SWIDTH 1008 0
DWIDTH 14 0
BBX 14 14 0 -2
BITMAP
0300
07E0
1CC0
7180
3FF0
0330
FFFC
0330
0330
3FF0
0330
0300
0300
0700
ENDCHAR
STARTCHAR 4E8A
ENCODING 20106
SWIDTH 1008 0
DWIDTH 14 0
BBX 14 14 0 -2
BITMAP
0300
0300
FFFC
3330
1B30
1B60
3FF0
0330
FFFC
0330
3FF0
0330
0300
0700
ENDCHAR
STARTCHAR 4E8B
ENCODING 20107
SWIDTH 1008 0
DWIDTH 14 0
BBX 14 14 0 -2
BITMAP
0300
FFFC
0300
1FE0
1B60
1FE0
0300
3FF0
0330
FFFC
0330
3FF0
0330
0700
ENDCHAR
STARTCHAR 4E8C
ENCODING 20108
SWIDTH 1008 0
DWIDTH 14 0
BBX 14 10 0 0
BITMAP
7FF8
0000
0000
0000
0000
0000
0000
0000
0000
FFFC
ENDCHAR
STARTCHAR 4E8D
ENCODING 20109
SWIDTH 1008 0
DWIDTH 14 0
BBX 14 12 0 0
BITMAP
7FF0
0000
0000
FFFC
0300
0300
0300
0300
0300
0300
0300
0700
ENDCHAR
STARTCHAR 4E8E
ENCODING 20110
SWIDTH 1008 0
DWIDTH 14 0
BBX 14 13 0 -1
BITMAP
7FF8
0300
0300
0300
0300
FFFC
0300
0300
0300
0300
0300
0300
0E00
ENDCHAR
STARTCHAR 4E91
ENCODING 20113
SWIDTH 1008 0
DWIDTH 14 0
BBX 14 13 0 -1
BITMAP
3FF0
0000
0000
0000
FFFC
0300
0300
0340
0660
0630
0CF0
7F98
0018
ENDCHAR
STARTCHAR 4E92
ENCODING 20114
SWIDTH 1008 0
DWIDTH 14 0
BBX 14 12 0 -1
BITMAP
7FF8
0600
0600
0FE0
0C60
0C60
0C60
1FE0
18C0
00C0
00C0
FFFC
ENDCHAR
STARTCHAR 4E94
ENCODING 20116
SWIDTH 1008 0
DWIDTH 14 0
BBX 14 12 0 -1
BITMAP
7FF8
0600
0600
0600
0600
7FE0
0C60
0C60
0C60
1860
1860
FFFC
ENDCHAR
STARTCHAR 4E95
ENCODING 20117
SWIDTH 1008 0
DWIDTH 14 0
BBX 14 14 0 -2
BITMAP
0CC0
0CC0
0CC0
0CC0
7FF8
0CC0
0CC0
0CC0
FFFC
0CC0
18C0
18C0
30C0
60C0
ENDCHAR
STARTCHAR 4E98
ENCODING 20120
SWIDTH 1008 0
DWIDTH 14 0
BBX 14 13 0 -1
BITMAP
7FF8
0000
0000
1FE0
1860
1860
1FE0
1860
1860
1FE0
1860
0000
FFFC
ENDCHAR
STARTCHAR 4E99
ENCODING 20121
SWIDTH 1008 0
DWIDTH 14 0
BBX 14 12 0 -1
BITMAP
7FF8
0600
0600
0FE0
0D60
0DA0
0DA0
1A60
1B40
1B40
00C0
FFFC
ENDCHAR
STARTCHAR 4E9B
ENCODING 20123
SWIDTH 1008 0
DWIDTH 14 0
BBX 14 13 0 -2
BITMAP
1980
1980
69B8
6FE0
6980
698C
6E8C
F0FC
0000
3FF0
0000
0000
FFFC
ENDCHAR
STARTCHAR 4E9C
ENCODING 20124
SWIDTH 1008 0
DWIDTH 14 0
BBX 13 12 0 -1
BITMAP
FFF8
0D80
0D80
7FF0
6DB0
6DB0
6DB0
7FF0
6DB0
0D80
0D80
FFF8
ENDCHAR
STARTCHAR 4E9D
ENCODING 20125
SWIDTH 1008 0
DWIDTH 14 0
BBX 14 1 0 -2
BITMAP
FFFC
ENDCHAR
STARTCHAR 4E9E
ENCODING 20126
SWIDTH 1008 0
DWIDTH 14 0
BBX 14 12 0 -1
BITMAP
FFFC
0CC0
0CC0
0CC0
7CF8
6018
6018
7CF8
6CD8
0CC0
0CC0
FFFC
ENDCHAR
STARTCHAR 4E9F
ENCODING 20127
SWIDTH 1008 0
DWIDTH 14 0
BBX 14 12 0 -1
BITMAP
FFFC
0600
0600
0FF8
7DD8
6DA8
6DB0
6DB0
7DA8
61CC
0700
FFFC
ENDCHAR
STARTCHAR 4EA0
ENCODING 20128
SWIDTH 1008 0
DWIDTH 14 0
BBX 14 5 0 1
BITMAP
0300
0300
0300
0300
FFFC
ENDCHAR
STARTCHAR 4EA1
ENCODING 20129
SWIDTH 1008 0
DWIDTH 14 0
BBX 14 13 0 -2
BITMAP
0300
0300
0300
FFFC
3000
3000
3000
3000
3000
3000
3000
3000
1FF8
ENDCHAR
STARTCHAR 4EA2
ENCODING 20130
SWIDTH 1008 0
DWIDTH 14 0
BBX 14 14 0 -2
BITMAP
0300
0300
FFFC
0000
0000
0FC0
0CC0
0CC0
0CC0
0CC0
18C0
18CC
30CC
607C
ENDCHAR
STARTCHAR 4EA4
ENCODING 20132
SWIDTH 1008 0
DWIDTH 14 0
BBX 14 14 0 -2
BITMAP
0300
0300
FFFC
0CC0
0C60
18D0
34D8
66D8
0680
0380
0380
06C0
1C70
F01C
ENDCHAR
STARTCHAR 4EA5
ENCODING 20133
SWIDTH 1008 0
DWIDTH 14 0
BBX 14 14 0 -2
BITMAP
0300
0300
FFFC
0300
06C0
3AC0
0DB0
0760
06C0
1DC0
3360
0E30
3818
E018
ENDCHAR
STARTCHAR 4EA6
ENCODING 20134
SWIDTH 1008 0
DWIDTH 14 0
BBX 14 14 0 -2
BITMAP
0300
0300
0300
FFFC
06C0
06C0
36D0
36D8
66CC
C6CC
0CC0
0CC0
18C0
31C0
ENDCHAR
STARTCHAR 4EA8
ENCODING 20136
SWIDTH 1008 0
DWIDTH 14 0
BBX 14 14 0 -2
BITMAP
0300
FFFC
0000
1FE0
1860
1FE0
0000
3FE0
00C0
0380
0300
0300
0300
0700
ENDCHAR
STARTCHAR 4EAB
ENCODING 20139
SWIDTH 1008 0
DWIDTH 14 0
BBX 14 14 0 -2
BITMAP
0300
FFFC
0000
1FE0
1860
1FE0
0000
3FE0
00C0
0380
FFFC
0300
0300
0700
ENDCHAR
STARTCHAR 4EAC
ENCODING 20140
SWIDTH 1008 0
DWIDTH 14 0
BBX 14 14 0 -2
BITMAP
0300
0300
FFFC
0000
1FE0
1860
1860
1FE0
0300
1B60
1B30
3318
6318
0700
ENDCHAR
STARTCHAR 4EAD
ENCODING 20141
SWIDTH 1008 0
DWIDTH 14 0
BBX 14 14 0 -2
BITMAP
0300
FFFC
0000
1FE0
1860
1FE0
0000
7FFC
6018
DFF0
0300
0300
0300
0700
ENDCHAR
STARTCHAR 4EAE
ENCODING 20142
SWIDTH 1008 0
DWIDTH 14 0
BBX 14 14 0 -2
BITMAP
0300
FFFC
0000
1FE0
1860
1FE0
0000
7FFC
6018
CD80
0D80
0D8C
398C
E0FC
ENDCHAR
STARTCHAR 4EB0
ENCODING 20144
SWIDTH 1008 0
DWIDTH 14 0
BBX 14 14 0 -2
BITMAP
0300
0300
FFFC
0000
3FF0
3030
3FF0
3030
3FF0
1B60
1B30
3318
6318
0700
ENDCHAR
STARTCHAR 4EB3
ENCODING 20147
SWIDTH 1008 0
DWIDTH 14 0
BBX 14 14 0 -2
BITMAP
0300
FFFC
0000
1FE0
1860
1FE0
0000
7FFC
61D8
DF00
03F8
7F00
030C
01FC
ENDCHAR
STARTCHAR 4EB6
ENCODING 20150
SWIDTH 1008 0
DWIDTH 14 0
BBX 14 13 0 -2
BITMAP
0300
FFFC
3FF0
37D0
34D0
37D0
3FF0
1FE0
1860
1FE0
1860
1FE0
FFFC
ENDCHAR
STARTCHAR 4EB9
ENCODING 20153
SWIDTH 1008 0
DWIDTH 14 0
BBX 9 7 3 0
BITMAP
0300
0D80
E600
3800
0C00
0600
0300
ENDCHAR
STARTCHAR 4EBA
ENCODING 20154
SWIDTH 1008 0
DWIDTH 14 0
BBX 14 14 0 -2
BITMAP
0300
0300
0300
0300
0300
0300
0780
0680
0CC0
0CC0
1860
3030
6018
C00C
ENDCHAR
STARTCHAR 4EBB
ENCODING 20155
SWIDTH 1008 0
DWIDTH 14 0
BBX 7 5 3 2
BITMAP
E0
38
0C
0E
18
ENDCHAR
STARTCHAR 4EBC
ENCODING 20156
SWIDTH 1008 0
DWIDTH 14 0
BBX 8 6 2 2
BITMAP
33
33
33
66
66
CC
ENDCHAR
STARTCHAR 4EC0
ENCODING 20160
SWIDTH 1008 0
DWIDTH 14 0
BBX 14 14 0 -2
BITMAP
0CC0
0CC0
0CC0
18C0
18C0
3FFC
68C0
D8C0
18C0
18C0
18C0
18C0
18C0
18C0
ENDCHAR
STARTCHAR 4EC1
ENCODING 20161
SWIDTH 1008 0
DWIDTH 14 0
BBX 14 14 0 -2
BITMAP
1800
1800
1BF8
3000
3000
7000
D000
3000
3000
3000
3000
37FC
3000
3000
ENDCHAR
STARTCHAR 4EC2
ENCODING 20162
SWIDTH 1008 0
DWIDTH 14 0
BBX 13 14 0 -2
BITMAP
1980
1980
1980
3180
3FF8
7198
D198
3198
3198
3318
3318
3618
3418
3870
ENDCHAR
STARTCHAR 4EC3
ENCODING 20163
SWIDTH 1008 0
DWIDTH 14 0
BBX 14 13 0 -2
BITMAP
0300
0300
0680
0CC0
1860
3030
E01C
1FE0
0300
0300
0300
0300
FFFC
ENDCHAR
STARTCHAR 4EC4
ENCODING 20164
SWIDTH 1008 0
DWIDTH 14 0
BBX 14 13 0 -1
BITMAP
3FFC
3000
3180
3180
3180
3180
3340
3340
3660
6660
6C30
D818
300C
ENDCHAR
STARTCHAR 4EC6
ENCODING 20166
SWIDTH 1008 0
DWIDTH 14 0
BBX 14 14 0 -2
BITMAP
0CC0
0CC0
0CC0
18C0
18E0
38D0
68D8
D8CC
18CC
18C0
18C0
18C0
18C0
18C0
ENDCHAR
STARTCHAR 4EC7
ENCODING 20167
SWIDTH 1008 0
DWIDTH 14 0
BBX 14 14 0 -2
BITMAP
1B00
1B00
1B00
3300
33E0
7F60
D360
3360
3360
3360
366C
366C
346C
383C
ENDCHAR
STARTCHAR 4EC8
ENCODING 20168
SWIDTH 1008 0
DWIDTH 14 0
BBX 10 10 2 2
BITMAP
1800
1800
1FC0
3180
3180
6300
DA00
0E00
0300
0180
ENDCHAR
STARTCHAR 4ECA
ENCODING 20170
SWIDTH 1008 0
DWIDTH 14 0
BBX 14 14 0 -2
BITMAP
0300
0300
0680
0CC0
3870
EFDC
0000
0000
3FE0
0060
00C0
00C0
0180
0180
ENDCHAR
STARTCHAR 4ECB
ENCODING 20171
SWIDTH 1008 0
DWIDTH 14 0
BBX 14 14 0 -2
BITMAP
0300
0300
0680
0CC0
3870
ECDC
0CC0
0CC0
0CC0
0CC0
18C0
18C0
30C0
60C0
ENDCHAR
STARTCHAR 4ECD
ENCODING 20173
SWIDTH 1008 0
DWIDTH 14 0
BBX 13 14 0 -2
BITMAP
1800
1FE0
1B60
3360
3360
7360
D378
3368
3318
3318
3618
3618
3418
3870
ENDCHAR
STARTCHAR 4ECE
ENCODING 20174
SWIDTH 1008 0
DWIDTH 14 0
BBX 14 14 0 -2
BITMAP
1860
1860
1860
1860
1860
1860
1860
18E0
1CD0
36D0
36B0
3398
6318
C60C
ENDCHAR
STARTCHAR 4ECF
ENCODING 20175
SWIDTH 1008 0
DWIDTH 14 0
BBX 14 14 0 -2
BITMAP
1980
1980
1980
1980
3180
3180
7180
D300
3360
3330
3618
36F8
3F8C
300C
ENDCHAR
STARTCHAR 4ED0
ENCODING 20176
SWIDTH 1008 0
DWIDTH 14 0
BBX 11 11 1 0
BITMAP
0060
0060
00C0
1D80
3700
3600
6D00
6800
7000
6000
C000
ENDCHAR
STARTCHAR 4ED4
ENCODING 20180
SWIDTH 1008 0
DWIDTH 14 0
BBX 14 14 0 -2
BITMAP
1800
1BF8
1830
3060
30C0
70C0
D0C0
37FC
30C0
30C0
30C0
30C0
30C0
31C0
ENDCHAR
STARTCHAR 4ED5
ENCODING 20181
SWIDTH 1008 0
DWIDTH 14 0
BBX 14 14 0 -2
BITMAP
18C0
18C0
18C0
30C0
30C0
77FC
D0C0
30C0
30C0
30C0
30C0
30C0
37F8
3000
ENDCHAR
STARTCHAR 4ED6
ENCODING 20182
SWIDTH 1008 0
DWIDTH 14 0
BBX 14 14 0 -2
BITMAP
18C0
18C0
1AC0
36D8
36F8
77D8
DED8
36D8
36D8
36D8
36C0
360C
360C
33FC
ENDCHAR
STARTCHAR 4ED7
ENCODING 20183
SWIDTH 1008 0
DWIDTH 14 0
BBX 14 14 0 -2
BITMAP
18C0
18C0
18C0
37FC
30C0
76C0
D6C0
3340
33C0
3180
31C0
3360
3630
341C
ENDCHAR
STARTCHAR 4ED8
ENCODING 20184
SWIDTH 1008 0
DWIDTH 14 0
BBX 14 14 0 -2
BITMAP
0C30
0C30
0C30
1830
1BFC
3830
6B30
D9B0
19B0
1830
1830
1830
1830
1870
ENDCHAR
STARTCHAR 4ED9
ENCODING 20185
SWIDTH 1008 0
DWIDTH 14 0
BBX 13 14 0 -2
BITMAP
18C0
18C0
18C0
36D8
36D8
76D8
D6D8
36D8
36D8
36D8
36D8
37F8
3618
3618
ENDCHAR
STARTCHAR 4EDA
ENCODING 20186
SWIDTH 1008 0
DWIDTH 14 0
BBX 13 2 0 4
BITMAP
C1F8
7F00
ENDCHAR
STARTCHAR 4EDD
ENCODING 20189
SWIDTH 1008 0
DWIDTH 14 0
BBX 14 13 0 -2
BITMAP
0300
0300
0680
0CC0
1860
3030
E01C
1FE0
0300
0300
0300
0300
FFFC
ENDCHAR
STARTCHAR 4EDE
ENCODING 20190
SWIDTH 1008 0
DWIDTH 14 0
BBX 13 14 0 -2
BITMAP
1800
1FF8
1998
3198
3198
7198
D698
3698
3598
3198
3318
3318
3618
3470
ENDCHAR
STARTCHAR 4EDF
ENCODING 20191
SWIDTH 1008 0
DWIDTH 14 0
BBX 14 14 0 -2
BITMAP
1818
1870
1BC0
30C0
30C0
70C0
DFFC
30C0
30C0
30C0
30C0
30C0
30C0
30C0
ENDCHAR
STARTCHAR 4EE1
ENCODING 20193
SWIDTH 1008 0
DWIDTH 14 0
BBX 14 14 0 -2
BITMAP
1B00
1B00
1B00
33FC
3600
77F0
D460
30C0
3180
3300
3600
3618
3618
33F8
ENDCHAR
ENDFONT
